<?xml version="1.0" standalone="no"?>
<!DOCTYPE svg PUBLIC "-//W3C//DTD SVG 1.1//EN" "http://www.w3.org/Graphics/SVG/1.1/DTD/svg11.dtd" >
<svg xmlns="http://www.w3.org/2000/svg">
<metadata>
This is a custom SVG webfont generated by Font Squirrel.
Copyright   : Digitized data copyright  2007 Google Corporation
Foundry     : Ascender Corporation
Foundry URL : httpwwwascendercorpcom
</metadata>
<defs>
<font id="webfontAwv7osp4" horiz-adv-x="1144" >
<font-face units-per-em="2048" ascent="1638" descent="-410" />
<missing-glyph horiz-adv-x="530" />
<glyph unicode=" "  horiz-adv-x="530" />
<glyph unicode="&#x09;" horiz-adv-x="530" />
<glyph unicode="&#xa0;" horiz-adv-x="530" />
<glyph unicode="!" horiz-adv-x="808" d="M158 131q0 41 12 76q10 27 37 57q22 25 55 37q39 14 74 14q31 0 65.5 -10t53.5 -26q25 -20 34 -46q12 -29 13 -65q0 -51 -14.5 -86t-41.5 -57q-23 -20 -59 -31q-35 -10 -63 -10q-74 0 -121 36q-45 37 -45 111zM313 467l117 995h356l-354 -995h-119z" />
<glyph unicode="&#x22;" horiz-adv-x="1038" d="M311 899l49 563h320l-234 -563h-135zM778 899l29 563h319l-213 -563h-135z" />
<glyph unicode="#" d="M57 410l15 141h231l111 371h-238l17 143h264l112 397h148l-115 -397h213l117 397h145l-116 -397h196l-16 -143h-223l-109 -371h227l-14 -141h-256l-119 -410h-145l119 410h-213l-121 -410h-146l121 410h-205zM449 551h215l110 371h-215z" />
<glyph unicode="$" d="M51 352q0 98 60 142q57 43 168 43q0 -72 12 -127q10 -51 35 -95q23 -41 53 -65q35 -27 70 -41l92 436q-86 47 -129 78q-53 39 -95 86q-37 43 -57 102q-20 61 -20 127q0 82 34.5 152t94.5 115q70 51 145 73q90 27 191 29l32 149h115l-35 -153q164 -12 244 -67.5t80 -139.5 q0 -41 -12.5 -76t-38.5 -55q-29 -23 -72 -35t-109 -12q0 23 -8 76q-6 39 -20.5 73.5t-36.5 63.5q-23 31 -53 45l-86 -404l47 -24q143 -74 209 -162q70 -92 69 -205q0 -94 -35 -170q-33 -72 -98.5 -125t-155.5 -80q-92 -27 -206 -30l-50 -238h-114l51 240q-182 14 -279 88 q-92 71 -92 186zM504 1106q0 -58 24.5 -98t73.5 -74l76 356q-35 -6 -66 -18q-33 -12 -57 -35q-20 -16 -37 -55q-14 -31 -14 -76zM559 193q43 0 86 16q35 12 66 41q28 25 43 61q14 35 14 78q0 37 -4 53q-6 29 -21 47q-20 29 -38 48q-25 25 -62 49z" />
<glyph unicode="%" horiz-adv-x="1832" d="M147 872q0 61 12.5 133t37.5 140q20 59 63 129q37 61 90 108.5t119 74t149 26.5q76 0 134 -23q53 -20 92 -63q33 -35 53 -99q18 -55 18 -120q0 -59 -12 -127q-10 -55 -39 -136q-27 -72 -63 -129q-41 -63 -92 -108q-55 -49 -121 -76q-70 -29 -152 -29q-68 0 -119 19 q-53 18 -92 57q-35 35 -57 94q-21 53 -21 129zM367 0l1015 1462h154l-1010 -1462h-159zM369 856q0 -82 20 -129q20 -49 70 -49q41 0 73.5 26.5t61.5 71.5q20 33 47 101q18 49 33 114q16 80 20 113q8 74 8 96q0 76 -20 127q-18 47 -70 49q-39 0 -73.5 -28.5t-61.5 -69.5 q-20 -33 -47 -100q-18 -49 -33 -115q-16 -80 -20 -113q-8 -74 -8 -94zM997 279q0 65 13 135q12 70 37 137q20 59 63 129q37 61 90 108.5t118.5 74t149.5 26.5q76 0 134 -23q53 -20 92 -63q33 -35 53 -98q18 -55 18 -121q0 -59 -12 -127q-10 -55 -39 -135q-27 -72 -63 -129 q-41 -63 -92 -109q-55 -49 -121 -76q-70 -29 -152 -28q-61 0 -119 20q-53 18 -92 57q-35 35 -57 93q-21 53 -21 129zM1219 262q0 -82 20 -129q23 -49 70 -49q41 0 73.5 26.5t61.5 71.5q20 33 47 101q18 49 33 114q16 80 20 113q8 74 8 96q0 76 -20 127q-18 47 -70 49 q-39 0 -73 -28q-33 -27 -62 -72q-23 -35 -47 -98q-18 -49 -33 -115q-16 -80 -20 -113q-8 -74 -8 -94z" />
<glyph unicode="&#x26;" horiz-adv-x="1638" d="M70 365q0 100 36 174q39 78 97 127q63 55 141 90q78 37 172 71q-51 88 -72 154q-25 76 -24 149q0 89 31 154q33 68 90 111q61 45 143 65q90 23 195 23q100 0 163 -21q72 -23 113 -55q43 -35 65.5 -86t22.5 -104q0 -76 -20.5 -125.5t-69.5 -98.5q-41 -41 -123 -84 t-186 -86l252 -331q37 78 59 151q27 84 41 152l16 77h410l-23 -108h-18q-23 0 -68 -4q-35 -4 -65 -19q-37 -18 -59 -41q-25 -25 -52 -73l-65 -127q-31 -63 -80 -138l129 -169q29 -41 78 -64q43 -20 112 -20h15l-23 -109h-393l-102 141q-96 -78 -197 -116q-119 -45 -262 -45 q-121 0 -213 28q-88 27 -149.5 82t-88.5 123q-28 74 -28 152zM371 381q0 -51 16 -105q14 -49 47 -83q31 -35 76 -56q43 -20 102 -20q94 0 174 37q74 35 142 98l-334 463q-59 -33 -102 -70t-70 -76q-25 -37 -39 -88q-12 -47 -12 -100zM696 1147q0 -63 21 -113q25 -57 59 -112 q61 27 107 55q53 33 73 57q29 33 41 68q12 37 13 86q0 82 -37 127t-109 45q-39 0 -67 -14q-35 -18 -54 -41q-23 -31 -34 -68q-13 -41 -13 -90z" />
<glyph unicode="'" horiz-adv-x="593" d="M311 899l29 563h319l-213 -563h-135z" />
<glyph unicode="(" horiz-adv-x="817" d="M86 381q0 137 23 256q23 123 71 252q41 111 119 231q71 111 166 203q90 88 215 158q117 66 264 100l-20 -129q-80 -45 -138 -96q-53 -49 -106 -119q-55 -74 -82 -127q-45 -90 -61 -133q-20 -53 -43 -129l-31 -115q-37 -154 -49.5 -264.5t-12.5 -183.5q0 -68 9 -125 q8 -61 30 -121q20 -55 56 -107q33 -47 84 -86l-27 -131q-125 43 -213 111q-90 70 -145 154q-53 82 -82 188q-27 98 -27 213z" />
<glyph unicode=")" horiz-adv-x="817" d="M-90 -285l20 131q80 45 138 97q57 53 106 116q51 70 82 129q45 90 61 134q20 53 43 129l31 114q37 154 49.5 264.5t12.5 184.5q0 70 -8.5 127t-30.5 119q-20 55 -56 106q-33 47 -84 86l27 131q125 -43 213 -110.5t145 -155.5q53 -84 82 -187q27 -98 27 -212 q0 -137 -22.5 -256t-71.5 -250q-43 -115 -119 -234q-71 -111 -166 -203q-90 -88 -215 -157q-112 -64 -264 -103z" />
<glyph unicode="*" horiz-adv-x="1265" d="M260 1161l330 17l-295 145l133 184l252 -280l4 340l225 -47l-141 -308l344 146l47 -219l-328 -13l295 -147l-133 -178l-256 272l2 -340l-223 47l135 314l-342 -150z" />
<glyph unicode="+" d="M166 659v146h364v366h148v-366h366v-146h-366v-366h-148v366h-364z" />
<glyph unicode="," horiz-adv-x="600" d="M-23 -309l23 108q211 49 211 170q0 23 -8 37q-6 10 -22.5 26.5t-27 25t-26.5 28.5t-23 35q-8 18 -8 51q0 35 13 59q14 31 32 45q20 16 49 27q31 10 60 10q37 0 69.5 -12t57.5 -37q20 -20 37 -57q14 -31 14 -80q0 -74 -29 -147q-25 -66 -84 -127q-49 -53 -141 -99 q-82 -40 -197 -63z" />
<glyph unicode="-" horiz-adv-x="634" d="M20 451l48 215h532l-47 -215h-533z" />
<glyph unicode="." horiz-adv-x="622" d="M90 131q0 41 12 76q12 33 37 57q27 27 56 37q39 14 73 14q31 0 66 -10t53 -26q25 -20 35 -46q12 -29 12 -65q0 -47 -16 -86q-14 -35 -41 -57q-23 -20 -57.5 -30.5t-63.5 -10.5q-76 0 -121 36.5t-45 110.5z" />
<glyph unicode="/" horiz-adv-x="589" d="M-211 -248l873 1804h159l-872 -1804h-160z" />
<glyph unicode="0" d="M76 473q0 104 18 221q20 127 53 230q43 133 89 215q57 106 126 178q72 76 168 123q90 45 207 45q90 0 164 -27q78 -29 133.5 -86t87.5 -145q33 -86 33 -211q0 -117 -16 -221q-18 -121 -52 -232q-29 -98 -88 -221q-55 -113 -125 -188q-74 -80 -165 -129q-88 -47 -207 -48 q-94 0 -174 31q-76 29 -133 96q-59 70 -89 156q-30 92 -30 213zM356 385q0 -138 43 -203q43 -66 115 -65q57 0 111 47q51 45 92 127q43 86 71 180q33 111 54 209q18 94 32 213q10 86 11 190q0 137 -41 199q-43 66 -117 66q-57 0 -109 -48q-49 -45 -90 -124q-47 -90 -73 -179 q-33 -111 -54 -209q-25 -121 -34 -210q-11 -87 -11 -193z" />
<glyph unicode="1" d="M82 0l22 109h121q70 0 117 30.5t61 102.5l158 745q10 55 25 113l22 90q4 16 11.5 43t9.5 35h-8q-70 -72 -89 -90l-75 -66q-34 -28 -68 -43q-31 -14 -65 -14q-45 0 -72 39t-27 112q57 14 72 21q37 12 80 30q29 12 90 43q29 14 106 64l166 106h230l-260 -1222 q0 -6 -3.5 -14.5t-5.5 -20.5q-4 -14 -4 -37q0 -25 11 -35q16 -16 32 -20q27 -8 49 -10q18 -2 62 -2h100l-22 -109h-846z" />
<glyph unicode="2" d="M-29 0l43 211l478 403q117 100 172 160q55 61 104 139q41 66 55 125q14 57 15 125q0 45 -8.5 78t-29 59.5t-44.5 40.5q-27 14 -62 15q-51 0 -90 -27q-40 -28 -67 -74q-33 -53 -45 -108q-18 -76 -21 -137q-47 0 -94 10q-39 8 -74 33q-31 22 -49 55q-18 35 -18 78 q0 55 32 114q31 53 92 95q66 43 150 65q82 23 205 23q111 0 186 -21q88 -25 135 -55q55 -37 84 -90t29 -118.5t-29 -133.5q-31 -74 -82 -135q-49 -59 -139 -144q-66 -61 -192 -165l-492 -396h477q53 0 84 15q37 16 58 36q27 27 40 56l31 61l15 37h120l-100 -430h-969z" />
<glyph unicode="3" d="M-2 227q0 80 59.5 127t165.5 47q0 -66 15 -110q16 -53 42.5 -88t71.5 -58q41 -20 105 -20q51 0 98 20q53 23 86 60q39 43 59 100q23 63 23 141q0 119 -76 182.5t-213 63.5h-88l21 127h65q80 0 160 27q72 25 125 74q55 53 84 114q31 68 30 148q0 41 -8 71.5t-26 55.5 q-20 27 -43 37q-29 12 -64 12q-55 0 -96 -25q-37 -23 -66 -67q-27 -41 -45 -97q-16 -49 -26 -116q-49 0 -92 6q-37 6 -72 22q-33 16 -49 39q-18 25 -19 64q0 63 39 116q41 55 109 97q74 43 159 63q96 23 195 23q95 0 172 -19q74 -18 133 -57q51 -35 84 -92q31 -55 31 -125 q0 -74 -24.5 -141.5t-78.5 -126.5q-47 -51 -129 -99q-78 -43 -180 -61q68 -8 127 -31q53 -20 99 -61q37 -33 59 -90q23 -55 22 -119q0 -86 -26 -162q-25 -72 -72 -125q-51 -57 -104 -90q-68 -41 -127 -59q-88 -29 -142 -35q-82 -10 -141 -10q-117 0 -203 22q-78 20 -133 59 q-53 39 -74 78q-22 45 -22 88z" />
<glyph unicode="4" d="M0 381l29 127l784 954h287l-203 -946h213l-29 -135h-213l-26 -127q-4 -14 -6 -33q-2 -14 -2 -31q0 -27 10 -43t26 -24q12 -6 43 -10q33 -4 56 -4h37l-23 -109h-719l21 109h59q20 0 62 4q29 2 57 18q31 16 49 43q16 25 31 82l26 125h-569zM188 516h410l76 358l8 40l10 49 l25 102q14 59 26 102q4 12 13.5 47t15.5 54q-6 -10 -23.5 -36l-27.5 -40l-59 -86l-60 -80q-29 -39 -51 -65z" />
<glyph unicode="5" d="M20 219q0 39 11 64q12 33 35 51q31 27 61 37q37 12 84 12q0 -39 10 -90q8 -45 35 -84q25 -37 68 -61.5t110 -24.5q63 0 121 22q51 20 94 70q37 43 60 115q20 68 20 162q0 66 -18 114q-16 45 -54 82q-35 35 -77 49q-49 16 -99 17q-27 0 -67 -4q-25 -2 -56 -11 q-33 -8 -47 -14q-8 -4 -20 -8t-21 -8l-86 43l209 710h774l-59 -372h-125q2 8 3 26.5t1 28.5q2 20 2 42.5t-20.5 37t-79.5 14.5h-412l-121 -383q6 2 88 23q41 10 125 10q106 0 193 -25q82 -25 145 -73q59 -47 94 -121q33 -68 33 -164q0 -113 -43 -209q-43 -95 -123 -166 t-196 -111q-119 -41 -264 -40q-98 0 -181 20q-78 18 -121 51t-65 76q-21 41 -21 92z" />
<glyph unicode="6" d="M104 475q0 139 23 252q27 131 70 236q47 113 110.5 207t151.5 165q82 68 186 109q98 39 221 39q90 0 148 -17q68 -18 106 -47q41 -29 63.5 -67.5t22.5 -79.5q0 -80 -67 -127q-70 -47 -189 -47q0 37 -4 98q-2 43 -16.5 84t-34.5 59q-27 23 -66 23q-133 0 -231 -141 q-96 -139 -162 -426q18 16 53 36q25 14 68 33q25 10 82 23q47 10 96 10q86 0 154 -29q61 -27 108 -80q41 -47 64 -114q20 -61 20 -139q0 -102 -34 -207q-35 -102 -101 -178q-68 -77 -172 -123q-106 -47 -244 -47q-89 0 -165.5 30.5t-135.5 91.5q-57 59 -92 156 q-33 90 -33 217zM385 410q0 -154 47 -225.5t127 -71.5q51 0 94 30.5t74 86t49 128.5q16 66 17 160q0 125 -39 189q-41 66 -113 65q-29 0 -66 -10q-31 -8 -63 -25q-35 -16 -55 -32q-14 -10 -47 -39q-25 -150 -25 -256z" />
<glyph unicode="7" d="M201 1032l84 430h977l-23 -121l-852 -1341h-174l809 1239h-526q-57 0 -93 -27q-33 -25 -49 -77l-28 -103h-125z" />
<glyph unicode="8" d="M27 332q0 86 30 147q33 68 86 111q55 45 127 82q63 33 160 69q-43 34 -80 74t-61 86q-29 53 -41 96q-14 49 -15 107q0 76 29 145q29 68 90 121q57 49 162 82q98 31 238 31q94 0 174 -23q74 -20 127 -61q51 -39 79.5 -96.5t28.5 -118.5q0 -78 -24.5 -137.5t-71.5 -106.5 q-51 -51 -109 -84q-80 -45 -139 -72q52 -34 98 -73q45 -39 78 -84q35 -49 54 -99q18 -53 18 -114q0 -109 -41 -195q-39 -78 -115 -133q-78 -55 -178 -80q-111 -27 -225 -26q-100 0 -197 26q-76 20 -149 74q-65 46 -99 110q-34 66 -34 142zM303 324q0 -106 57.5 -166 t161.5 -60q49 0 103 17q49 16 84 47q37 33 57 82q20 47 20 112q0 47 -16 93q-15 43 -43 79q-25 33 -72 70q-45 35 -102 66q-119 -49 -184 -132q-66 -79 -66 -208zM516 1114q0 -160 174 -266q63 33 101 67q47 43 65 74q25 40 37 86q10 39 10 94q0 37 -10 78t-29 62 q-25 27 -51 41q-29 14 -72 14q-49 0 -90 -18q-43 -20 -69 -50q-33 -35 -50 -77q-16 -42 -16 -105z" />
<glyph unicode="9" d="M57 190q0 68 43 105t117 37q0 -33 10.5 -78t31 -73.5t54.5 -51.5q33 -20 78 -20q76 0 135.5 38.5t110.5 114.5q47 72 92 187q41 104 82 253q-23 -25 -57 -53q-25 -18 -72 -43q-39 -18 -82 -31q-46 -12 -98 -12q-80 0 -145.5 24.5t-108.5 71.5q-45 49 -66 107 q-23 63 -22 137q0 125 47 236q45 106 125 182q78 76 184 119q104 43 221 43q94 0 166 -27q78 -29 127 -78q51 -51 80 -126.5t29 -172.5q0 -35 -2 -59q-3 -37 -7 -80q-2 -16 -7 -49t-5 -39q-6 -46 -18 -92q-23 -100 -56 -195q-35 -98 -79.5 -182t-106.5 -162 q-59 -74 -133 -127q-78 -55 -162 -84q-88 -31 -194 -30q-83 0 -142 18q-63 20 -96 45q-37 27 -55 66q-19 36 -19 81zM455 913q0 -98 41 -151q39 -51 110 -51q43 0 74 14q37 16 65 37q20 14 54 51q10 12 41 57q6 25 12 56q4 23 8 59q2 10 5 29.5t3 27.5q2 18 2 50 q0 68 -12 116q-12 53 -31 78q-23 31 -47 45q-27 14 -61 15q-57 0 -106.5 -37t-84 -100.5t-53.5 -139.5q-20 -86 -20 -156z" />
<glyph unicode=":" horiz-adv-x="731" d="M90 131q0 41 12 76q12 33 37 57q27 27 56 37q39 14 73 14q31 0 66 -10t53 -26q25 -20 35 -46q12 -29 12 -65q0 -47 -16 -86q-14 -35 -41 -57q-23 -20 -57.5 -30.5t-63.5 -10.5q-76 0 -121 36.5t-45 110.5zM270 924q0 43 12.5 75.5t36.5 57.5q27 27 56 37q39 14 74 14 q39 0 65 -8q31 -8 53 -29q25 -20 35 -45q12 -27 12 -65q0 -47 -16 -87q-14 -35 -41 -57q-23 -20 -57.5 -30.5t-63.5 -10.5q-78 0 -121 35q-45 37 -45 113z" />
<glyph unicode=";" horiz-adv-x="731" d="M-23 -309l23 108q211 49 211 170q0 23 -8 37q-6 10 -22.5 26.5t-27 25t-26.5 28.5t-23 35q-8 18 -8 51q0 35 13 59q14 31 32 45q20 16 49 27q31 10 60 10q37 0 69.5 -12t57.5 -37q20 -20 37 -57q14 -31 14 -80q0 -74 -29 -147q-25 -66 -84 -127q-49 -53 -141 -99 q-82 -40 -197 -63zM270 924q0 43 12.5 75.5t36.5 57.5q27 27 56 37q39 14 74 14q39 0 65 -8q31 -8 53 -29q25 -20 35 -45q12 -27 12 -65q0 -47 -16 -87q-14 -35 -41 -57q-23 -20 -57.5 -30.5t-63.5 -10.5q-78 0 -121 35q-45 37 -45 113z" />
<glyph unicode="&#x3c;" d="M166 690v84l878 479v-161l-659 -361l659 -356v-162z" />
<glyph unicode="=" d="M166 461v143h887v-143h-887zM166 858v143h887v-143h-887z" />
<glyph unicode="&#x3e;" d="M166 213v162l659 356l-659 361v161l878 -479v-84z" />
<glyph unicode="?" horiz-adv-x="1095" d="M207 1217q0 57 32.5 104t94.5 84q57 35 149 57q82 20 197 21q104 0 184 -21q86 -23 140 -61q57 -43 88 -107q31 -66 30 -151q0 -90 -39 -162q-41 -76 -106 -135q-59 -53 -162 -109q-78 -43 -203 -88l-73 -182h-131l-5 254q98 35 164 72q74 39 127 90q49 47 80 116 q29 68 29 148q0 49 -12 90q-10 37 -31 66q-16 23 -47 40q-27 14 -58 15q-49 0 -82 -25q-41 -29 -59 -67q-25 -49 -35 -95q-16 -74 -20 -112q-252 0 -252 158zM258 131q0 41 12 76q12 33 37 57q27 27 55 37q39 14 74 14q31 0 66 -10t53 -26q25 -20 35 -46q12 -29 12 -65 q0 -47 -16 -86q-14 -35 -41 -57q-23 -20 -57.5 -30.5t-63.5 -10.5q-76 0 -121 36.5t-45 110.5z" />
<glyph unicode="@" horiz-adv-x="1884" d="M88 500q0 139 33 262q33 119 96 231q61 106 150 193q94 90 196 149q104 59 236 95q125 33 270 32q178 0 311 -51q139 -53 228 -139q90 -88 137 -209q45 -117 45 -260q0 -152 -37 -273q-39 -125 -96 -202q-63 -86 -137 -127q-78 -43 -152 -43q-86 0 -154 45 q-65 43 -98 147h-12q-29 -53 -47 -76q-35 -41 -62 -61q-35 -27 -77 -41q-41 -14 -97 -14q-68 0 -123 20q-59 23 -102 66q-45 45 -70 108q-27 70 -26 156q0 53 12 119q8 47 43 127q27 61 72 123q47 63 104 106t141 72q82 29 179 28q74 0 123 -18q53 -20 81 -43l86 43h50 l-86 -512q-2 -4 -3.5 -14.5t-1.5 -16.5q-4 -25 -6 -39t-2 -39q0 -6 -1 -16t-1 -14q0 -45 8.5 -70t24.5 -41q18 -18 30.5 -22.5t35.5 -4.5q41 0 81 33q39 31 76 101q35 66 56 161q23 102 22 224q0 141 -43 245q-45 109 -119 177q-76 70 -180 106q-98 35 -227 35 q-98 0 -191 -27q-94 -27 -180 -80q-92 -55 -158 -127q-76 -82 -125 -172t-82 -213q-31 -117 -30 -252q0 -184 53 -309q55 -129 147 -209q96 -84 216 -119q123 -37 262 -36q76 0 161 16q88 16 152 39q80 29 131 53q35 16 109 64l49 -78q-61 -45 -123 -78q-49 -27 -150 -61 q-82 -29 -170 -43q-98 -16 -188 -17q-123 0 -225 21q-104 20 -203 65q-88 39 -172 111q-80 66 -133 153q-57 92 -86 197q-31 111 -31 244zM752 487q0 -102 36 -157q35 -53 95 -54q47 0 75 21q33 23 54 55q16 25 35 78q10 31 22 88l82 418q-6 15 -18 25l-10 8q-9 8 -15 10 q-20 8 -33 10q-25 4 -33 4q-47 0 -94 -26q-43 -25 -73.5 -68t-55.5 -98q-23 -49 -39 -111q-14 -49 -20 -108q-8 -70 -8 -95z" />
<glyph unicode="A" horiz-adv-x="1540" d="M-100 0l22 109h43q28 0 49 6q18 6 41 24q22 18 43.5 49t48.5 80l695 1194h280l172 -1206q12 -55 13 -59q10 -33 22 -47.5t37 -28.5q23 -12 53 -12h37l-22 -109h-676l22 109h47q66 0 105 20.5t39 65.5v34q0 10 -4 31l-31 221h-498l-100 -184q-16 -27 -29 -66 q-10 -31 -10 -49q0 -37 29 -55q28 -18 86 -18h41l-23 -109h-532zM508 606h414l-37 344q-2 25 -5 46.5t-6 37.5q-2 27 -6 76q0 8 -2 23.5t-3 28t-1 22.5q-4 45 -4 71q-20 -49 -31 -69l-30 -64q-8 -14 -12.5 -23t-11.5 -20.5l-15 -25.5l-47 -84z" />
<glyph unicode="B" horiz-adv-x="1374" d="M-47 0l22 109h27q20 0 61 4q31 2 58 16q23 10 43 39q16 23 26 63l209 986q4 12 9 40q4 25 4 27q0 25 -11 37q-10 14 -30 20q-23 8 -47 11q-18 2 -60 2h-26l22 108h635q238 0 358.5 -77.5t120.5 -229.5q0 -78 -26 -147q-25 -66 -70 -111q-49 -49 -107 -78 q-59 -29 -131 -45l-2 -8q51 -8 101 -35q46 -25 80 -61q33 -35 51 -88.5t18 -114.5q0 -109 -39 -199t-110 -147q-76 -59 -185 -90q-111 -31 -256 -31h-745zM489 125h142q84 0 147 22q61 22 99 68q37 47 55 113q18 68 18 153q0 113 -51 166q-51 55 -158 55h-129zM639 829h115 q145 0 209 76q66 78 65 215q0 106 -49 161.5t-143 55.5h-91z" />
<glyph unicode="C" horiz-adv-x="1366" d="M129 530q0 117 29 242q27 113 84 225q55 108 135 197q90 100 180 158q106 68 219 102q120 37 258 37q101 0 178 -18q84 -20 127 -48q51 -33 76 -77.5t25 -100.5q0 -45 -22.5 -79.5t-59.5 -57.5q-35 -20 -92 -35q-53 -12 -115 -12q0 43 -6 94q-6 52 -25 98q-16 39 -53 74 q-35 31 -90 31q-82 0 -150 -37q-74 -39 -125 -100q-61 -70 -100 -148q-35 -66 -72 -178q-29 -86 -45 -190.5t-16 -188.5q0 -176 88 -270q90 -96 266 -96q66 0 127 16q55 14 103 43q51 31 80 59q37 37 59 68q10 -8 25 -29q10 -14 10 -41q0 -51 -31 -102q-29 -51 -92 -94 q-57 -41 -150 -66q-96 -27 -204 -26q-145 0 -263 36q-115 37 -194 107q-78 70 -123 174q-41 96 -41 233z" />
<glyph unicode="D" horiz-adv-x="1572" d="M-49 0l22 109h29q20 0 61 4q31 2 58 16q23 10 43 39q16 23 26 63l213 1006l3 9q2 9 4 16q2 10 2 22q0 25 -11 37q-10 14 -30 20q-23 8 -47 11q-18 2 -60 2h-26l22 108h655q145 0 263 -37q115 -37 194 -106q78 -68 121 -174q43 -104 43 -240q0 -123 -25 -237 q-23 -106 -75 -215q-47 -96 -123 -183q-74 -82 -168 -143q-92 -59 -215 -94q-117 -33 -258 -33h-721zM492 127h92q143 0 258 59q113 57 190 164q82 111 119 250q41 152 41 322q0 106 -25 186q-23 74 -71 129q-45 51 -113 75.5t-149 24.5h-86z" />
<glyph unicode="E" horiz-adv-x="1294" d="M-47 0l22 109h27q20 0 61 4q31 2 58 16q23 10 43 39q16 23 26 63l213 1006l3 9q2 9 4 16q2 10 2 22q0 25 -11 37q-10 14 -30 20q-23 8 -47 11q-18 2 -60 2h-26l22 108h1112l-72 -381h-145l1 9q1 8 1 16l4 37q0 6 1 19.5t1 17.5q0 6 2 17v3q0 31 -8 53q-10 29 -24 43 q-23 23 -46 31q-31 10 -67 10h-272l-109 -512h465l-27 -123h-465l-123 -577h324q43 0 86 14q37 12 66 35q27 20 47 55q25 41 32 64l33 88h146l-95 -381h-1175z" />
<glyph unicode="F" horiz-adv-x="1271" d="M-47 0l22 109h27q20 0 61 4q31 2 58 16q23 10 43 39q16 23 26 63l209 983q12 51 13 70q0 25 -11 37q-10 14 -30 20q-23 8 -47 11q-18 2 -60 2h-26l22 108h1126l-71 -381h-146q2 6 2 17.5t3 17.5q2 12 2 37q0 8 2 16.5t2 14.5v16q0 31 -9 53q-12 33 -24 45q-20 20 -49 29 q-35 10 -72 10h-278l-119 -559h485l-24 -121h-486l-90 -415q-2 -4 -8 -39q-2 -10 -2 -25q0 -25 10 -35q18 -18 33 -22q29 -8 47 -10t59 -2h27l-23 -109h-704z" />
<glyph unicode="G" horiz-adv-x="1628" d="M129 528q0 131 31 254q29 117 90 230q57 104 141 192q86 90 189 150q106 63 231 96q123 33 266 33q123 0 205 -21q88 -23 145.5 -55.5t86 -77.5t28.5 -90q0 -40 -24 -74q-29 -41 -64 -61q-37 -23 -94 -39q-59 -16 -115 -16q0 57 -14 120q-12 55 -41 97q-29 43 -72 63 q-45 23 -104 23q-80 0 -150 -31q-68 -29 -131 -90q-66 -63 -110 -135q-53 -86 -84 -174q-41 -115 -56 -201q-18 -106 -18 -217q0 -92 16 -156q18 -71 56 -123q35 -49 96 -77.5t141 -28.5q53 0 96 8q55 10 86 20l68 304q12 55 12 69q0 20 -12 35q-14 18 -29 23q-23 8 -47 10 q-18 2 -59 2h-27l23 108h682l-23 -108h-2q-25 0 -65 -4q-27 -2 -58 -19q-29 -14 -45 -36.5t-26 -65.5l-78 -391q-33 -12 -121 -41q-57 -18 -121 -31q-41 -8 -127 -16q-66 -6 -137 -6q-150 0 -277 38q-117 35 -198 109q-78 70 -119 172q-41 104 -41 229z" />
<glyph unicode="H" horiz-adv-x="1675" d="M-47 0l22 109h27q20 0 61 4q31 2 58 16q23 10 43 39q16 23 26 63l209 983q12 51 13 70q0 25 -11 37q-10 14 -30 20q-23 8 -47 11q-18 2 -60 2h-26l22 108h707l-23 -108h-26q-25 0 -66 -4q-25 -2 -57 -19q-29 -14 -45.5 -36.5t-26.5 -65.5l-84 -404h535l86 398q2 10 8 37 q2 10 2 24q0 25 -10 37q-12 14 -33 20q-29 8 -47.5 10.5t-59.5 2.5h-26l22 108h707l-23 -108h-26q-23 0 -64 -4q-27 -2 -57 -19q-29 -14 -45.5 -36.5t-26.5 -65.5l-211 -1004l-2 -9q-2 -9 -4 -15q-2 -10 -2 -23q0 -25 10 -35q18 -18 31 -22q23 -8 47 -10q18 -2 59 -2h27 l-23 -109h-706l22 109h27q23 0 64 4q27 2 57 18q29 14 45 36.5t27 65.5l98 467h-535l-100 -475l-2 -9q-2 -9 -4 -15q-2 -10 -2 -23q0 -25 10 -35q18 -18 33 -22q29 -8 47 -10t59 -2h27l-23 -109h-704z" />
<glyph unicode="I" horiz-adv-x="819" d="M-47 0l22 109h27q20 0 61 4q31 2 58 16q23 10 43 39q16 23 26 63l213 1006l3 9q2 9 4 16q2 10 2 22q0 25 -11 37q-10 14 -30 20q-23 8 -47 11q-18 2 -60 2h-26l22 108h707l-23 -108h-26q-25 0 -66 -4q-25 -2 -57 -19q-29 -14 -45.5 -36.5t-26.5 -65.5l-211 -1004 q-2 -4 -3 -12t-1 -12q-4 -20 -4 -23q0 -25 10 -35q18 -18 33 -22q29 -8 47 -10t59 -2h27l-23 -109h-704z" />
<glyph unicode="J" horiz-adv-x="819" d="M-324 -469l29 113q8 -4 29 -9q10 -2 34.5 -6t36.5 -4h33q52 0 99 19q45 18 83 63q33 39 66 113q33 76 53 174l264 1243l3 9q2 9 4 16q2 10 2 22q0 25 -11 37q-10 14 -30 20q-23 8 -47 11q-18 2 -60 2h-26l22 108h707l-23 -108h-26q-25 0 -66 -4q-25 -2 -57 -19 q-29 -14 -45.5 -36.5t-26.5 -65.5l-260 -1235q-25 -125 -86 -217q-57 -86 -146 -152q-82 -61 -182 -88q-104 -29 -205 -29q-55 0 -92 7q-53 8 -76 16z" />
<glyph unicode="K" horiz-adv-x="1517" d="M-47 0l22 109h27q20 0 61 4q31 2 58 16q23 10 43 39q16 23 26 63l209 983q12 51 13 70q0 25 -11 37q-10 14 -30 20q-23 8 -47 11q-18 2 -60 2h-26l22 108h707l-23 -108h-26q-25 0 -66 -4q-25 -2 -57 -19q-29 -14 -45.5 -36.5t-26.5 -65.5l-102 -486l415 367q37 33 68 66 q33 35 43 53q12 20 20 43q6 18 7 31q0 29 -21 40q-23 12 -70 13l23 106h553l-23 -106q-39 0 -80 -10q-35 -8 -75 -31q-31 -16 -82 -53q-31 -23 -92 -76l-332 -293l239 -576q29 -68 46 -98q23 -43 41 -63.5t47 -34.5q25 -12 61 -12h6l-20 -109h-107q-102 0 -170 12 q-66 12 -114 45q-43 29 -78 86q-31 49 -66 140l-151 391l-121 -86l-76 -363q-2 -4 -3 -12t-1 -12q-4 -20 -4 -23q0 -25 10 -35q18 -18 33 -22q29 -8 47 -10t59 -2h27l-23 -109h-704z" />
<glyph unicode="L" horiz-adv-x="1337" d="M-47 0l22 109h27q20 0 61 4q31 2 58 16q23 10 43 39q16 23 26 63l209 983q12 51 13 70q0 25 -11 37q-10 14 -30 20q-23 8 -47 11q-18 2 -60 2h-26l22 108h707l-23 -108h-26q-25 0 -66 -4q-25 -2 -57 -19q-29 -14 -45.5 -36.5t-26.5 -65.5l-231 -1104h342q61 0 98 14 q45 18 72 41q33 31 53 70q25 49 41 98l37 109h131l-113 -457h-1200z" />
<glyph unicode="M" horiz-adv-x="1949" d="M-47 0l22 109h27q20 0 61 4q31 2 58 16q23 10 43 39q16 23 26 63l209 983q12 51 13 70q0 25 -11 37q-10 14 -30 20q-23 8 -47 11q-18 2 -60 2h-26l22 108h571l138 -995l536 995h592l-22 -108h-27q-23 0 -63 -4q-27 -2 -58 -19q-29 -14 -45 -36.5t-27 -65.5l-210 -1004 l-3 -9q-2 -9 -4 -15q-2 -10 -2 -23q0 -25 11 -35q18 -18 30 -22q23 -8 47 -10q18 -2 60 -2h26l-22 -109h-698l22 109h27q23 0 63 4q27 2 58 18q29 14 45 36.5t26 65.5l217 1027l-678 -1260h-141l-166 1260l-217 -1018q-2 -4 -8 -39q-2 -10 -2 -25q0 -25 10 -35 q18 -18 33 -22q29 -8 47 -10t59 -2h7l-23 -109h-516z" />
<glyph unicode="N" horiz-adv-x="1613" d="M-47 0l22 109h27q20 0 61 4q31 2 58 16q23 10 43 39q16 23 26 63l209 983q12 51 13 70q0 25 -11 37q-10 14 -30 20q-23 8 -47 11q-18 2 -60 2h-26l22 108h455l499 -1050l172 809q10 39 10.5 63.5t-10.5 36.5q-12 14 -32 20q-29 8 -47.5 10.5t-59.5 2.5h-6l23 108h516 l-23 -108h-26q-20 0 -62 -4q-23 -2 -55 -19q-29 -14 -45.5 -36.5t-26.5 -63.5l-260 -1231h-188l-555 1159l-193 -917q-2 -4 -8 -39q-2 -10 -2 -25q0 -25 10 -35q18 -18 33 -22q29 -8 47 -10t59 -2h7l-23 -109h-516z" />
<glyph unicode="O" horiz-adv-x="1619" d="M129 545q0 98 25 207q25 106 73 211q53 115 121 200q72 94 170 166q90 68 217 113q121 43 266 43q117 0 216 -33q102 -35 180 -102q80 -72 125 -174q45 -104 45 -254q0 -102 -23 -201q-23 -100 -71 -211q-47 -104 -119 -203q-66 -90 -168 -168q-98 -78 -219 -119 q-123 -43 -267 -43q-121 0 -225 37t-182 109q-80 74 -121 176q-43 108 -43 246zM463 496q0 -96 22 -174q23 -74 58 -119q37 -45 90 -68q55 -23 108 -22q82 0 154 41q63 37 125 110q59 72 96 156q35 76 66 184q31 102 41 189q12 96 12 176q0 104 -21 172q-23 76 -57 119 q-39 49 -88 69q-55 23 -111 23q-84 0 -155 -41q-63 -35 -123 -109q-57 -70 -96 -158q-40 -89 -68 -184q-29 -102 -41 -190q-12 -96 -12 -174z" />
<glyph unicode="P" horiz-adv-x="1357" d="M-47 0l22 109h27q20 0 61 4q31 2 58 16q23 10 43 39q16 23 26 63l209 983q12 51 13 70q0 25 -11 37q-10 14 -30 20q-23 8 -47 11q-18 2 -60 2h-26l22 108h586q111 0 217 -26q90 -23 164 -76q66 -47 104 -125q37 -74 37 -172q0 -45 -10 -111q-8 -53 -35 -112 q-25 -57 -72 -107q-51 -53 -114 -90q-72 -41 -166 -61q-102 -23 -230 -23h-155l-74 -334l-2 -9q-2 -9 -4 -15q-2 -10 -2 -23q0 -25 10 -35q18 -18 33 -22q29 -8 47 -10t59 -2h68l-23 -109h-745zM610 678h86q90 0 158 29q63 27 104 77q39 47 58 121q18 70 18 152 q0 76 -18 131q-18 57 -47 88q-31 33 -76 49t-94 16h-45z" />
<glyph unicode="Q" horiz-adv-x="1611" d="M127 545q0 98 25 207q25 106 73 211q53 115 121 200q72 94 170 166q90 68 217 113q119 43 266 43q117 0 215 -33q102 -35 181 -102q80 -72 125 -174q45 -104 45 -254q0 -84 -19 -177q-18 -96 -55 -186q-39 -94 -92 -182q-53 -86 -131 -164q-76 -76 -168 -129 q-100 -57 -207 -84q4 -117 20 -186q16 -68 50 -113q31 -41 73 -57q45 -16 92 -17h33l-26 -119h-148q-94 0 -172 27t-137 86q-57 57 -92 152q-34 92 -37 221q-88 18 -170 63q-78 43 -133 115q-59 76 -88 162q-31 92 -31 211zM461 496q0 -96 22 -174q23 -74 58 -119 q37 -45 90 -68q55 -23 108 -22q82 0 154 41q63 37 125 110q59 72 96 156q35 76 66 184q31 102 41 189q12 96 12 176q0 104 -21 172q-23 76 -57 119q-39 49 -88 69q-55 23 -111 23q-84 0 -155 -41q-63 -35 -123 -109q-57 -70 -96 -158q-40 -89 -68 -184q-29 -102 -41 -190 q-12 -96 -12 -174zM700 -23z" />
<glyph unicode="R" horiz-adv-x="1447" d="M-47 0l22 109h27q20 0 61 4q31 2 58 16q23 10 43 39q16 23 26 63l209 983q12 51 13 70q0 25 -11 37q-10 14 -30 20q-23 8 -47 11q-18 2 -60 2h-26l22 108h658q246 0 366.5 -86t120.5 -256q0 -106 -33 -178q-33 -70 -86 -121q-57 -53 -119 -80q-68 -29 -127 -43l142 -381 q27 -70 41 -98q23 -43 43 -65q23 -27 49 -35q31 -10 61 -10h8l-22 -109h-21q-115 0 -186 8q-74 8 -133 35q-57 25 -94 72q-39 49 -60 118l-129 402h-141l-80 -375q-2 -12 -10 -55q-4 -25 -4 -27q0 -25 10 -35q18 -18 33 -22q29 -8 47 -10t59 -2h68l-23 -109h-745zM621 754 h127q68 0 122 18q51 16 97 59q39 37 65 107q25 66 25 156q0 70 -13 116q-12 45 -36.5 76t-63.5 43q-37 12 -88 12h-104z" />
<glyph unicode="S" horiz-adv-x="1198" d="M29 279q0 43 20 83q18 37 55 62q33 23 84 35q49 12 107 12q0 -100 20 -164q25 -76 56 -114q35 -43 86 -66t110 -23q53 0 103 17q45 14 78 45q33 29 47 67q16 43 16 82q0 37 -10 78q-8 35 -39 72q-27 33 -78 67q-61 43 -125 78q-76 41 -141 90q-61 45 -101 101 q-41 55 -61 119q-20 61 -20 145q0 94 36 170q35 72 107 131q66 53 168 86q98 31 219 31q113 0 199 -18.5t141 -49.5q61 -35 86 -72q27 -41 27 -90q0 -86 -64 -131q-66 -47 -205 -47q0 41 -10 96q-8 45 -31 91q-20 41 -61 69q-39 27 -100 27q-43 0 -82 -12q-37 -12 -72 -39 q-29 -23 -51 -66q-20 -39 -21 -94q0 -59 17 -92q18 -37 51 -70q31 -31 86 -63l119 -68q154 -84 229 -186q74 -102 74 -232q0 -111 -39 -194q-39 -86 -113 -144q-72 -57 -178 -88q-104 -31 -233 -30q-121 0 -222 22q-86 20 -157 64q-63 39 -95 94q-32 60 -32 119z" />
<glyph unicode="T" horiz-adv-x="1335" d="M139 1065l94 397h1274l-71 -397h-138q0 14 2 31q0 10 2.5 24.5t4.5 28.5q2 16 4 28.5t2 22.5q2 16 2 29q0 55 -33 81.5t-111 26.5h-163l-236 -1112q-2 -4 -3 -12t-1 -12q-4 -20 -4 -23q0 -25 10 -35q18 -18 33 -22q29 -8 47 -10t59 -2h27l-22 -109h-705l23 109h26 q20 0 62 4q31 2 57 16q23 10 43 39q16 23 27 63l231 1106h-164q-47 0 -82 -12t-57 -35q-20 -20 -41 -57q-16 -29 -33 -80l-29 -88h-137z" />
<glyph unicode="U" horiz-adv-x="1529" d="M203 334q0 25 2 41l6 49l6 49l5 24.5t3 18.5l150 698q12 55 12 70q0 25 -10 37q-10 14 -31 20q-23 8 -47 11q-18 2 -59 2h-27l23 108h708l-22 -108h-27q-25 0 -66 -4q-31 -2 -57 -17q-29 -14 -45 -36.5t-27 -63.5l-155 -721q-4 -18 -8 -41q0 -6 -3.5 -21.5t-5.5 -23.5 l-6 -47q-2 -16 -2 -45q0 -104 64 -156q66 -53 188 -53q96 0 158 27q59 25 106 75q45 49 70 113q27 68 41 143l158 740q2 6 4 17t2 17q2 12 2 27q0 25 -10 37q-10 14 -31 20q-23 8 -47 11q-18 2 -60 2h-26l22 108h539l-23 -108h-26q-23 0 -64 -4q-27 -2 -57 -19 q-29 -14 -45.5 -36.5t-26.5 -65.5l-164 -778q-25 -111 -71 -203q-45 -88 -121 -148q-76 -61 -174 -90q-100 -31 -230 -30q-121 0 -213 24q-94 25 -153.5 68t-95.5 112q-33 64 -33 150z" />
<glyph unicode="V" horiz-adv-x="1429" d="M174 1354l23 108h675l-22 -108h-47q-61 0 -105 -17q-39 -14 -39 -65q0 -6 1.5 -18.5t1.5 -18.5q0 -23 2 -33l65 -540q0 -8 3 -38t5 -46q4 -61 4 -95q0 -16 1 -46.5t1 -45.5q0 -16 1 -39.5t1 -32.5l10.5 26.5t14.5 33.5l27 59l22 54l21 40l368 662q14 23 29 61q8 23 8 48 q0 33 -31 40q-35 10 -88 11h-47l21 108h534l-22 -108h-49q-37 0 -52 -4q-25 -6 -41 -21q-20 -18 -36 -41q-29 -43 -45 -71l-682 -1217h-205l-172 1255q-6 35 -17 50q-10 16 -28 30q-14 10 -37 15q-29 4 -47 4h-27z" />
<glyph unicode="W" horiz-adv-x="2183" d="M176 1354l23 108h669l-22 -108h-47q-61 0 -105 -17q-39 -14 -39 -65v-39q0 -14 4 -51l39 -510q2 -27 7 -72q2 -14 3 -45t1 -47q4 -66 4 -98q0 -16 1 -43t1 -37q18 51 49 121l59 120l457 877h150l116 -782q16 -104 25 -185q10 -98 10 -155l29 80q8 23 37 94l45 102l45 103 l227 489q8 14 23 57q8 25 8 52q0 33 -27 40q-31 10 -86 11h-47l20 108h535l-23 -108h-49q-33 0 -53 -6q-25 -6 -43 -23q-25 -20 -39 -45q-25 -43 -41 -76l-573 -1204h-234l-141 977l-498 -977h-254l-110 1255q-4 33 -15 50q-14 20 -28 30q-16 10 -39 15q-29 4 -47 4h-27z " />
<glyph unicode="X" horiz-adv-x="1497" d="M-86 0l23 109h20q20 0 57 8q25 6 54 24q37 25 59 45q43 39 72 70l452 467l-229 526q-15 34 -31 56q-10 14 -35 30q-16 12 -41 15q-33 4 -53 4h-18l22 108h678l-22 -108h-48q-53 0 -73 -15q-23 -16 -23 -43q0 -14 10 -49q12 -39 27 -73l109 -254l241 258q25 25 49 63 q23 35 23 61.5t-24.5 39t-73.5 12.5h-6l22 108h477l-22 -108h-19q-31 0 -55 -6q-23 -6 -51 -25q-20 -14 -55 -45q-31 -27 -70 -70l-385 -405l252 -586q27 -63 65.5 -85.5t75.5 -22.5h27l-23 -109h-676l23 109h31q61 0 88 18q29 18 28 53q0 23 -10 64q-6 27 -29 78l-125 282 l-286 -297q-35 -35 -60 -74q-23 -35 -22 -63q0 -14 6 -27q4 -10 16.5 -18t34.5 -12q29 -4 55 -4h7l-23 -109h-516z" />
<glyph unicode="Y" horiz-adv-x="1417" d="M180 1354l23 108h665l-22 -108h-92q-45 0 -65.5 -16.5t-20.5 -43.5q0 -20 6 -53q6 -34 18 -80l74 -289q4 -16 14 -63l15 -70l5 -20t5 -23.5t2 -21.5q2 -31 6 -58q20 47 57 105q35 57 93 137l202 289q23 31 43 76q18 39 19 75q0 25 -29 41q-27 14 -96 15h-43l24 108h537 l-23 -108h-38q-25 0 -43.5 -6.5t-38.5 -20.5q-18 -14 -43 -41q-18 -20 -50 -65l-507 -705l-62 -291q-2 -4 -3 -12t-1 -12q-4 -20 -4 -23q0 -25 10 -35q18 -18 33 -22q29 -8 47 -10t59 -2h50l-23 -109h-756l23 109h55q20 0 62 4q23 2 55 18q23 10 43 39q16 23 27 63l59 285 l-221 727q-8 27 -19 51q-8 18 -22 33q-10 10 -33 19q-18 6 -49 6h-27z" />
<glyph unicode="Z" horiz-adv-x="1363" d="M-4 0l18 102l1010 1235h-356q-94 0 -150 -43q-59 -45 -82 -135l-35 -119h-147l100 422h1090l-21 -104l-1011 -1233h422q47 0 88 12q40 12 73 37q31 23 62 70q27 41 45 104l22 74h148l-98 -422h-1178z" />
<glyph unicode="[" horiz-adv-x="847" d="M43 -262l387 1818h567l-22 -108h-88q-45 0 -66 -4q-33 -6 -57 -21q-20 -12 -47 -45q-20 -27 -31 -78l-276 -1306q0 -4 -1 -14.5t-3 -14.5q-2 -8 -3 -22q0 -37 11 -52q12 -20 30.5 -28t44.5 -13q33 -4 56 -4h88l-23 -108h-567z" />
<glyph unicode="\" horiz-adv-x="589" d="M221 1556h144l110 -1804h-143z" />
<glyph unicode="]" horiz-adv-x="847" d="M-109 -262l23 108h88q45 0 66 4q37 8 57 21q25 14 45 45q23 31 31 78l276 1306q6 31 6 52q0 33 -12 51q-14 23 -29 29q-23 12 -45 14q-16 2 -55 2h-88l22 108h568l-387 -1818h-566z" />
<glyph unicode="^" d="M137 537l432 925h88l435 -925h-160l-320 702l-315 -702h-160z" />
<glyph unicode="_" horiz-adv-x="937" d="M-186 -291l26 121h959l-27 -121h-958z" />
<glyph unicode="`" horiz-adv-x="1181" d="M498 1548l6 21h301q12 -37 31 -80q16 -39 41 -84l43 -78q20 -33 38 -59l-6 -27h-121q-45 27 -94 66t-96 84q-31 29 -84 86q-36 40 -59 71z" />
<glyph unicode="a" horiz-adv-x="1361" d="M82 354q0 82 18.5 168t55.5 172q35 84 92 162q57 80 125 135q71 58 159 92q92 35 193 35q39 0 82 -6q33 -4 80 -16q31 -8 71 -23q25 -8 56 -26l108 49h109l-135 -639q-2 -6 -5.5 -22.5t-5.5 -22.5q-2 -10 -5 -30t-5 -30q-8 -41 -10 -61q-4 -41 -4 -49q0 -53 20 -76 q20 -25 52 -25q28 0 55 13q31 14 59 30l45 -82q-12 -12 -59 -41q-39 -25 -74 -41q-27 -12 -88 -28q-47 -12 -102 -12q-92 0 -146 40q-55 43 -55 123q0 41 2 62q4 33 12 71h-14q-33 -61 -76 -126q-35 -53 -84 -92.5t-102 -57.5q-61 -20 -131 -20t-127 28q-53 27 -92 78 q-37 47 -56 119q-18 67 -18 149zM393 352q0 -63 8 -98q10 -47 23 -66q16 -27 35 -34q25 -10 45 -11q47 0 94 39q43 35 88 103q41 61 76 143q33 76 51 162l72 340q-23 29 -56 43q-35 14 -75 14q-59 0 -108.5 -30.5t-90.5 -84.5q-37 -49 -70 -116q-27 -55 -51 -138 q-20 -68 -31 -141q-10 -76 -10 -125z" />
<glyph unicode="b" horiz-adv-x="1275" d="M43 -6l272 1280q0 6 2 12t5 14q0 4 1 13.5t3 13.5q4 16 4 23v12q0 27 -6 45q-6 16 -19 27q-12 8 -35 12q-14 2 -49 2h-47l19 108h497l-82 -389q-4 -25 -12 -49q-4 -14 -9 -28.5t-12 -32.5q-2 -12 -22 -70l-23 -67q-6 -16 -11 -32l-9 -28q-4 -14 -8 -23.5t-6 -15.5h10 q39 76 78 131q40 55 86 92q45 37 102 56q55 18 123 18q66 0 121 -24.5t94 -69.5q40 -46 61 -117q23 -74 23 -159q0 -88 -20 -173q-23 -96 -60 -174q-41 -88 -94 -161q-49 -68 -131 -134q-74 -59 -162 -92q-92 -35 -192 -34q-39 0 -80 6q-31 4 -74 16q-29 8 -62 23 q-23 10 -45 28l-116 -59h-115zM391 168q23 -27 55 -41q37 -16 78 -16q57 0 110.5 32.5t90.5 81.5q33 41 68 117q25 51 51 135q18 55 28 137q10 76 11 119q0 63 -9 103q-10 47 -22 67q-16 29 -37 39q-20 12 -41 12q-39 0 -73.5 -22.5t-65.5 -59.5q-35 -43 -60 -79 q-4 -6 -45 -88q-8 -14 -34 -87l-21 -63z" />
<glyph unicode="c" horiz-adv-x="1079" d="M82 403q0 76 18 158q16 72 58 162q35 76 94 151q47 61 133 125q72 53 168 86q98 33 203 33q86 0 147 -18q63 -18 101 -47q43 -33 59 -68q18 -39 18 -84q0 -29 -14 -63q-10 -29 -43 -54q-33 -27 -78 -41q-43 -14 -115 -14q0 47 -10 102q-8 45 -28 87q-18 37 -45 57t-66 20 q-43 0 -82 -30q-45 -35 -72 -78q-31 -49 -55 -110.5t-43 -129.5q-16 -61 -27 -131q-8 -57 -8 -117q0 -125 57.5 -194.5t168.5 -69.5q57 0 98 15q47 16 78 38q39 29 61 54q28 31 49 61q14 -14 23 -35q8 -23 8 -55q0 -43 -22.5 -82t-73.5 -74q-49 -35 -125 -55 q-80 -23 -182 -22q-84 0 -175 26q-80 23 -145 80q-59 49 -96 131q-37 80 -37 186z" />
<glyph unicode="d" horiz-adv-x="1361" d="M82 354q0 82 18.5 168t55.5 172q35 80 90 162q52 77 123 135q72 59 155 92q88 35 187 35q59 0 112 -12q43 -10 92 -37q3 12 7 31q0 6 2 17t4 18q2 12 6 32l6 25l18 82q0 6 2.5 12t4.5 14q0 4 1 13.5t3 13.5q4 16 4 23v12q0 27 -6 45q-6 16 -19 27q-12 8 -35 12 q-14 2 -49 2h-47l19 108h493l-237 -1116q-2 -20 -9 -43q-2 -10 -5 -29.5t-5 -27.5q-4 -18 -8 -59q-4 -37 -4 -48q0 -47 22.5 -69.5t49.5 -22.5q29 0 57 15l57 28l45 -80q-43 -33 -61 -45q-29 -18 -74 -39q-27 -12 -88 -28q-45 -12 -100 -12q-41 0 -82 10q-35 8 -64 30 q-25 20 -41 52q-14 29 -14 71v33q0 4 2 14.5t2 16.5q0 10 4 31q2 10 6 38h-12q-37 -80 -80 -135q-41 -53 -90 -92q-47 -39 -102 -53q-59 -16 -117 -16q-80 0 -135 30q-61 35 -94 80q-33 47 -54 121q-16 59 -16 143zM393 352q0 -63 8 -98q10 -43 23 -64q16 -27 34.5 -37 t45.5 -10q47 0 92 39q51 45 90 103q43 66 76 141q31 74 51 164l72 340q-20 27 -60 43q-35 14 -75 14q-57 0 -107 -31q-45 -29 -88 -84q-39 -51 -69.5 -118.5t-51.5 -135.5q-22 -71 -31 -141q-10 -78 -10 -125z" />
<glyph unicode="e" horiz-adv-x="1095" d="M82 403q0 78 20 158q25 94 60 164q39 78 98 149q61 74 135 127q77 55 172.5 86t208.5 31q150 0 228 -63q82 -66 81 -178q0 -80 -47 -158q-45 -76 -127 -135q-74 -53 -192 -90q-115 -35 -244 -35h-37q-27 0 -39 2q-4 -29 -4 -41v-37q0 -120 56 -184q55 -63 167 -64 q51 0 95 15q45 14 84 38q47 29 69 52q27 27 52 61q16 -20 20 -39q6 -25 6 -49q0 -37 -24 -78q-27 -43 -74 -76q-55 -37 -125 -57q-80 -23 -182 -22q-86 0 -177 26q-82 25 -145 78q-61 51 -98 133q-37 80 -37 186zM414 578h18q80 0 141 20q70 23 115 57q47 35 76 90 q27 51 27 117t-27 99q-29 35 -74 34q-47 0 -94 -37q-45 -35 -82 -98q-37 -61 -61 -135q-29 -86 -39 -147z" />
<glyph unicode="f" horiz-adv-x="825" d="M-285 -475l25 119q2 0 45 -11q18 -4 49 -4q53 0 88 17q39 18 70 57t55 109q23 59 45 170l207 976h-186l20 97l197 43l16 76q25 100 64 175.5t100 127.5q63 53 137 75q80 25 184 25q82 0 140 -14q68 -16 100 -37q41 -25 61.5 -57.5t20.5 -69.5q0 -72 -59 -107 q-61 -37 -176 -37q0 27 -5 76q-2 33 -16 64q-14 33 -29 45q-20 16 -45 16q-66 0 -100 -55q-33 -53 -55 -172l-27 -131h258l-29 -140h-260l-194 -915q-20 -102 -60 -190q-39 -86 -82 -142q-46 -58 -98 -98q-57 -43 -108 -64q-63 -25 -114.5 -33t-113.5 -8h-33q-10 0 -34 5 q-12 2 -33 6q-16 3 -25 6z" />
<glyph unicode="g" horiz-adv-x="1187" d="M-119 -231q0 57 26.5 98t74.5 76q46 34 104 55q53 18 123 33q-18 8 -39 28q-18 18 -33 39q-12 18 -24 49q-8 23 -9 52q0 31 13 59q12 27 41 55q33 33 67 56q57 37 101 59q-72 33 -107 94q-37 63 -37 152q0 70 31 149q29 76 96 144q66 66 160 108q96 43 225 43 q66 0 127 -16q58 -15 105 -49q20 29 49 55q18 18 55 43q28 18 62 31q29 10 71 10q65 0 92 -31q29 -33 29 -78q0 -27 -6 -51t-23 -47q-16 -25 -38 -35q-25 -12 -64 -12q0 45 -18 66q-18 23 -54 22q-27 0 -51 -10t-43 -27q20 -25 37 -74q14 -41 14 -90q0 -37 -14 -94 q-10 -41 -39 -98q-27 -51 -65 -94q-43 -47 -95 -78q-49 -31 -125 -53q-68 -20 -155 -21h-23q-6 0 -14 1t-16 1h-29q-10 0 -23 4q-49 -22 -80 -49q-33 -29 -32 -59q0 -18 8 -29q6 -10 24 -16q23 -8 33 -11q29 -4 45 -6l230 -22q152 -16 233 -82q84 -68 84 -197 q0 -94 -43 -170q-43 -78 -123 -131t-201 -84q-113 -29 -270 -29q-123 0 -213 19q-92 18 -145 51t-82 84q-27 48 -27 107zM125 -217q0 -33 12.5 -59.5t38.5 -47.5q25 -20 78 -32q49 -12 125 -13q84 0 153 17q63 14 107 43q41 27 61.5 61.5t20.5 73.5q0 55 -45 88t-150 41 l-182 16q-49 -6 -84 -22q-37 -16 -70 -43q-27 -20 -47 -56q-18 -30 -18 -67zM440 653q0 -74 29 -108q27 -33 82 -33q39 0 65 16q33 20 56 45q20 25 41 64q18 37 30 74q8 23 17 75q6 37 6 66q0 72 -29 106q-27 33 -82 33q-53 0 -94 -35q-35 -29 -65 -88q-25 -45 -41 -110 q-15 -56 -15 -105z" />
<glyph unicode="h" horiz-adv-x="1341" d="M43 0l270 1274q0 6 2 12t4 14q0 4 1.5 13.5t3.5 13.5q4 16 4 23v12q0 27 -6 45q-6 16 -19 27q-12 8 -35 12q-14 2 -49 2h-43l19 108h495l-96 -450l-19 -70l-18 -73q-8 -27 -20 -84h12q45 70 80 106q39 41 90 74q47 29 104 45q51 14 125 14q65 0 111 -18q41 -16 71 -53 q27 -33 39 -74q12 -43 13 -90q0 -14 -4 -56q-4 -37 -9 -59l-12 -59l-12 -58l-47 -219q-6 -27 -21 -104q-8 -43 -8 -92q0 -43 18.5 -68t53.5 -25q31 0 59 13q8 4 62 34l49 -69q-35 -35 -56 -51q-29 -23 -69 -45q-37 -20 -86 -33q-47 -12 -103 -12q-117 0 -180 55t-63 155 q0 23 8 105q6 63 24 139l35 162q2 8 5 25.5t5 23.5l13 60q8 39 10 63q4 41 4 57q0 10 -4 39q-2 20 -12 39q-8 16 -27 29q-16 10 -43 10q-35 0 -70 -24q-41 -31 -65 -62q-45 -57 -62 -88q-25 -43 -51 -100q-12 -27 -41 -103q-14 -41 -26 -90l-107 -475h-307z" />
<glyph unicode="i" horiz-adv-x="724" d="M117 989l18 109h486l-142 -666q-6 -27 -20 -104q-8 -43 -8 -92q0 -43 18 -68t53 -25q31 0 60 13q23 10 61 34l49 -69q-35 -35 -55 -51q-29 -23 -70 -45q-37 -20 -86 -33q-47 -12 -102 -12q-117 0 -180.5 55t-63.5 155q0 49 8 105q14 98 25 139l80 381q4 16 6 27q0 4 1 13 t3 13q2 8 2 23q0 4 1 8l1 4q0 27 -6 45q-6 16 -18 27q-8 6 -35 10q-29 4 -49 4h-37zM319 1409q0 47 14.5 75.5t43.5 53.5q20 18 59 29q37 10 74 10q33 0 63 -6q23 -4 52 -25q27 -18 37 -39q12 -25 12 -59q0 -41 -17 -74q-14 -29 -43 -51q-27 -20 -63.5 -30.5t-71.5 -10.5 q-27 0 -63 8q-29 6 -51 23q-18 14 -33 41q-13 24 -13 55z" />
<glyph unicode="j" horiz-adv-x="690" d="M-287 -467l25 107q4 -2 43 -11q18 -4 49 -4q51 0 84 17q37 18 63.5 59t49.5 113q27 84 45 170l176 831q4 16 6 27q0 4 1 13t3 13q2 8 2 23q0 4 1 8l1 4q0 27 -6 45q-6 16 -18 27q-8 6 -35 10q-29 4 -49 4h-37l18 109h486l-238 -1114q-25 -127 -76 -228 q-45 -90 -108.5 -147.5t-132.5 -77.5q-74 -23 -150 -23q-68 0 -113 7q-47 6 -90 18zM319 1409q0 47 14.5 75.5t43.5 53.5q20 18 59 29q37 10 74 10q33 0 63 -6q23 -4 52 -25q27 -18 37 -39q12 -25 12 -59q0 -41 -17 -74q-14 -29 -43 -51q-27 -20 -63.5 -30.5t-71.5 -10.5 q-27 0 -63 8q-29 6 -51 23q-18 14 -33 41q-13 24 -13 55z" />
<glyph unicode="k" horiz-adv-x="1222" d="M43 0l270 1274q0 6 2 12t4 14q0 4 1.5 13.5t3.5 13.5q4 16 4 23v12q0 27 -6 45q-6 16 -19 27q-12 8 -35 12q-14 2 -49 2h-43l19 108h495l-108 -499l-17.5 -78t-13.5 -66q-4 -25 -14.5 -65.5t-12.5 -54.5l-28 -115l-33 -125l319 289q25 20 39 39l25 30q6 8 10 20.5t4 18.5 q0 20 -24.5 32.5t-71.5 12.5l20 103h516l-20 -103q-76 0 -150 -41q-84 -47 -176 -133l-163 -151l153 -334q41 -84 64 -117q29 -41 59.5 -67.5t49 -34.5t40.5 -8h8l-22 -109h-105q-70 0 -135 10q-53 8 -102 35q-51 27 -78 59q-33 41 -53 89l-121 286l-111 -71l-88 -408h-307z " />
<glyph unicode="l" horiz-adv-x="724" d="M102 190q0 92 33 244l178 840q0 6 2 12t4 14q0 4 1.5 13.5t3.5 13.5q4 16 4 23v12q0 27 -6 45q-6 16 -19 27q-12 8 -35 12q-14 2 -49 2h-43l19 108h495l-244 -1124q-6 -27 -20 -104q-8 -43 -8 -92q0 -43 18.5 -68t52.5 -25q31 0 60 13q23 10 61 34l49 -69 q-35 -35 -55 -51q-29 -23 -69 -45q-37 -20 -86 -33q-47 -12 -103 -12q-117 0 -180.5 55t-63.5 155z" />
<glyph unicode="m" horiz-adv-x="1984" d="M76 0l172 815q4 16 6 27q0 4 1 13t3 13q2 8 2 23q0 4 1 8l1 4q0 27 -6 45q-6 16 -18 27q-8 6 -35 10q-29 4 -49 4h-37l18 109h475l-39 -209h15q45 70 82 106q39 39 90 70q47 29 100 41q51 12 113 12q63 0 106 -18q47 -20 70 -49q25 -31 37 -70q12 -40 12 -86v-16h12 q33 55 78 106q39 45 88 78q43 29 102.5 45t120.5 16q63 0 107 -18q41 -16 70 -53q27 -33 38 -74q10 -37 11 -90q0 -14 -4 -55q-4 -37 -9 -60l-12 -59l-12 -58l-47 -219q-6 -27 -21 -104q-8 -43 -8 -92q0 -43 18.5 -67.5t53.5 -24.5q33 0 59 12q8 4 62 35l49 -70 q-35 -35 -56 -51q-29 -23 -69 -45q-37 -20 -86 -33q-45 -12 -103 -12q-113 0 -180 57q-63 55 -63 154q0 23 8 104q6 63 24 139l35 162q2 8 5 25.5t6 23.5q4 18 12 60q8 39 10 63q4 41 4 57q0 10 -4 39q-2 20 -12 39q-8 14 -25 29q-12 10 -41 10q-31 0 -65 -22 q-27 -16 -64 -62q-35 -41 -59 -86q-33 -57 -49 -98q-29 -70 -39 -102q-18 -57 -23 -89l-16 -86q-2 -8 -5 -26.5l-5 -30.5q-4 -20 -6.5 -39.5t-4.5 -40.5l-12 -86q-8 -59 -10 -80l-5 -36.5t-3 -28.5q-2 -18 -2 -35h-318q0 2 4 43q4 47 8 70q10 72 15 88l16 94q2 14 7 43 t9.5 45t8.5 42t6 32l31 143q0 4 10 47q4 14 6 30.5l4 31.5q8 39 10 63q4 41 4 57q0 25 -2 39q-4 25 -8 37q-6 16 -20.5 26.5t-36.5 10.5q-35 0 -68 -20q-27 -16 -63 -58q-33 -37 -60 -80q-37 -61 -51 -92q-27 -57 -39 -94q-14 -43 -24 -84l-115 -514h-307z" />
<glyph unicode="n" horiz-adv-x="1374" d="M76 0l172 815q4 16 6 27q0 4 1 13t3 13q2 8 2 23q0 4 1 8l1 4q0 27 -6 45q-6 16 -18 27q-8 6 -35 10q-29 4 -49 4h-37l18 109h455l-23 -219h13q41 61 81.5 106t88 73.5t104.5 45.5q51 14 125 14q66 0 108 -18q47 -20 74 -53t39 -74q12 -43 12 -90q0 -14 -4 -56 q-4 -37 -8 -59l-12 -59l-12 -58l-46 -219q-6 -27 -20 -104q-8 -43 -8 -92q0 -43 18.5 -68t53.5 -25q31 0 59 13q23 10 61 34l49 -69q-35 -35 -55 -51q-29 -23 -69 -45q-37 -20 -86 -33q-47 -12 -103 -12q-117 0 -180.5 55t-63.5 155q0 92 33 244l33 162l10 49l12 60 q8 39 11 63q4 41 4 57q0 10 -4 39q-2 20 -13 39q-6 12 -26 29q-12 10 -43 10q-37 0 -70 -24q-41 -31 -65 -62q-45 -57 -62 -88q-37 -66 -53 -100q-12 -27 -41 -103q-10 -27 -25 -90l-104 -475h-307z" />
<glyph unicode="o" horiz-adv-x="1265" d="M82 410q0 77 18 159q18 86 54 160q35 78 92 150q59 76 129 125q76 53 170 83q95 31 209 31q89 0 166 -24q82 -27 137 -76q58 -52 92 -135q33 -80 33 -195q0 -84 -17 -156q-20 -88 -53 -159q-39 -84 -90 -150q-55 -72 -127 -125q-74 -55 -170 -86q-102 -33 -209 -32 q-98 0 -176 26.5t-137 79.5q-55 49 -88 135.5t-33 188.5zM395 360q0 -127 41 -180t117 -53q57 0 100 31q41 29 80 84q37 52 62 116q27 68 41 138q20 98 26 137q8 59 8 121q0 125 -41 174q-43 53 -114 53q-53 0 -96.5 -30.5t-79.5 -80.5q-29 -39 -62 -114q-25 -55 -45 -133 q-20 -74 -29 -138q-8 -59 -8 -125z" />
<glyph unicode="p" horiz-adv-x="1275" d="M-61 -492l278 1307q4 16 6 27q0 4 1 13t3 13q2 8 2 23q0 4 1 8l1 4q0 27 -6 45q-6 16 -18 27q-8 6 -35 10q-29 4 -49 4h-37l18 109h441l-53 -273h14q23 43 72 117q37 55 81 94q43 37 103 60q61 23 133 22q68 0 123 -24.5t94 -69.5t62 -117q20 -63 20 -159q0 -74 -18 -160 q-18 -88 -52 -170q-29 -74 -88 -164q-52 -80 -123 -141q-66 -57 -159 -97q-90 -37 -195 -36q-63 0 -115 12q-53 12 -94 35q0 -8 -4 -33q-2 -6 -3 -15.5t-1 -15.5q-2 -6 -4 -17.5t-4 -17.5l-29 -137q-4 -16 -6 -27q0 -4 -1 -13t-3 -13q-2 -8 -2 -23q0 -4 -1 -8l-1 -4 q0 -27 6 -45q6 -16 18 -27q12 -8 35 -12q14 -2 49 -2h78l-18 -109h-520zM391 168q9 -9 25 -18q2 -2 14 -9.5t19 -11.5l43 -12q20 -6 45 -6q57 0 102 30q46 31 86 80q37 45 70 115q20 43 49 133q20 66 30 137q10 76 11 127q0 41 -6 82q-6 47 -17 70q-12 33 -35 51 q-20 18 -53 18q-31 0 -67.5 -20.5t-65.5 -50.5q-37 -41 -59 -76q-27 -41 -50 -90q-27 -57 -38 -94q-14 -41 -25 -88z" />
<glyph unicode="q" horiz-adv-x="1290" d="M82 354q0 72 20 168q18 86 56 172q35 84 92 162q57 80 125 135q74 61 153 92q88 35 183 35q45 0 88 -6q29 -4 82 -16q43 -10 71 -21q37 -14 60 -24l121 67h102l-281 -1327q-8 -29 -10 -55q-4 -37 -4 -49q0 -39 25 -54q27 -16 84 -16h77l-18 -109h-485l82 410q6 31 8 39 q2 12 6 24.5t6 26.5l12 60l13 59l32 149h-12q-31 -61 -72 -122q-33 -49 -82 -93q-46 -40 -104 -61q-55 -20 -139 -20q-66 0 -119 24.5t-90 71.5q-39 49 -60 117q-22 73 -22 161zM393 360q0 -66 8 -100q12 -49 23 -67q16 -27 35 -37q20 -12 45 -13q33 0 63 19q33 20 62 51 q37 41 59 76q29 43 53 94q14 29 41 104q20 57 29 105l74 338q-16 23 -49 41q-31 16 -84 16q-57 0 -111 -33q-49 -31 -90 -84q-39 -51 -70 -118q-31 -70 -49 -138q-20 -82 -29 -135q-10 -76 -10 -119z" />
<glyph unicode="r" horiz-adv-x="1126" d="M76 0l174 823q0 2 3 18.5t5 26.5q4 37 4 50q0 41 -24 55q-27 16 -84 16h-37l18 109h453l-43 -281h10q37 78 70 129q41 59 80 94q49 41 96 58q61 20 125 20q109 0 162 -41t53 -119q0 -106 -62 -157q-63 -53 -180 -53q0 35 -4 83q-2 33 -16 64q-10 25 -31 41q-16 14 -49 14 q-31 0 -62 -24q-39 -31 -63.5 -64t-61.5 -98q-35 -61 -59 -123q-37 -90 -51 -139q-29 -98 -39 -148l-78 -354h-309z" />
<glyph unicode="s" horiz-adv-x="1052" d="M35 205q0 49 18 82q16 29 51 53q27 18 70 29q45 10 80 10q0 -63 10 -105q12 -53 35 -88q25 -41 63 -61q41 -23 95 -23q37 0 78 11q35 8 63 30q25 18 41 47q14 27 14 66q0 29 -14 61q-10 25 -41 52q-29 27 -72 47q-84 43 -104 51q-49 23 -109 59q-45 29 -82 72 q-37 45 -53 86q-18 49 -18 109q0 70 33 135q29 57 92 102q66 45 145 66q90 23 193 22q98 0 173.5 -16.5t116.5 -42.5q47 -29 64 -62q20 -37 20 -71q0 -82 -63 -119q-65 -37 -172 -37q0 43 -8 82q-10 45 -27 76q-18 34 -49 55q-29 20 -74 21q-47 0 -72 -11q-29 -10 -53 -32 q-20 -18 -35 -46q-12 -25 -12 -55.5t14 -58.5q12 -25 41 -47q27 -20 72 -43l105 -49q72 -35 114 -64q53 -37 80 -72q33 -43 47.5 -86t14.5 -104q0 -86 -31 -150q-31 -66 -94 -110q-68 -49 -156 -72q-92 -25 -217 -24q-84 0 -160 16q-72 16 -121 43q-49 29 -78 72 q-28 45 -28 94z" />
<glyph unicode="t" horiz-adv-x="851" d="M123 958l22 105q47 0 97 14q51 14 106 49q47 29 109 91q53 53 102 133h119l-53 -252h247l-28 -140h-250l-123 -561q-14 -51 -16 -82q-4 -49 -4 -65q0 -53 28 -78t74 -25q43 0 86 17q40 15 74 37l47 -78q-49 -41 -72 -55q-41 -29 -82 -45.5t-94 -30.5q-49 -12 -108.5 -12 t-104.5 14q-51 16 -86 45t-55 74q-20 43 -21 106q0 6 1 18.5t1 20.5q0 16 4 45q0 8 2 24.5t5 22.5q2 8 5 21.5t3 19.5l123 567h-158z" />
<glyph unicode="u" horiz-adv-x="1376" d="M117 989l18 109h492l-135 -613l-13 -55q-2 -10 -5 -29.5t-5 -29.5q-4 -20 -8 -57.5t-4 -45.5q0 -43 18 -71q18 -27 70 -27q45 0 92 41q53 47 92 104q47 70 78 143.5t51 157.5l109 482h305l-139 -666q-6 -27 -21 -104q-8 -43 -8 -92q0 -43 18.5 -68t53.5 -25q33 0 59 13 q23 10 61 34l50 -69q-35 -35 -56 -51q-29 -23 -69 -45q-37 -20 -86 -33q-45 -12 -103 -12q-66 0 -114 16q-45 16 -72 41q-31 29 -41 63q-12 37 -12 76q0 2 1 9.5t1 11.5t1 12t1 12t1 12.5t1 12.5q0 8 4 20h-17q-53 -74 -88 -116q-37 -45 -94 -89q-55 -41 -104 -59 q-55 -20 -131 -20q-65 0 -111 18q-43 16 -72 49q-27 29 -39 74q-12 43 -12 86q0 51 12 113l23 112l74 361q4 16 7 41.5t5 33.5q6 35 6 52q0 43 -24.5 55t-83.5 12h-37z" />
<glyph unicode="v" horiz-adv-x="1198" d="M33 989l24 109h402l94 -606q18 -121 22 -185q10 -125 11 -133h6q55 55 133 156q70 88 115 166q53 88 78 161q29 82 28 142q0 70 -39 100q-43 33 -96 33q0 88 45 135q45 49 125 49q29 0 59 -10q20 -8 50 -35q20 -20 32.5 -57t12.5 -88q0 -80 -25 -166t-70 -176 q-43 -86 -98 -172q-47 -76 -113 -160q-59 -78 -114 -139q-58 -65 -105 -111l-270 -20l-145 899q-8 37 -17 53q-12 23 -28 33q-14 8 -44 16q-25 6 -53 6h-20z" />
<glyph unicode="w" horiz-adv-x="1792" d="M76 989l33 109h395q2 -33 5 -100.5t5 -102.5q4 -61 8 -190q3 -89 6 -160q2 -47 2 -111q0 -29 -1 -70.5t-1 -54.5v-53h15q37 55 102 176q45 84 100 203l99 219l92 225l250 8q6 -55 12 -124q2 -27 5 -80.5t5 -77.5q4 -57 9 -172q2 -33 5 -88.5t3 -79.5q2 -63 6 -141 q2 -43 2 -99h14q96 119 150 201q57 86 92 164q35 76 49 133t14 111q0 29 -10 55q-10 25 -22 41q-18 20 -33 28q-12 6 -37 15q2 37 16 67q10 25 35 45q16 14 45 25q23 8 56 8q70 0 106 -45q37 -46 37 -129q0 -109 -45 -223q-47 -117 -121 -242q-76 -125 -170 -243 q-111 -137 -201 -234l-250 -22q0 20 -1 66t-1 71q-2 37 -2 74.5v76.5l-4 156q0 55 -4 149q0 23 -1 67t-3 65q-2 41 -2 102q-88 -207 -182 -395q-98 -193 -240 -406l-268 -18l-21 852q0 49 -12 75q-14 33 -29 46q-18 16 -45 22q-25 6 -55 6h-12z" />
<glyph unicode="x" horiz-adv-x="1236" d="M-41 0l21 109h26q20 0 53 4q23 2 47 18q16 10 52 41q33 29 65 68l258 284l-141 340q-14 37 -31 64q-10 16 -35 37q-14 10 -38 18q-23 6 -52 6h-24l20 109h385l144 -389l284 389h250l-20 -109h-37q-29 0 -53 -6q-18 -4 -48 -22q-10 -6 -49 -46q-23 -23 -63 -73l-211 -244 l149 -344q16 -39 35 -72q14 -27 35 -43q23 -20 41 -24q23 -6 51 -6h27l-21 -109h-397l-154 414l-319 -414h-250z" />
<glyph unicode="y" horiz-adv-x="1198" d="M-344 -455l31 115q25 -9 67 -18q39 -8 107 -9q95 0 172 25q80 25 145 68q68 43 125 100q63 63 113 121l-256 934q-18 61 -49 84q-33 25 -93 24h-20l25 109h401l135 -531q2 -12 9 -43.5t12 -50.5q6 -29 20 -106l9 -46t9.5 -54.5t5.5 -43t3 -28.5h6q41 55 115 165 q53 80 94 162q45 88 65 150q23 66 23 129q0 70 -33 104q-33 37 -94 37q0 37 12 72q12 33 35 55q27 27 51 37q31 12 66 12q82 0 125 -47t43 -127q0 -84 -27 -170q-25 -78 -78 -188q-43 -90 -121 -211q-57 -92 -161 -238l-140 -190q-63 -84 -127 -158q-59 -68 -127 -123 q-63 -51 -137 -88q-68 -35 -158 -53q-76 -16 -190 -17q-53 0 -115 11q-59 10 -98 26z" />
<glyph unicode="z" horiz-adv-x="1142" d="M0 0l23 104l684 854h-261q-37 0 -69 -14q-28 -12 -49 -37q-20 -23 -39 -57q-12 -23 -37 -76l-4 -8h-125l90 332h879l-23 -107l-686 -852h332q33 0 61 17q28 15 49 43q18 25 35 59l31 66l20 47h119l-88 -371h-942z" />
<glyph unicode="{" horiz-adv-x="903" d="M80 590l26 125q45 0 97 10q49 10 82 29q39 23 61 57q29 41 39 94l74 352q14 76 47 133.5t78 92.5q49 37 118 55q72 18 170 18h195l-23 -108h-79q-43 0 -74 -12q-29 -12 -53 -39q-18 -20 -35 -62q-8 -18 -25 -86l-76 -348q-23 -98 -84 -153q-65 -58 -190 -86l-4 -17 q96 -27 137 -70q43 -47 43 -114q0 -27 -6 -58l-76 -350q-2 -10 -8 -49q-2 -14 -2 -43q0 -49 27 -80q25 -29 88 -28h80l-25 -109h-195q-143 0 -219 59q-74 57 -73 164v21q0 6 4 26q4 16 6 39q0 4 10 58l61 286q6 28 7 56q0 43 -15 65q-18 29 -42.5 43t-65.5 21q-27 4 -80 8z " />
<glyph unicode="|" d="M530 -492v2048h148v-2048h-148z" />
<glyph unicode="}" horiz-adv-x="903" d="M-111 -254l23 109h80q37 0 74 14q33 12 53 37q23 27 35 61q12 37 24 86l76 348q23 96 84 152q68 61 190 88l4 16q-96 27 -137 70q-43 47 -43 115q0 27 6 57l76 350q2 10 8 49q2 14 2 43q0 49 -26 80q-25 29 -88 29h-80l24 109h195q143 0 219 -60q74 -57 74 -164v-20 q0 -6 -4 -27q-2 -10 -6 -39q0 -4 -11 -57l-61 -287q-6 -31 -6 -55q0 -41 16.5 -67.5t42.5 -41.5q25 -14 64 -20q49 -8 80 -8l-27 -125q-63 -4 -96 -10q-49 -10 -82 -29t-62 -57q-27 -35 -39 -95l-73 -352q-16 -82 -45 -133q-33 -59 -80 -94q-45 -35 -119 -54 q-70 -18 -170 -18h-195z" />
<glyph unicode="~" horiz-adv-x="1148" d="M100 598v158q102 109 248 108q37 0 53.5 -2t53.5 -10q28 -6 61 -18q43 -16 80 -33l66 -27q31 -14 49 -18q16 -4 45 -8q14 -2 41 -3q31 0 57 9q25 8 59 26q25 14 58 39q29 20 53 47v-157q-47 -53 -111 -82q-59 -27 -137 -27q-37 0 -53 2t-53 10q-28 6 -62 19 q-43 16 -80 33q-57 25 -65 26l-49 17q-29 8 -43.5 10t-42.5 2q-23 0 -58 -10q-25 -8 -59 -25q-20 -10 -57 -39q-27 -22 -54 -47z" />
<glyph unicode="&#xa1;" horiz-adv-x="808" d="M25 -367l354 996h119l-117 -996h-356zM309 928q0 51 14.5 86t41.5 57q23 20 59 31q35 10 63 10q74 0 121 -37q45 -37 45 -110q0 -43 -12 -76q-10 -27 -37 -58q-25 -27 -55 -38q-34 -12 -74 -13q-39 0 -65 8q-35 10 -54 27q-23 18 -34 47q-13 27 -13 66z" />
<glyph unicode="&#xa2;" d="M137 592q0 82 17 149q16 72 53 154q29 66 88 145q49 66 121 125q70 57 155 95q80 35 187 47l33 155h127l-33 -151q78 -6 133 -25q49 -16 90 -47q33 -25 53 -65q16 -33 17 -78q0 -33 -15 -62q-16 -35 -43 -55q-33 -27 -78 -41q-43 -14 -114 -14q0 74 -19 135 q-18 59 -57 96l-176 -831h16q63 0 107 14q51 16 84 39q43 29 65 53q47 51 53 62q14 -14 23 -37q10 -27 10 -54q0 -37 -22 -77q-20 -39 -72 -74q-55 -37 -123 -57q-74 -23 -174 -25l-35 -168h-127l37 174q-82 12 -151 43q-66 29 -121 84q-53 53 -80 125q-29 76 -29 166z M451 588q0 -86 26 -142q29 -59 80 -90l174 830q-43 -8 -82 -45q-35 -33 -67 -84q-31 -49 -56 -111q-18 -45 -41 -125q-16 -59 -26 -123q-8 -55 -8 -110z" />
<glyph unicode="&#xa3;" d="M-12 106l69 44q53 31 103 71q45 37 92 94q41 51 67 119q27 70 27 144q0 23 -4 67q-4 41 -8 64h-236l29 125h192q-12 72 -14 92q-6 53 -6 102q0 102 39 193q37 86 106.5 143t168 88t218.5 31q94 0 154 -17q66 -18 113 -49q43 -29 69 -71q23 -37 23 -86q0 -86 -65.5 -133.5 t-190.5 -47.5q0 139 -39 209t-111 70q-102 0 -157.5 -86t-55.5 -244q0 -61 7 -110l7 -47.5t5 -36.5h364l-28 -125l-326 2q0 -2 1 -9.5t1 -11.5t1 -11t1 -13.5t1 -14.5t1 -14v-29q0 -66 -20 -114q-23 -53 -58 -95q-39 -45 -94 -82q-63 -43 -125 -71l2 -8q43 16 99 28 q39 8 82 8q47 0 96 -12l94 -24q25 -8 47.5 -13.5t40.5 -11.5q43 -12 74 -12q25 0 61 4q18 2 51 14q27 10 48 25l49 37l65 -103q-37 -37 -63 -59q-41 -35 -90.5 -65.5t-102.5 -51.5q-57 -23 -104 -22q-53 0 -99 14q-78 25 -100 33q-39 14 -104 32q-51 14 -119 15 q-31 0 -76 -4q-27 -2 -65 -11q-35 -6 -64 -18q-20 -8 -65 -29l-33 -14z" />
<glyph unicode="&#xa4;" d="M168 403l119 119q-59 88 -60 207q0 63 17 113q18 53 49 100l-123 123l102 102l123 -123q55 33 97 46q55 16 110 16q53 0 109 -16q49 -14 98 -48l127 127l102 -104l-125 -127q27 -39 48 -98q18 -52 18 -111q0 -55 -16 -111q-12 -41 -45 -96l120 -121l-102 -102l-121 121 q-47 -31 -100 -49q-49 -16 -113 -17q-57 0 -113 17q-49 14 -98 47l-119 -119zM367 729q0 -49 18 -92q16 -37 51 -76q29 -33 74 -51q43 -18 92 -18q51 0 94 18q45 18 74 51q31 35 49 76q18 43 19 92q0 51 -19 94q-18 41 -49 76q-29 33 -74 51q-43 18 -94 19q-49 0 -92 -19 q-45 -18 -74 -51q-35 -39 -51 -76q-18 -43 -18 -94z" />
<glyph unicode="&#xa5;" horiz-adv-x="1103" d="M70 0l22 109h55q20 0 62 4q23 2 55 18q23 10 43 39q16 23 27 63l22 105h-286l24 121h287l27 119h-287l24 120h271l-125 547q0 4 -15 51q-6 20 -18 33q-12 14 -29 19q-18 6 -49 6h-26l22 108h559l-22 -108h-58q-43 0 -65 -17q-20 -14 -21 -43q0 -23 9 -55q0 -4 16 -86 l37 -195q18 -94 22 -124q8 -55 9 -103q16 39 32 68q8 16 25.5 45.5l21.5 36.5l158 266q8 14 22.5 42l18.5 36q20 39 21 73q0 25 -23 41q-20 14 -57 15h-41l24 108h434l-22 -108h-6q-51 0 -92 -39q-49 -45 -97 -121l-319 -496h262l-25 -120h-286l-27 -119h287l-25 -121h-286 l-23 -98q-2 -10 -8 -37q-2 -10 -2 -25q0 -25 10 -35q18 -18 31 -22q23 -8 47 -10q18 -2 59 -2h49l-22 -109h-733z" />
<glyph unicode="&#xa6;" d="M528 328h148v-820h-148v820zM528 737v819h148v-819h-148z" />
<glyph unicode="&#xa7;" horiz-adv-x="1112" d="M45 10q0 52 18 86q16 29 50 51q28 18 61 25q45 8 64 8q0 -61 16 -121q16 -55 45 -94q35 -45 72 -63q45 -23 96 -23q57 0 96 17q37 16 72 47q29 27 45 67q16 43 16 86q0 40 -12 74q-12 35 -41 63q-35 35 -82 66q-68 45 -133 78q-68 35 -129 82q-49 37 -82 84 q-29 41 -41 86q-12 47 -12 94t16 92q14 41 43 76q28 34 62 61q31 25 71 49q-18 29 -34 76q-14 43 -15 109q0 94 35 157q39 72 96 115q68 51 142 74q80 25 168 24q94 0 161 -18q72 -20 111 -47q49 -35 67 -70q20 -39 21 -86q0 -45 -14.5 -73.5t-41 -47t-65.5 -24.5 q-49 -8 -82 -8q0 53 -12 102q-14 53 -33 84q-22 34 -55 55q-33 20 -76 21q-37 0 -74 -12q-33 -10 -65 -37q-29 -23 -47.5 -64t-18.5 -90q0 -45 13 -78q10 -31 41 -63q25 -27 77 -60q59 -35 117 -65q72 -39 127 -78q49 -35 84 -76q31 -37 47 -78q14 -37 14 -88q0 -47 -16 -92 q-12 -37 -43 -80q-29 -43 -61 -71q-35 -33 -76 -58q14 -20 33 -73q14 -41 14 -97q0 -82 -33 -164q-29 -72 -90 -133q-53 -53 -143 -90q-80 -33 -185 -33q-94 0 -168 19q-80 20 -124 49q-53 35 -80 78q-27 45 -27 100zM344 788q0 -39 10 -61q12 -28 37 -55q14 -16 72 -54 q43 -29 112 -59q25 -12 111 -59q47 -27 90 -62q33 27 51 60q18 35 19 77q0 25 -8 48q-10 29 -33 51q-31 31 -64 53q-47 33 -102 57q-72 35 -121 62q-43 25 -100 69q-37 -29 -53 -53q-21 -29 -21 -74z" />
<glyph unicode="&#xa8;" horiz-adv-x="1181" d="M381 1386q0 66 32.5 105t90.5 39q47 0 79.5 -28.5t32.5 -84.5q0 -40 -12 -67q-12 -29 -26 -43q-18 -18 -39 -25q-29 -8 -45 -8q-53 0 -82 26q-31 28 -31 86zM809 1386q0 66 32.5 105t90.5 39q47 0 79.5 -28.5t32.5 -84.5q0 -40 -12 -67q-12 -29 -26 -43q-18 -18 -39 -25 q-29 -8 -45 -8q-53 0 -82 26q-31 28 -31 86z" />
<glyph unicode="&#xa9;" horiz-adv-x="1730" d="M129 731q0 109 27 201q31 102 75 180q51 86 117 152q68 68 154 118q78 45 180 76q92 27 199 27q109 0 200 -27q98 -29 179 -76q86 -51 153 -118q72 -72 119 -152q45 -78 76 -180q27 -92 26.5 -200.5t-26.5 -201.5q-29 -98 -76 -178q-51 -86 -119 -153q-63 -63 -153 -117 q-80 -47 -179 -76q-92 -27 -200 -26q-106 0 -199 26q-102 31 -180 76q-90 53 -153.5 116.5t-117.5 153.5q-47 80 -75 178q-27 92 -27 201zM242 731q0 -84 22 -170q20 -76 66 -151q51 -84 98 -131q51 -51 129 -99q74 -45 154 -65q86 -23 170 -23t170 23q80 20 153 65 q84 51 131 98.5t99 131.5q45 76 65 151q23 86 23 170q0 133 -49 250q-47 111 -140 203q-90 90 -203 137q-121 51 -249 51q-84 0 -170 -22q-80 -20 -154 -65.5t-129 -100.5q-51 -51 -98 -129q-45 -74 -66 -154q-22 -86 -22 -170zM481 733q0 96 29 182q29 84 82 144 q55 61 137 94q80 33 191 33q71 0 122 -12q55 -12 88 -31t52 -45q18 -29 18 -58q0 -25 -10 -41q-12 -18 -30.5 -30.5t-43 -18.5t-55.5 -6q0 18 -8 55q-6 31 -25 52q-23 27 -45 36q-28 12 -68 13q-74 0 -122 -25q-53 -27 -82 -69q-31 -47 -47 -117q-14 -63 -15 -156 q0 -174 70 -272q68 -96 199 -96q46 0 86 12q43 12 73 33q39 25 55.5 43t36.5 51q10 -8 21 -25q8 -14 8 -39q0 -31 -18 -57q-20 -31 -58 -53q-39 -25 -96 -39q-55 -14 -135 -15q-104 0 -178 33q-82 35 -129 92q-53 63 -78 146q-25 84 -25 186z" />
<glyph unicode="&#xaa;" horiz-adv-x="882" d="M156 1010q0 47 12 100q12 57 37 107q25 51 63 96q47 53 90 82q52 34 117 55q61 20 146 20q55 0 92 -12t67 -31l72 29h70l-76 -373q-4 -16 -15 -75q-8 -45 -8 -60q0 -53 43 -53q18 0 43 10q33 14 45 23l27 -49q-2 -2 -35 -31q-12 -10 -49 -31q-29 -16 -59 -24 q-37 -10 -66 -11q-72 0 -106 27q-37 27 -37 76q0 16 4 57t6 55h-8q-23 -47 -56 -88q-29 -37 -63 -65q-39 -31 -74 -45q-37 -14 -84 -15q-55 0 -88 17q-41 20 -63 49q-20 27 -35 72q-12 41 -12 88zM395 1022q0 -43 4 -57q6 -20 14.5 -35t20.5 -21t25 -6q28 0 55 25 q35 31 55.5 61.5t44.5 79.5q16 33 29 82l49 195q-12 20 -37 28q-27 10 -51 10q-35 0 -63 -18q-35 -23 -52 -47q-25 -37 -40 -68q-12 -25 -29 -77q-12 -40 -19 -80q-6 -41 -6 -72z" />
<glyph unicode="&#xab;" horiz-adv-x="1134" d="M121 514l22 107l389 342h144l-293 -410l119 -410h-144zM532 514l23 107l389 342h143l-292 -410l118 -410h-143z" />
<glyph unicode="&#xac;" d="M166 659v146h878v-512h-147v366h-731z" />
<glyph unicode="&#xad;" horiz-adv-x="634" d="M20 451l48 215h532l-47 -215h-533z" />
<glyph unicode="&#xae;" horiz-adv-x="1730" d="M129 731q0 109 27 201q31 102 75 180q51 86 117 152q68 68 154 118q78 45 180 76q92 27 199 27q109 0 200 -27q98 -29 179 -76q86 -51 153 -118q72 -72 119 -152q45 -78 76 -180q27 -92 26.5 -200.5t-26.5 -201.5q-29 -98 -76 -178q-51 -86 -119 -153q-63 -63 -153 -117 q-80 -47 -179 -76q-92 -27 -200 -26q-106 0 -199 26q-102 31 -180 76q-90 53 -153.5 116.5t-117.5 153.5q-47 80 -75 178q-27 92 -27 201zM242 731q0 -84 22 -170q20 -76 66 -151q51 -84 98 -131q51 -51 129 -99q74 -45 154 -65q86 -23 170 -23t170 23q80 20 153 65 q84 51 131 98.5t99 131.5q45 76 65 151q23 86 23 170q0 133 -49 250q-47 111 -140 203q-90 90 -203 137q-121 51 -249 51q-84 0 -170 -22q-80 -20 -154 -65.5t-129 -100.5q-51 -51 -98 -129q-45 -74 -66 -154q-22 -86 -22 -170zM494 289v69h26q25 0 37 2t33 11 q14 6 22.5 20.5t8.5 38.5v600q0 23 -9 37q-10 18 -22 23q-20 8 -32.5 10t-37.5 2h-26v72h368q352 0 352 -244q0 -47 -16 -86q-12 -29 -43 -64q-23 -25 -59 -45q-34 -18 -68 -30l182 -293q8 -16 18.5 -26.5t22.5 -16.5q10 -4 31 -9q12 -2 43 -2v-69h-217l-225 381h-109v-240 q0 -23 10 -39q8 -14 21 -20q14 -8 31 -11q12 -2 38 -2h29v-69h-409zM774 748h86q55 0 92 12q39 14 60 33q25 25 33 55.5t8 79.5q0 51 -11 78q-14 35 -34 51q-27 20 -62 28q-33 8 -92 9h-80v-346z" />
<glyph unicode="&#xaf;" horiz-adv-x="937" d="M-10 1556v121h960v-121h-960z" />
<glyph unicode="&#xb0;" horiz-adv-x="817" d="M225 1151q0 61 25 121q25 57 65 98q43 43 98.5 67.5t121.5 24.5q63 0 120.5 -24.5t100.5 -67.5q41 -41 65 -98q25 -59 25 -121q0 -66 -25 -121q-27 -59 -65 -98q-41 -41 -101 -66q-57 -25 -120 -24q-66 0 -121 24q-59 27 -98.5 66t-65.5 98q-25 55 -25 121zM367 1151 q0 -29 14 -66q10 -25 35 -53q20 -25 53 -37q35 -14 65.5 -14t67.5 14q33 12 53 37q29 33 37 53q12 31 13 66q0 37 -12.5 67.5t-37.5 55.5q-23 23 -53 35q-37 14 -67.5 14t-65.5 -14q-31 -12 -53 -35q-20 -20 -34.5 -55t-14.5 -68z" />
<glyph unicode="&#xb1;" d="M166 0v145h878v-145h-878zM166 659v146h364v366h148v-366h366v-146h-366v-366h-148v366h-364z" />
<glyph unicode="&#xb2;" horiz-adv-x="817" d="M59 586l29 147l303 221q74 55 105 86q39 39 65 82q29 47 37 80q10 45 10 84q0 14 -4 39q-2 12 -14 33q-8 14 -27 24q-14 8 -41 9q-35 0 -53 -17q-20 -18 -39 -45q-14 -20 -29 -65q-14 -41 -16 -76q-70 0 -115 29q-41 27 -41 75q0 41 23 76q25 39 63 62q41 23 101 38 q55 14 133 15q61 0 115 -13q45 -10 88 -38q37 -25 55 -58q20 -37 20 -76q0 -45 -14 -81q-16 -43 -51 -84q-39 -45 -92 -91q-70 -57 -146 -112l-256 -185h301q47 0 72 25t37 59l16 43h80l-57 -286h-658z" />
<glyph unicode="&#xb3;" horiz-adv-x="817" d="M59 739q0 31 11 49q12 23 32 37q16 12 50 23q25 8 59 8q0 -35 8 -61q9 -31 31 -56q27 -31 51 -43q33 -16 78 -16q39 0 70 8q33 8 57 31q20 18 37 51q14 29 14 78q0 33 -10 53q-14 27 -35 45q-23 18 -57 31q-37 12 -84 12h-68l16 96h70q45 0 82 15q39 14 68 41 q27 25 47 67q18 41 18 90q0 43 -18.5 68t-59.5 25q-35 0 -57 -15q-27 -16 -43 -39q-16 -20 -27 -57q-12 -39 -16 -68q-72 0 -121 23q-45 20 -45 72q0 35 23 67q25 35 63 58q37 20 100 36q57 14 135 14.5t128 -14.5q57 -16 88 -38q33 -25 53 -62q16 -31 16 -72 q0 -55 -18.5 -94t-54.5 -69q-35 -29 -82 -48q-45 -18 -103 -30l-2 -11q96 -12 150 -57q57 -47 57 -131q0 -70 -31 -123q-31 -51 -86 -88q-51 -35 -129 -53.5t-164 -18.5q-145 0 -225 45q-76 43 -76 121z" />
<glyph unicode="&#xb4;" horiz-adv-x="1181" d="M498 1241l6 27q10 10 32.5 35.5t28.5 31.5l66 78q57 72 63 80q12 14 29.5 41t24.5 35h321l-6 -21q-15 -18 -43 -43q-41 -37 -64 -53q-23 -18 -77 -57l-82 -58q-61 -41 -82 -53q-35 -23 -78 -43h-139z" />
<glyph unicode="&#xb5;" horiz-adv-x="1384" d="M-4 -344q0 70 16 137q18 80 45 172l60 219q37 137 65 277l135 637h312l-137 -643q-2 -14 -7 -35q-2 -6 -4 -20.5t-4 -22.5l-6 -45q-2 -14 -2 -41q0 -29 6 -53q6 -27 21 -43q12 -14 36 -29q20 -12 52 -12q95 0 159 92q68 96 107 286l121 566h311l-141 -666 q-6 -27 -21 -104q-8 -43 -8 -92q0 -43 18.5 -68t53.5 -25q33 0 59 13q8 4 62 34l49 -69q-35 -35 -56 -51q-25 -20 -71 -45q-37 -20 -88 -33q-49 -12 -110.5 -12t-104.5 18q-41 18 -66 45q-27 29 -35 66q-10 41 -10 79h-10q-34 -46 -68 -86q-27 -33 -71 -65q-33 -25 -78 -41 t-94 -16q-88 0 -154 40q-61 37 -100 107l-13 -74q-4 -25 -8 -73q-2 -25 -6 -70q-2 -23 -2 -57q0 -37 6 -64q6 -28 25 -49q20 -23 51 -35q35 -12 84 -18q-10 -49 -31 -78q-29 -39 -57 -58q-31 -20 -74 -32q-33 -10 -84 -11q-29 0 -53 7q-23 6 -43 26q-16 16 -27 45 q-10 31 -10 70z" />
<glyph unicode="&#xb6;" horiz-adv-x="1282" d="M131 1192q0 90 16 149q18 63 56 115q37 49 98 74q68 27 148 26h802v-108h-26q-45 0 -66 -4q-35 -6 -53 -21q-23 -16 -35 -45q-14 -33 -14 -78v-1273q0 -43 14 -76q12 -29 35 -45q25 -18 53 -21q41 -4 66 -4h26v-108h-342v1657h-172v-1657h-342v108h27q25 0 65 4 q29 2 54 21q23 16 34 45q14 33 15 76v764h-146q-90 0 -149 32.5t-96 87.5q-35 53 -52 129q-16 78 -16 152z" />
<glyph unicode="&#xb7;" horiz-adv-x="622" d="M174 709q0 41 12.5 75.5t36.5 59.5q27 27 56 37q34 12 73 12t66 -8q31 -8 53 -29q25 -20 35 -45q12 -29 12 -66q0 -47 -16 -86q-14 -35 -41 -57q-23 -20 -57.5 -30.5t-63.5 -10.5q-74 0 -121 37q-45 37 -45 111z" />
<glyph unicode="&#xb8;" horiz-adv-x="681" d="M51 -465l27 121q33 -8 69 -12q45 -4 64 -4q31 0 59 6q25 6 47 18q18 10 33 33q12 18 12 47q0 20 -10 36.5t-28 29.5q-23 16 -43 20q-16 4 -54 8l82 180h117l-39 -88q43 -6 74 -20t57 -37q23 -20 37 -51q14 -33 14 -62q0 -68 -30 -114q-33 -49 -82 -78t-117 -45 q-59 -14 -135 -15q-33 0 -76 7q-35 4 -78 20z" />
<glyph unicode="&#xb9;" horiz-adv-x="817" d="M131 588l19 90h104q25 0 37 2q18 4 31 10q15 9 24 25q10 18 16 41l123 581q-58 -58 -104 -92q-47 -35 -82 -35q-29 0 -43 29q-16 33 -16 72l49 12q33 8 49 16l55 27q20 10 66 39l106 68h152l-146 -689q-6 -18 -6 -32q0 -6 -1 -12.5t-1 -8.5q0 -18 6 -29q8 -10 19 -16 q12 -6 24 -6q6 0 16.5 -1t14.5 -1h84l-18 -90h-578z" />
<glyph unicode="&#xba;" horiz-adv-x="833" d="M147 1038q0 47 13 97q8 33 41 98q27 51 63.5 92t91.5 76q57 37 115 53q65 18 141 19q70 0 121 -15q53 -14 98 -47q41 -29 66 -78t25 -114q0 -43 -12.5 -92.5t-37.5 -98.5q-20 -41 -61 -92q-35 -45 -90 -80q-52 -34 -117 -55q-61 -20 -143 -21q-68 0 -129 17 q-58 15 -99 49q-43 37 -63 82q-23 51 -23 110zM379 1028q0 -68 22.5 -106.5t69.5 -38.5q51 0 96 35q41 33 70 86q23 43 41 112q14 55 14 109q0 70 -20.5 104.5t-69.5 34.5q-53 0 -94 -33q-41 -31 -70 -84q-27 -49 -43 -108q-16 -62 -16 -111z" />
<glyph unicode="&#xbb;" horiz-adv-x="1134" d="M45 143l295 410l-121 410h143l236 -369l-23 -107l-387 -344h-143zM457 143l295 410l-121 410h143l236 -369l-23 -107l-387 -344h-143z" />
<glyph unicode="&#xbc;" horiz-adv-x="1718" d="M53 588l19 90h104q25 0 37 2q18 4 31 10q15 9 24 25q10 18 16 41l123 581q-58 -58 -104 -92q-47 -35 -82 -35q-29 0 -43 29q-16 33 -16 72l49 12q33 8 49 16l55 27q20 10 66 39l106 68h152l-146 -689q-6 -18 -6 -32q0 -6 -1 -12.5t-1 -8.5q0 -18 6 -29q8 -10 19 -16 q12 -6 24 -6q6 0 16.5 -1t14.5 -1h84l-18 -90h-578zM286 0l1039 1462h172l-1037 -1462h-174zM876 239l17 82l528 564h182l-112 -537h159l-24 -109h-160l-8 -36q-6 -20 -6 -39q0 -6 -1 -15l-1 -8q0 -16 6 -27q8 -12 14 -16q8 -6 25 -6q4 0 12 -1t14 -1h41l-18 -90h-471l18 90 h58q23 0 32 2q20 4 29 10q18 14 25 25q6 12 14 41l14 71h-387zM1044 348h244l47 229q8 45 16 64l12.5 37.5l10.5 31.5q-8 -12 -25 -32q-12 -15 -18 -25z" />
<glyph unicode="&#xbd;" horiz-adv-x="1718" d="M53 588l19 90h104q25 0 37 2q18 4 31 10q15 9 24 25q10 18 16 41l123 581q-58 -58 -104 -92q-47 -35 -82 -35q-29 0 -43 29q-16 33 -16 72l49 12q33 8 49 16l55 27q20 10 66 39l106 68h152l-146 -689q-6 -18 -6 -32q0 -6 -1 -12.5t-1 -8.5q0 -18 6 -29q8 -10 19 -16 q12 -6 24 -6q6 0 16.5 -1t14.5 -1h84l-18 -90h-578zM276 0l1039 1462h172l-1037 -1462h-174zM899 0l29 147l303 221q74 55 105 86q39 39 65 82q29 47 37 80q10 45 10 84q0 14 -4 39q-2 12 -14 33q-8 14 -27 24q-14 8 -41 9q-35 0 -53 -17q-20 -18 -39 -45q-14 -20 -29 -65 q-14 -41 -16 -76q-70 0 -115 29q-41 27 -41 75q0 41 23 76q25 39 63 62q41 23 101 38q55 14 133 15q61 0 115 -13q45 -10 88 -38q37 -25 55 -58q20 -37 20 -76q0 -45 -14 -81q-16 -43 -51 -84q-39 -45 -92 -91q-70 -57 -146 -112l-256 -185h301q47 0 72 25t37 59l16 43h80 l-57 -286h-658z" />
<glyph unicode="&#xbe;" horiz-adv-x="1718" d="M340 0l1039 1462h172l-1037 -1462h-174zM884 239l17 82l528 564h182l-112 -537h159l-24 -109h-160l-8 -36q-6 -20 -6 -39q0 -6 -1 -15l-1 -8q0 -16 6 -27q8 -12 14 -16q8 -6 25 -6q4 0 12 -1t14 -1h41l-18 -90h-471l18 90h58q23 0 32 2q20 4 29 10q18 14 25 25 q6 12 14 41l14 71h-387zM1052 348h244l47 229q8 45 16 64l12.5 37.5l10.5 31.5q-8 -12 -25 -32q-12 -15 -18 -25zM57 739q0 31 11 49q12 23 32 37q16 12 50 23q25 8 59 8q0 -35 8 -61q9 -31 31 -56q27 -31 51 -43q33 -16 78 -16q39 0 70 8q33 8 57 31q20 18 37 51 q14 29 14 78q0 33 -10 53q-14 27 -35 45q-23 18 -57 31q-37 12 -84 12h-68l16 96h70q45 0 82 15q39 14 68 41q27 25 47 67q18 41 18 90q0 43 -18.5 68t-59.5 25q-35 0 -57 -15q-27 -16 -43 -39q-16 -20 -27 -57q-12 -39 -16 -68q-72 0 -121 23q-45 20 -45 72q0 35 23 67 q25 35 63 58q37 20 100 36q57 14 135 14.5t128 -14.5q57 -16 88 -38q33 -25 53 -62q16 -31 16 -72q0 -55 -18.5 -94t-54.5 -69q-35 -29 -82 -48q-45 -18 -103 -30l-2 -11q96 -12 150 -57q57 -47 57 -131q0 -70 -31 -123q-31 -51 -86 -88q-51 -35 -129 -53.5t-164 -18.5 q-145 0 -225 45q-76 43 -76 121z" />
<glyph unicode="&#xbf;" horiz-adv-x="1095" d="M4 -49q0 90 39 162q41 76 107 135q59 53 161 108q78 43 203 88l74 183h131l4 -254q-98 -35 -164 -72q-74 -39 -127 -90q-51 -49 -80 -115q-29 -68 -28 -149q0 -49 12 -90q12 -43 31 -66q23 -29 45 -41q27 -14 59 -14q49 0 82 24q35 25 57 68q27 51 37 94q16 74 21 113 q252 0 252 -158q0 -57 -33 -104t-94 -84q-59 -35 -150 -58q-84 -20 -197 -20q-104 0 -184 20q-86 23 -139 62q-59 43 -88 104q-31 65 -31 154zM524 926q0 51 14.5 86t41.5 57q23 20 59 31q35 10 63 10q76 0 121 -37t45 -110q0 -41 -12 -76q-10 -27 -37 -58q-25 -27 -55 -38 q-34 -12 -74 -13q-39 0 -65 8q-35 10 -54 27q-23 18 -35 47t-12 66z" />
<glyph unicode="&#xc0;" horiz-adv-x="1540" d="M-100 0l22 109h43q28 0 49 6q18 6 41 24q22 18 43.5 49t48.5 80l695 1194h280l172 -1206q12 -55 13 -59q10 -33 22 -47.5t37 -28.5q23 -12 53 -12h37l-22 -109h-676l22 109h47q66 0 105 20.5t39 65.5v34q0 10 -4 31l-31 221h-498l-100 -184q-16 -27 -29 -66 q-10 -31 -10 -49q0 -37 29 -55q28 -18 86 -18h41l-23 -109h-532zM508 606h414l-37 344q-2 25 -5 46.5t-6 37.5q-2 27 -6 76q0 8 -2 23.5t-3 28t-1 22.5q-4 45 -4 71q-20 -49 -31 -69l-30 -64q-8 -14 -12.5 -23t-11.5 -20.5l-15 -25.5l-47 -84zM654 1886l6 21h301 q12 -37 31 -80q16 -39 41 -84l43 -78q20 -33 38 -59l-6 -27h-121q-45 27 -94 66t-96 84q-31 29 -84 86q-36 40 -59 71z" />
<glyph unicode="&#xc1;" horiz-adv-x="1540" d="M-100 0l22 109h43q28 0 49 6q18 6 41 24q22 18 43.5 49t48.5 80l695 1194h280l172 -1206q12 -55 13 -59q10 -33 22 -47.5t37 -28.5q23 -12 53 -12h37l-22 -109h-676l22 109h47q66 0 105 20.5t39 65.5v34q0 10 -4 31l-31 221h-498l-100 -184q-16 -27 -29 -66 q-10 -31 -10 -49q0 -37 29 -55q28 -18 86 -18h41l-23 -109h-532zM508 606h414l-37 344q-2 25 -5 46.5t-6 37.5q-2 27 -6 76q0 8 -2 23.5t-3 28t-1 22.5q-4 45 -4 71q-20 -49 -31 -69l-30 -64q-8 -14 -12.5 -23t-11.5 -20.5l-15 -25.5l-47 -84zM858 1579l6 27 q10 10 32.5 35.5t28.5 31.5l66 78q57 72 63 80q12 14 29.5 41t24.5 35h321l-6 -21q-15 -18 -43 -43q-41 -37 -64 -53q-23 -18 -77 -57l-82 -58q-61 -41 -82 -53q-35 -23 -78 -43h-139z" />
<glyph unicode="&#xc2;" horiz-adv-x="1540" d="M-100 0l22 109h43q28 0 49 6q18 6 41 24q22 18 43.5 49t48.5 80l695 1194h280l172 -1206q12 -55 13 -59q10 -33 22 -47.5t37 -28.5q23 -12 53 -12h37l-22 -109h-676l22 109h47q66 0 105 20.5t39 65.5v34q0 10 -4 31l-31 221h-498l-100 -184q-16 -27 -29 -66 q-10 -31 -10 -49q0 -37 29 -55q28 -18 86 -18h41l-23 -109h-532zM508 606h414l-37 344q-2 25 -5 46.5t-6 37.5q-2 27 -6 76q0 8 -2 23.5t-3 28t-1 22.5q-4 45 -4 71q-20 -49 -31 -69l-30 -64q-8 -14 -12.5 -23t-11.5 -20.5l-15 -25.5l-47 -84zM613 1579l6 27l30.5 31.5 t36.5 35.5l78 76l80 82q47 51 66 76h276q16 -43 33 -72q20 -41 43 -82l45 -80l39 -67l-6 -27h-129l-18.5 18.5t-22.5 20.5l-50 49l-49 49q-18 18 -43 47q-59 -45 -61 -47l-70 -49l-33.5 -24.5l-33.5 -24.5l-58 -39h-159z" />
<glyph unicode="&#xc3;" horiz-adv-x="1540" d="M-100 0l22 109h43q28 0 49 6q18 6 41 24q22 18 43.5 49t48.5 80l695 1194h280l172 -1206q12 -55 13 -59q10 -33 22 -47.5t37 -28.5q23 -12 53 -12h37l-22 -109h-676l22 109h47q66 0 105 20.5t39 65.5v34q0 10 -4 31l-31 221h-498l-100 -184q-16 -27 -29 -66 q-10 -31 -10 -49q0 -37 29 -55q28 -18 86 -18h41l-23 -109h-532zM508 606h414l-37 344q-2 25 -5 46.5t-6 37.5q-2 27 -6 76q0 8 -2 23.5t-3 28t-1 22.5q-4 45 -4 71q-20 -49 -31 -69l-30 -64q-8 -14 -12.5 -23t-11.5 -20.5l-15 -25.5l-47 -84zM607 1600q10 53 32 100 q27 59 60 98q37 45 82 76q43 29 102 29q55 0 96 -21q53 -27 78 -43l68 -45q29 -20 63 -20q25 0 45 10q25 12 33 22.5t21 34.5q6 12 14 41h123q-14 -57 -33 -102q-23 -53 -57 -99q-37 -47 -78 -73q-45 -29 -99 -29q-59 0 -100 21q-61 31 -80 43l-69 45q-33 20 -66 20 q-25 0 -41 -8t-33 -25q-14 -14 -24 -34q-12 -25 -15 -41h-122z" />
<glyph unicode="&#xc4;" horiz-adv-x="1540" d="M-100 0l22 109h43q28 0 49 6q18 6 41 24q22 18 43.5 49t48.5 80l695 1194h280l172 -1206q12 -55 13 -59q10 -33 22 -47.5t37 -28.5q23 -12 53 -12h37l-22 -109h-676l22 109h47q66 0 105 20.5t39 65.5v34q0 10 -4 31l-31 221h-498l-100 -184q-16 -27 -29 -66 q-10 -31 -10 -49q0 -37 29 -55q28 -18 86 -18h41l-23 -109h-532zM508 606h414l-37 344q-2 25 -5 46.5t-6 37.5q-2 27 -6 76q0 8 -2 23.5t-3 28t-1 22.5q-4 45 -4 71q-20 -49 -31 -69l-30 -64q-8 -14 -12.5 -23t-11.5 -20.5l-15 -25.5l-47 -84zM678 1724q0 66 32.5 105 t90.5 39q47 0 79.5 -28.5t32.5 -84.5q0 -40 -12 -67q-12 -29 -26 -43q-18 -18 -39 -25q-29 -8 -45 -8q-53 0 -82 26q-31 28 -31 86zM1106 1724q0 66 32.5 105t90.5 39q47 0 79.5 -28.5t32.5 -84.5q0 -40 -12 -67q-12 -29 -26 -43q-18 -18 -39 -25q-29 -8 -45 -8 q-53 0 -82 26q-31 28 -31 86z" />
<glyph unicode="&#xc5;" horiz-adv-x="1540" d="M-100 0l22 109h43q28 0 49 6q18 6 41 24q22 18 43.5 49t48.5 80l695 1194h280l172 -1206q12 -55 13 -59q10 -33 22 -47.5t37 -28.5q23 -12 53 -12h37l-22 -109h-676l22 109h47q66 0 105 20.5t39 65.5v34q0 10 -4 31l-31 221h-498l-100 -184q-16 -27 -29 -66 q-10 -31 -10 -49q0 -37 29 -55q28 -18 86 -18h41l-23 -109h-532zM508 606h414l-37 344q-2 25 -5 46.5t-6 37.5q-2 27 -6 76q0 8 -2 23.5t-3 28t-1 22.5q-4 45 -4 71q-20 -49 -31 -69l-30 -64q-8 -14 -12.5 -23t-11.5 -20.5l-15 -25.5l-47 -84zM725 1572.5q0 53.5 18 96.5 q16 41 54 69q35 29 78 43.5t96 14.5t96 -14.5t78 -43.5q37 -29 53 -69q18 -43 18.5 -96.5t-18.5 -96.5q-16 -41 -53 -69q-35 -29 -78 -43.5t-96 -14.5t-96 14.5t-78 43.5q-37 29 -54 69q-18 43 -18 96.5zM850 1573q0 -27 10 -52q10 -23 24.5 -35t39.5 -18q23 -6 47 -6t47 6 q22 6 37 19q18 14 26 34q10 25 10.5 51.5t-10.5 51.5q-8 18 -26 33q-18 16 -37 20q-23 6 -47.5 6t-46.5 -6q-20 -6 -39 -20q-16 -12 -25 -33q-10 -24 -10 -51z" />
<glyph unicode="&#xc6;" horiz-adv-x="2033" d="M-90 0l22 109h25q25 0 51.5 10t50.5 28q29 20 54 50q14 16 57 71l805 1075l-133 11l22 108h1219l-72 -381h-145l1 9q1 8 1 16l4 37q0 6 1 19.5t1 17.5q0 6 2 17v3q0 31 -8 53q-10 29 -25 43q-25 23 -45 31q-31 10 -67 10h-273l-108 -512h465l-27 -123h-465l-123 -577h324 q43 0 86 14q37 12 65 35q31 23 49.5 55.5t30.5 63.5l33 88h145l-94 -381h-1175l22 109h27q23 0 63 4q29 2 55 16q23 10 43 39q16 23 27 63l49 238h-467l-121 -172q-31 -45 -43 -76q-14 -39 -14 -51q0 -31 29 -47q27 -14 80 -14h35l-23 -109h-516zM575 592h402l158 745h-21z " />
<glyph unicode="&#xc7;" horiz-adv-x="1366" d="M129 530q0 117 29 242q27 113 84 225q55 108 135 197q90 100 180 158q106 68 219 102q120 37 258 37q101 0 178 -18q84 -20 127 -48q51 -33 76 -77.5t25 -100.5q0 -45 -22.5 -79.5t-59.5 -57.5q-35 -20 -92 -35q-53 -12 -115 -12q0 43 -6 94q-6 52 -25 98q-16 39 -53 74 q-35 31 -90 31q-82 0 -150 -37q-74 -39 -125 -100q-61 -70 -100 -148q-35 -66 -72 -178q-29 -86 -45 -190.5t-16 -188.5q0 -176 88 -270q90 -96 266 -96q66 0 127 16q55 14 103 43q51 31 80 59q37 37 59 68q10 -8 25 -29q10 -14 10 -41q0 -51 -31 -102q-29 -51 -92 -94 q-57 -41 -150 -66q-96 -27 -204 -26q-145 0 -263 36q-115 37 -194 107q-78 70 -123 174q-41 96 -41 233zM348 -465l27 121q33 -8 69 -12q45 -4 64 -4q31 0 59 6q25 6 47 18q18 10 33 33q12 18 12 47q0 20 -10 36.5t-28 29.5q-23 16 -43 20q-16 4 -54 8l82 180h117l-39 -88 q43 -6 74 -20t57 -37q23 -20 37 -51q14 -33 14 -62q0 -68 -30 -114q-33 -49 -82 -78t-117 -45q-59 -14 -135 -15q-33 0 -76 7q-35 4 -78 20z" />
<glyph unicode="&#xc8;" horiz-adv-x="1294" d="M-47 0l22 109h27q20 0 61 4q31 2 58 16q23 10 43 39q16 23 26 63l213 1006l3 9q2 9 4 16q2 10 2 22q0 25 -11 37q-10 14 -30 20q-23 8 -47 11q-18 2 -60 2h-26l22 108h1112l-72 -381h-145l1 9q1 8 1 16l4 37q0 6 1 19.5t1 17.5q0 6 2 17v3q0 31 -8 53q-10 29 -24 43 q-23 23 -46 31q-31 10 -67 10h-272l-109 -512h465l-27 -123h-465l-123 -577h324q43 0 86 14q37 12 66 35q27 20 47 55q25 41 32 64l33 88h146l-95 -381h-1175zM537 1886l6 21h301q12 -37 31 -80q16 -39 41 -84l43 -78q20 -33 38 -59l-6 -27h-121q-45 27 -94 66t-96 84 q-31 29 -84 86q-36 40 -59 71z" />
<glyph unicode="&#xc9;" horiz-adv-x="1294" d="M-47 0l22 109h27q20 0 61 4q31 2 58 16q23 10 43 39q16 23 26 63l213 1006l3 9q2 9 4 16q2 10 2 22q0 25 -11 37q-10 14 -30 20q-23 8 -47 11q-18 2 -60 2h-26l22 108h1112l-72 -381h-145l1 9q1 8 1 16l4 37q0 6 1 19.5t1 17.5q0 6 2 17v3q0 31 -8 53q-10 29 -24 43 q-23 23 -46 31q-31 10 -67 10h-272l-109 -512h465l-27 -123h-465l-123 -577h324q43 0 86 14q37 12 66 35q27 20 47 55q25 41 32 64l33 88h146l-95 -381h-1175zM742 1579l6 27q10 10 32.5 35.5t28.5 31.5l66 78q57 72 63 80q12 14 29.5 41t24.5 35h321l-6 -21 q-15 -18 -43 -43q-41 -37 -64 -53q-23 -18 -77 -57l-82 -58q-61 -41 -82 -53q-35 -23 -78 -43h-139z" />
<glyph unicode="&#xca;" horiz-adv-x="1294" d="M-47 0l22 109h27q20 0 61 4q31 2 58 16q23 10 43 39q16 23 26 63l213 1006l3 9q2 9 4 16q2 10 2 22q0 25 -11 37q-10 14 -30 20q-23 8 -47 11q-18 2 -60 2h-26l22 108h1112l-72 -381h-145l1 9q1 8 1 16l4 37q0 6 1 19.5t1 17.5q0 6 2 17v3q0 31 -8 53q-10 29 -24 43 q-23 23 -46 31q-31 10 -67 10h-272l-109 -512h465l-27 -123h-465l-123 -577h324q43 0 86 14q37 12 66 35q27 20 47 55q25 41 32 64l33 88h146l-95 -381h-1175zM551 1579l6 27l30.5 31.5t36.5 35.5l78 76l80 82q47 51 66 76h276q16 -43 33 -72q20 -41 43 -82l45 -80l39 -67 l-6 -27h-129l-18.5 18.5t-22.5 20.5l-50 49l-49 49q-18 18 -43 47q-59 -45 -61 -47l-70 -49l-33.5 -24.5l-33.5 -24.5l-58 -39h-159z" />
<glyph unicode="&#xcb;" horiz-adv-x="1294" d="M-47 0l22 109h27q20 0 61 4q31 2 58 16q23 10 43 39q16 23 26 63l213 1006l3 9q2 9 4 16q2 10 2 22q0 25 -11 37q-10 14 -30 20q-23 8 -47 11q-18 2 -60 2h-26l22 108h1112l-72 -381h-145l1 9q1 8 1 16l4 37q0 6 1 19.5t1 17.5q0 6 2 17v3q0 31 -8 53q-10 29 -24 43 q-23 23 -46 31q-31 10 -67 10h-272l-109 -512h465l-27 -123h-465l-123 -577h324q43 0 86 14q37 12 66 35q27 20 47 55q25 41 32 64l33 88h146l-95 -381h-1175zM576 1724q0 66 32.5 105t90.5 39q47 0 79.5 -28.5t32.5 -84.5q0 -40 -12 -67q-12 -29 -26 -43q-18 -18 -39 -25 q-29 -8 -45 -8q-53 0 -82 26q-31 28 -31 86zM1004 1724q0 66 32.5 105t90.5 39q47 0 79.5 -28.5t32.5 -84.5q0 -40 -12 -67q-12 -29 -26 -43q-18 -18 -39 -25q-29 -8 -45 -8q-53 0 -82 26q-31 28 -31 86z" />
<glyph unicode="&#xcc;" horiz-adv-x="819" d="M-47 0l22 109h27q20 0 61 4q31 2 58 16q23 10 43 39q16 23 26 63l213 1006l3 9q2 9 4 16q2 10 2 22q0 25 -11 37q-10 14 -30 20q-23 8 -47 11q-18 2 -60 2h-26l22 108h707l-23 -108h-26q-25 0 -66 -4q-25 -2 -57 -19q-29 -14 -45.5 -36.5t-26.5 -65.5l-211 -1004 q-2 -4 -3 -12t-1 -12q-4 -20 -4 -23q0 -25 10 -35q18 -18 33 -22q29 -8 47 -10t59 -2h27l-23 -109h-704zM295 1886l6 21h301q12 -37 31 -80q16 -39 41 -84l43 -78q20 -33 38 -59l-6 -27h-121q-45 27 -94 66t-96 84q-31 29 -84 86q-36 40 -59 71z" />
<glyph unicode="&#xcd;" horiz-adv-x="819" d="M-47 0l22 109h27q20 0 61 4q31 2 58 16q23 10 43 39q16 23 26 63l213 1006l3 9q2 9 4 16q2 10 2 22q0 25 -11 37q-10 14 -30 20q-23 8 -47 11q-18 2 -60 2h-26l22 108h707l-23 -108h-26q-25 0 -66 -4q-25 -2 -57 -19q-29 -14 -45.5 -36.5t-26.5 -65.5l-211 -1004 q-2 -4 -3 -12t-1 -12q-4 -20 -4 -23q0 -25 10 -35q18 -18 33 -22q29 -8 47 -10t59 -2h27l-23 -109h-704zM496 1579l6 27q10 10 32.5 35.5t28.5 31.5l66 78q57 72 63 80q12 14 29.5 41t24.5 35h321l-6 -21q-15 -18 -43 -43q-41 -37 -64 -53q-23 -18 -77 -57l-82 -58 q-61 -41 -82 -53q-35 -23 -78 -43h-139z" />
<glyph unicode="&#xce;" horiz-adv-x="819" d="M-47 0l22 109h27q20 0 61 4q31 2 58 16q23 10 43 39q16 23 26 63l213 1006l3 9q2 9 4 16q2 10 2 22q0 25 -11 37q-10 14 -30 20q-23 8 -47 11q-18 2 -60 2h-26l22 108h707l-23 -108h-26q-25 0 -66 -4q-25 -2 -57 -19q-29 -14 -45.5 -36.5t-26.5 -65.5l-211 -1004 q-2 -4 -3 -12t-1 -12q-4 -20 -4 -23q0 -25 10 -35q18 -18 33 -22q29 -8 47 -10t59 -2h27l-23 -109h-704zM267 1579l6 27l30.5 31.5t36.5 35.5l78 76l80 82q47 51 66 76h276q16 -43 33 -72q20 -41 43 -82l45 -80l39 -67l-6 -27h-129l-18.5 18.5t-22.5 20.5l-50 49l-49 49 q-18 18 -43 47q-59 -45 -61 -47l-70 -49l-33.5 -24.5l-33.5 -24.5l-58 -39h-159z" />
<glyph unicode="&#xcf;" horiz-adv-x="819" d="M-47 0l22 109h27q20 0 61 4q31 2 58 16q23 10 43 39q16 23 26 63l213 1006l3 9q2 9 4 16q2 10 2 22q0 25 -11 37q-10 14 -30 20q-23 8 -47 11q-18 2 -60 2h-26l22 108h707l-23 -108h-26q-25 0 -66 -4q-25 -2 -57 -19q-29 -14 -45.5 -36.5t-26.5 -65.5l-211 -1004 q-2 -4 -3 -12t-1 -12q-4 -20 -4 -23q0 -25 10 -35q18 -18 33 -22q29 -8 47 -10t59 -2h27l-23 -109h-704zM322 1724q0 66 32.5 105t90.5 39q47 0 79.5 -28.5t32.5 -84.5q0 -40 -12 -67q-12 -29 -26 -43q-18 -18 -39 -25q-29 -8 -45 -8q-53 0 -82 26q-31 28 -31 86zM750 1724 q0 66 32.5 105t90.5 39q47 0 79.5 -28.5t32.5 -84.5q0 -40 -12 -67q-12 -29 -26 -43q-18 -18 -39 -25q-29 -8 -45 -8q-53 0 -82 26q-31 28 -31 86z" />
<glyph unicode="&#xd0;" horiz-adv-x="1572" d="M-49 0l22 109h29q20 0 61 4q31 2 58 16q23 10 43 39q16 23 26 63l99 471h-168l26 125h168l88 410q2 4 3.5 12t1.5 13q4 20 4 22q0 22 -13 37q-10 14 -30 20q-25 8 -45 11q-18 2 -60 2h-26l22 108h655q150 0 263 -37q117 -39 194.5 -106.5t120.5 -173.5q43 -104 43 -240 q0 -123 -25 -237q-23 -106 -75 -215q-47 -96 -123 -183q-74 -82 -168 -143q-92 -59 -215 -94q-117 -33 -258 -33h-721zM492 127h92q143 0 258 59q113 57 190 164q82 111 119 250q41 152 41 322q0 106 -25 186q-23 74 -71 129q-45 49 -115 76q-68 25 -147 24h-86l-109 -510 h258l-27 -125h-258z" />
<glyph unicode="&#xd1;" horiz-adv-x="1613" d="M-47 0l22 109h27q20 0 61 4q31 2 58 16q23 10 43 39q16 23 26 63l209 983q12 51 13 70q0 25 -11 37q-10 14 -30 20q-23 8 -47 11q-18 2 -60 2h-26l22 108h455l499 -1050l172 809q10 39 10.5 63.5t-10.5 36.5q-12 14 -32 20q-29 8 -47.5 10.5t-59.5 2.5h-6l23 108h516 l-23 -108h-26q-20 0 -62 -4q-23 -2 -55 -19q-29 -14 -45.5 -36.5t-26.5 -63.5l-260 -1231h-188l-555 1159l-193 -917q-2 -4 -8 -39q-2 -10 -2 -25q0 -25 10 -35q18 -18 33 -22q29 -8 47 -10t59 -2h7l-23 -109h-516zM666 1600q10 53 32 100q27 59 60 98q37 45 82 76 q43 29 102 29q55 0 96 -21q53 -27 78 -43l68 -45q29 -20 63 -20q25 0 45 10q25 12 33 22.5t21 34.5q6 12 14 41h123q-14 -57 -33 -102q-23 -53 -57 -99q-37 -47 -78 -73q-45 -29 -99 -29q-59 0 -100 21q-61 31 -80 43l-69 45q-33 20 -66 20q-25 0 -41 -8t-33 -25 q-14 -14 -24 -34q-12 -25 -15 -41h-122z" />
<glyph unicode="&#xd2;" horiz-adv-x="1619" d="M129 545q0 98 25 207q25 106 73 211q53 115 121 200q72 94 170 166q90 68 217 113q121 43 266 43q117 0 216 -33q102 -35 180 -102q80 -72 125 -174q45 -104 45 -254q0 -102 -23 -201q-23 -100 -71 -211q-47 -104 -119 -203q-66 -90 -168 -168q-98 -78 -219 -119 q-123 -43 -267 -43q-121 0 -225 37t-182 109q-80 74 -121 176q-43 108 -43 246zM463 496q0 -96 22 -174q23 -74 58 -119q37 -45 90 -68q55 -23 108 -22q82 0 154 41q63 37 125 110q59 72 96 156q35 76 66 184q31 102 41 189q12 96 12 176q0 104 -21 172q-23 76 -57 119 q-39 49 -88 69q-55 23 -111 23q-84 0 -155 -41q-63 -35 -123 -109q-57 -70 -96 -158q-40 -89 -68 -184q-29 -102 -41 -190q-12 -96 -12 -174zM650 1886l6 21h301q12 -37 31 -80q16 -39 41 -84l43 -78q20 -33 38 -59l-6 -27h-121q-45 27 -94 66t-96 84q-31 29 -84 86 q-36 40 -59 71z" />
<glyph unicode="&#xd3;" horiz-adv-x="1619" d="M129 545q0 98 25 207q25 106 73 211q53 115 121 200q72 94 170 166q90 68 217 113q121 43 266 43q117 0 216 -33q102 -35 180 -102q80 -72 125 -174q45 -104 45 -254q0 -102 -23 -201q-23 -100 -71 -211q-47 -104 -119 -203q-66 -90 -168 -168q-98 -78 -219 -119 q-123 -43 -267 -43q-121 0 -225 37t-182 109q-80 74 -121 176q-43 108 -43 246zM463 496q0 -96 22 -174q23 -74 58 -119q37 -45 90 -68q55 -23 108 -22q82 0 154 41q63 37 125 110q59 72 96 156q35 76 66 184q31 102 41 189q12 96 12 176q0 104 -21 172q-23 76 -57 119 q-39 49 -88 69q-55 23 -111 23q-84 0 -155 -41q-63 -35 -123 -109q-57 -70 -96 -158q-40 -89 -68 -184q-29 -102 -41 -190q-12 -96 -12 -174zM875 1579l6 27q10 10 32.5 35.5t28.5 31.5l66 78q57 72 63 80q12 14 29.5 41t24.5 35h321l-6 -21q-15 -18 -43 -43 q-41 -37 -64 -53q-23 -18 -77 -57l-82 -58q-61 -41 -82 -53q-35 -23 -78 -43h-139z" />
<glyph unicode="&#xd4;" horiz-adv-x="1619" d="M129 545q0 98 25 207q25 106 73 211q53 115 121 200q72 94 170 166q90 68 217 113q121 43 266 43q117 0 216 -33q102 -35 180 -102q80 -72 125 -174q45 -104 45 -254q0 -102 -23 -201q-23 -100 -71 -211q-47 -104 -119 -203q-66 -90 -168 -168q-98 -78 -219 -119 q-123 -43 -267 -43q-121 0 -225 37t-182 109q-80 74 -121 176q-43 108 -43 246zM463 496q0 -96 22 -174q23 -74 58 -119q37 -45 90 -68q55 -23 108 -22q82 0 154 41q63 37 125 110q59 72 96 156q35 76 66 184q31 102 41 189q12 96 12 176q0 104 -21 172q-23 76 -57 119 q-39 49 -88 69q-55 23 -111 23q-84 0 -155 -41q-63 -35 -123 -109q-57 -70 -96 -158q-40 -89 -68 -184q-29 -102 -41 -190q-12 -96 -12 -174zM646 1579l6 27l30.5 31.5t36.5 35.5l78 76l80 82q47 51 66 76h276q16 -43 33 -72q20 -41 43 -82l45 -80l39 -67l-6 -27h-129 l-18.5 18.5t-22.5 20.5l-50 49l-49 49q-18 18 -43 47q-59 -45 -61 -47l-70 -49l-33.5 -24.5l-33.5 -24.5l-58 -39h-159z" />
<glyph unicode="&#xd5;" horiz-adv-x="1619" d="M129 545q0 98 25 207q25 106 73 211q53 115 121 200q72 94 170 166q90 68 217 113q121 43 266 43q117 0 216 -33q102 -35 180 -102q80 -72 125 -174q45 -104 45 -254q0 -102 -23 -201q-23 -100 -71 -211q-47 -104 -119 -203q-66 -90 -168 -168q-98 -78 -219 -119 q-123 -43 -267 -43q-121 0 -225 37t-182 109q-80 74 -121 176q-43 108 -43 246zM463 496q0 -96 22 -174q23 -74 58 -119q37 -45 90 -68q55 -23 108 -22q82 0 154 41q63 37 125 110q59 72 96 156q35 76 66 184q31 102 41 189q12 96 12 176q0 104 -21 172q-23 76 -57 119 q-39 49 -88 69q-55 23 -111 23q-84 0 -155 -41q-63 -35 -123 -109q-57 -70 -96 -158q-40 -89 -68 -184q-29 -102 -41 -190q-12 -96 -12 -174zM603 1600q10 53 32 100q27 59 60 98q37 45 82 76q43 29 102 29q55 0 96 -21q53 -27 78 -43l68 -45q29 -20 63 -20q25 0 45 10 q25 12 33 22.5t21 34.5q6 12 14 41h123q-14 -57 -33 -102q-23 -53 -57 -99q-37 -47 -78 -73q-45 -29 -99 -29q-59 0 -100 21q-61 31 -80 43l-69 45q-33 20 -66 20q-25 0 -41 -8t-33 -25q-14 -14 -24 -34q-12 -25 -15 -41h-122z" />
<glyph unicode="&#xd6;" horiz-adv-x="1619" d="M129 545q0 98 25 207q25 106 73 211q53 115 121 200q72 94 170 166q90 68 217 113q121 43 266 43q117 0 216 -33q102 -35 180 -102q80 -72 125 -174q45 -104 45 -254q0 -102 -23 -201q-23 -100 -71 -211q-47 -104 -119 -203q-66 -90 -168 -168q-98 -78 -219 -119 q-123 -43 -267 -43q-121 0 -225 37t-182 109q-80 74 -121 176q-43 108 -43 246zM463 496q0 -96 22 -174q23 -74 58 -119q37 -45 90 -68q55 -23 108 -22q82 0 154 41q63 37 125 110q59 72 96 156q35 76 66 184q31 102 41 189q12 96 12 176q0 104 -21 172q-23 76 -57 119 q-39 49 -88 69q-55 23 -111 23q-84 0 -155 -41q-63 -35 -123 -109q-57 -70 -96 -158q-40 -89 -68 -184q-29 -102 -41 -190q-12 -96 -12 -174zM707 1724q0 66 32.5 105t90.5 39q47 0 79.5 -28.5t32.5 -84.5q0 -40 -12 -67q-12 -29 -26 -43q-18 -18 -39 -25q-29 -8 -45 -8 q-53 0 -82 26q-31 28 -31 86zM1135 1724q0 66 32.5 105t90.5 39q47 0 79.5 -28.5t32.5 -84.5q0 -40 -12 -67q-12 -29 -26 -43q-18 -18 -39 -25q-29 -8 -45 -8q-53 0 -82 26q-31 28 -31 86z" />
<glyph unicode="&#xd7;" d="M199 432l301 303l-301 301l104 103l301 -301l301 303l105 -105l-303 -303l303 -303l-103 -102l-303 303l-301 -303z" />
<glyph unicode="&#xd8;" horiz-adv-x="1619" d="M129 545q0 98 25 207q25 106 73 211q53 115 121 200q72 94 170 166q90 68 217 113q121 43 266 43q163 0 295 -68l97 129h143l-145 -192q80 -68 129 -176q47 -102 47 -256q0 -102 -23 -201q-23 -100 -71 -211q-47 -104 -119 -203q-66 -90 -168 -168q-98 -78 -219 -119 q-123 -43 -267 -43q-88 0 -153 17q-76 18 -139 49l-93 -125h-145l143 186q-88 76 -135 183q-49 111 -49 258zM463 496q0 -95 18 -166l686 915q-33 49 -90 80q-51 27 -119 27q-84 0 -155 -41q-63 -35 -123 -109q-57 -70 -96 -158q-40 -89 -68 -184q-29 -102 -41 -190 q-12 -96 -12 -174zM537 213q35 -49 90 -76q53 -25 114 -24q82 0 154 41q63 37 125 110q59 72 96 156q35 76 66 184q31 102 41 189q12 96 12 176q0 29 -4 82q-4 41 -12 71z" />
<glyph unicode="&#xd9;" horiz-adv-x="1529" d="M203 334q0 25 2 41l6 49l6 49l5 24.5t3 18.5l150 698q12 55 12 70q0 25 -10 37q-10 14 -31 20q-23 8 -47 11q-18 2 -59 2h-27l23 108h708l-22 -108h-27q-25 0 -66 -4q-31 -2 -57 -17q-29 -14 -45 -36.5t-27 -63.5l-155 -721q-4 -18 -8 -41q0 -6 -3.5 -21.5t-5.5 -23.5 l-6 -47q-2 -16 -2 -45q0 -104 64 -156q66 -53 188 -53q96 0 158 27q59 25 106 75q45 49 70 113q27 68 41 143l158 740q2 6 4 17t2 17q2 12 2 27q0 25 -10 37q-10 14 -31 20q-23 8 -47 11q-18 2 -60 2h-26l22 108h539l-23 -108h-26q-23 0 -64 -4q-27 -2 -57 -19 q-29 -14 -45.5 -36.5t-26.5 -65.5l-164 -778q-25 -111 -71 -203q-45 -88 -121 -148q-76 -61 -174 -90q-100 -31 -230 -30q-121 0 -213 24q-94 25 -153.5 68t-95.5 112q-33 64 -33 150zM682 1886l6 21h301q12 -37 31 -80q16 -39 41 -84l43 -78q20 -33 38 -59l-6 -27h-121 q-45 27 -94 66t-96 84q-31 29 -84 86q-36 40 -59 71z" />
<glyph unicode="&#xda;" horiz-adv-x="1529" d="M203 334q0 25 2 41l6 49l6 49l5 24.5t3 18.5l150 698q12 55 12 70q0 25 -10 37q-10 14 -31 20q-23 8 -47 11q-18 2 -59 2h-27l23 108h708l-22 -108h-27q-25 0 -66 -4q-31 -2 -57 -17q-29 -14 -45 -36.5t-27 -63.5l-155 -721q-4 -18 -8 -41q0 -6 -3.5 -21.5t-5.5 -23.5 l-6 -47q-2 -16 -2 -45q0 -104 64 -156q66 -53 188 -53q96 0 158 27q59 25 106 75q45 49 70 113q27 68 41 143l158 740q2 6 4 17t2 17q2 12 2 27q0 25 -10 37q-10 14 -31 20q-23 8 -47 11q-18 2 -60 2h-26l22 108h539l-23 -108h-26q-23 0 -64 -4q-27 -2 -57 -19 q-29 -14 -45.5 -36.5t-26.5 -65.5l-164 -778q-25 -111 -71 -203q-45 -88 -121 -148q-76 -61 -174 -90q-100 -31 -230 -30q-121 0 -213 24q-94 25 -153.5 68t-95.5 112q-33 64 -33 150zM908 1579l6 27q10 10 32.5 35.5t28.5 31.5l66 78q57 72 63 80q12 14 29.5 41t24.5 35 h321l-6 -21q-15 -18 -43 -43q-41 -37 -64 -53q-23 -18 -77 -57l-82 -58q-61 -41 -82 -53q-35 -23 -78 -43h-139z" />
<glyph unicode="&#xdb;" horiz-adv-x="1529" d="M203 334q0 25 2 41l6 49l6 49l5 24.5t3 18.5l150 698q12 55 12 70q0 25 -10 37q-10 14 -31 20q-23 8 -47 11q-18 2 -59 2h-27l23 108h708l-22 -108h-27q-25 0 -66 -4q-31 -2 -57 -17q-29 -14 -45 -36.5t-27 -63.5l-155 -721q-4 -18 -8 -41q0 -6 -3.5 -21.5t-5.5 -23.5 l-6 -47q-2 -16 -2 -45q0 -104 64 -156q66 -53 188 -53q96 0 158 27q59 25 106 75q45 49 70 113q27 68 41 143l158 740q2 6 4 17t2 17q2 12 2 27q0 25 -10 37q-10 14 -31 20q-23 8 -47 11q-18 2 -60 2h-26l22 108h539l-23 -108h-26q-23 0 -64 -4q-27 -2 -57 -19 q-29 -14 -45.5 -36.5t-26.5 -65.5l-164 -778q-25 -111 -71 -203q-45 -88 -121 -148q-76 -61 -174 -90q-100 -31 -230 -30q-121 0 -213 24q-94 25 -153.5 68t-95.5 112q-33 64 -33 150zM691 1579l6 27l30.5 31.5t36.5 35.5l78 76l80 82q47 51 66 76h276q16 -43 33 -72 q20 -41 43 -82l45 -80l39 -67l-6 -27h-129l-18.5 18.5t-22.5 20.5l-50 49l-49 49q-18 18 -43 47q-59 -45 -61 -47l-70 -49l-33.5 -24.5l-33.5 -24.5l-58 -39h-159z" />
<glyph unicode="&#xdc;" horiz-adv-x="1529" d="M203 334q0 25 2 41l6 49l6 49l5 24.5t3 18.5l150 698q12 55 12 70q0 25 -10 37q-10 14 -31 20q-23 8 -47 11q-18 2 -59 2h-27l23 108h708l-22 -108h-27q-25 0 -66 -4q-31 -2 -57 -17q-29 -14 -45 -36.5t-27 -63.5l-155 -721q-4 -18 -8 -41q0 -6 -3.5 -21.5t-5.5 -23.5 l-6 -47q-2 -16 -2 -45q0 -104 64 -156q66 -53 188 -53q96 0 158 27q59 25 106 75q45 49 70 113q27 68 41 143l158 740q2 6 4 17t2 17q2 12 2 27q0 25 -10 37q-10 14 -31 20q-23 8 -47 11q-18 2 -60 2h-26l22 108h539l-23 -108h-26q-23 0 -64 -4q-27 -2 -57 -19 q-29 -14 -45.5 -36.5t-26.5 -65.5l-164 -778q-25 -111 -71 -203q-45 -88 -121 -148q-76 -61 -174 -90q-100 -31 -230 -30q-121 0 -213 24q-94 25 -153.5 68t-95.5 112q-33 64 -33 150zM721 1724q0 66 32.5 105t90.5 39q47 0 79.5 -28.5t32.5 -84.5q0 -40 -12 -67 q-12 -29 -26 -43q-18 -18 -39 -25q-29 -8 -45 -8q-53 0 -82 26q-31 28 -31 86zM1149 1724q0 66 32.5 105t90.5 39q47 0 79.5 -28.5t32.5 -84.5q0 -40 -12 -67q-12 -29 -26 -43q-18 -18 -39 -25q-29 -8 -45 -8q-53 0 -82 26q-31 28 -31 86z" />
<glyph unicode="&#xdd;" horiz-adv-x="1417" d="M180 1354l23 108h665l-22 -108h-92q-45 0 -65.5 -16.5t-20.5 -43.5q0 -20 6 -53q6 -34 18 -80l74 -289q4 -16 14 -63l15 -70l5 -20t5 -23.5t2 -21.5q2 -31 6 -58q20 47 57 105q35 57 93 137l202 289q23 31 43 76q18 39 19 75q0 25 -29 41q-27 14 -96 15h-43l24 108h537 l-23 -108h-38q-25 0 -43.5 -6.5t-38.5 -20.5q-18 -14 -43 -41q-18 -20 -50 -65l-507 -705l-62 -291q-2 -4 -3 -12t-1 -12q-4 -20 -4 -23q0 -25 10 -35q18 -18 33 -22q29 -8 47 -10t59 -2h50l-23 -109h-756l23 109h55q20 0 62 4q23 2 55 18q23 10 43 39q16 23 27 63l59 285 l-221 727q-8 27 -19 51q-8 18 -22 33q-10 10 -33 19q-18 6 -49 6h-27zM826 1579l6 27q10 10 32.5 35.5t28.5 31.5l66 78q57 72 63 80q12 14 29.5 41t24.5 35h321l-6 -21q-15 -18 -43 -43q-41 -37 -64 -53q-23 -18 -77 -57l-82 -58q-61 -41 -82 -53q-35 -23 -78 -43h-139z " />
<glyph unicode="&#xde;" horiz-adv-x="1306" d="M-47 0l22 109h27q20 0 61 4q31 2 58 16q23 10 43 39q16 23 26 63l213 1006l3 9q2 9 4 16q2 10 2 22q0 25 -11 37q-10 14 -30 20q-23 8 -47 11q-18 2 -60 2h-26l22 108h707l-23 -108h-26q-25 0 -66 -4q-25 -2 -57 -19q-29 -14 -45.5 -36.5t-26.5 -65.5l-6 -31h67 q121 0 217 -24q88 -23 164 -78q66 -47 105 -125q37 -74 37 -172q0 -45 -11 -111q-8 -53 -34 -113q-27 -61 -70 -106q-51 -53 -115 -90q-72 -41 -168 -62q-102 -23 -229 -22h-154l-14 -70q-2 -4 -3 -12t-1 -12q-4 -20 -4 -23q0 -25 10 -35q18 -18 33 -22q29 -8 47 -10t59 -2 h27l-23 -109h-704zM551 414h84q90 0 158 28q63 27 104 78q39 47 57 119q18 71 19 154q0 82 -17 131q-18 53 -49 88q-31 33 -76 49t-94 16h-45z" />
<glyph unicode="&#xdf;" horiz-adv-x="1421" d="M-299 -471l29 113q14 -4 41 -9q33 -4 55 -4q45 0 82 19q31 16 65 63q29 39 54 109q23 61 45 162l207 976h-166l26 140h170l17 63q27 117 82 195q55 82 131 129q80 51 170 71q100 23 200 23q109 0 195 -23q80 -20 137 -65t84 -100.5t27 -130.5q0 -12 -4.5 -57.5 t-8.5 -67.5q-2 -12 -5 -35t-5 -33q-2 -12 -8 -34.5t-6 -26.5h-117q-61 0 -104 -13q-49 -14 -74 -32q-31 -23 -41 -52q-14 -37 -14 -67.5t8 -53.5q10 -29 28 -47q25 -25 56 -47q34 -25 86 -55q100 -59 141 -129q43 -74 43 -172q0 -84 -33 -148q-35 -68 -92 -112 q-59 -47 -143 -72q-90 -27 -185 -26q-72 0 -141 16q-57 14 -106 43q-43 25 -70 70q-25 39 -25 94q0 43 15 71q16 33 43 54q25 20 67 32q33 10 86 11q0 -53 9 -95q10 -55 26 -86q20 -39 47 -61q29 -23 72 -23q68 0 104 46q35 43 35 118q0 33 -6 60q-6 33 -22 55 q-23 33 -47 53q-43 35 -80 56q-100 57 -150 131q-53 78 -53 176q0 84 31 143q31 57 84 98q45 35 116 56q66 18 133 18q4 25 15 86q6 39 6 72q0 82 -41 135q-39 51 -127 51q-51 0 -98 -20q-43 -18 -74 -56q-33 -41 -53 -88q-18 -47 -33 -120l-256 -1192q-22 -95 -55 -166 q-35 -72 -78 -125q-43 -51 -94 -88q-53 -37 -105 -58q-55 -22 -110 -30q-49 -8 -107 -9q-39 0 -76 7q-35 6 -55 14z" />
<glyph unicode="&#xe0;" horiz-adv-x="1361" d="M82 354q0 82 18.5 168t55.5 172q35 84 92 162q57 80 125 135q71 58 159 92q92 35 193 35q39 0 82 -6q33 -4 80 -16q31 -8 71 -23q25 -8 56 -26l108 49h109l-135 -639q-2 -6 -5.5 -22.5t-5.5 -22.5q-2 -10 -5 -30t-5 -30q-8 -41 -10 -61q-4 -41 -4 -49q0 -53 20 -76 q20 -25 52 -25q28 0 55 13q31 14 59 30l45 -82q-12 -12 -59 -41q-39 -25 -74 -41q-27 -12 -88 -28q-47 -12 -102 -12q-92 0 -146 40q-55 43 -55 123q0 41 2 62q4 33 12 71h-14q-33 -61 -76 -126q-35 -53 -84 -92.5t-102 -57.5q-61 -20 -131 -20t-127 28q-53 27 -92 78 q-37 47 -56 119q-18 67 -18 149zM393 352q0 -63 8 -98q10 -47 23 -66q16 -27 35 -34q25 -10 45 -11q47 0 94 39q43 35 88 103q41 61 76 143q33 76 51 162l72 340q-23 29 -56 43q-35 14 -75 14q-59 0 -108.5 -30.5t-90.5 -84.5q-37 -49 -70 -116q-27 -55 -51 -138 q-20 -68 -31 -141q-10 -76 -10 -125zM424 1548l6 21h301q12 -37 31 -80q16 -39 41 -84l43 -78q20 -33 38 -59l-6 -27h-121q-45 27 -94 66t-96 84q-31 29 -84 86q-36 40 -59 71z" />
<glyph unicode="&#xe1;" horiz-adv-x="1361" d="M82 354q0 82 18.5 168t55.5 172q35 84 92 162q57 80 125 135q71 58 159 92q92 35 193 35q39 0 82 -6q33 -4 80 -16q31 -8 71 -23q25 -8 56 -26l108 49h109l-135 -639q-2 -6 -5.5 -22.5t-5.5 -22.5q-2 -10 -5 -30t-5 -30q-8 -41 -10 -61q-4 -41 -4 -49q0 -53 20 -76 q20 -25 52 -25q28 0 55 13q31 14 59 30l45 -82q-12 -12 -59 -41q-39 -25 -74 -41q-27 -12 -88 -28q-47 -12 -102 -12q-92 0 -146 40q-55 43 -55 123q0 41 2 62q4 33 12 71h-14q-33 -61 -76 -126q-35 -53 -84 -92.5t-102 -57.5q-61 -20 -131 -20t-127 28q-53 27 -92 78 q-37 47 -56 119q-18 67 -18 149zM393 352q0 -63 8 -98q10 -47 23 -66q16 -27 35 -34q25 -10 45 -11q47 0 94 39q43 35 88 103q41 61 76 143q33 76 51 162l72 340q-23 29 -56 43q-35 14 -75 14q-59 0 -108.5 -30.5t-90.5 -84.5q-37 -49 -70 -116q-27 -55 -51 -138 q-20 -68 -31 -141q-10 -76 -10 -125zM631 1241l6 27q10 10 32.5 35.5t28.5 31.5l66 78q57 72 63 80q12 14 29.5 41t24.5 35h321l-6 -21q-15 -18 -43 -43q-41 -37 -64 -53q-23 -18 -77 -57l-82 -58q-61 -41 -82 -53q-35 -23 -78 -43h-139z" />
<glyph unicode="&#xe2;" horiz-adv-x="1361" d="M82 354q0 82 18.5 168t55.5 172q35 84 92 162q57 80 125 135q71 58 159 92q92 35 193 35q39 0 82 -6q33 -4 80 -16q31 -8 71 -23q25 -8 56 -26l108 49h109l-135 -639q-2 -6 -5.5 -22.5t-5.5 -22.5q-2 -10 -5 -30t-5 -30q-8 -41 -10 -61q-4 -41 -4 -49q0 -53 20 -76 q20 -25 52 -25q28 0 55 13q31 14 59 30l45 -82q-12 -12 -59 -41q-39 -25 -74 -41q-27 -12 -88 -28q-47 -12 -102 -12q-92 0 -146 40q-55 43 -55 123q0 41 2 62q4 33 12 71h-14q-33 -61 -76 -126q-35 -53 -84 -92.5t-102 -57.5q-61 -20 -131 -20t-127 28q-53 27 -92 78 q-37 47 -56 119q-18 67 -18 149zM393 352q0 -63 8 -98q10 -47 23 -66q16 -27 35 -34q25 -10 45 -11q47 0 94 39q43 35 88 103q41 61 76 143q33 76 51 162l72 340q-23 29 -56 43q-35 14 -75 14q-59 0 -108.5 -30.5t-90.5 -84.5q-37 -49 -70 -116q-27 -55 -51 -138 q-20 -68 -31 -141q-10 -76 -10 -125zM383 1241l6 27l30.5 31.5t36.5 35.5l78 76l80 82q47 51 66 76h276q16 -43 33 -72q20 -41 43 -82l45 -80l39 -67l-6 -27h-129l-18.5 18.5t-22.5 20.5l-50 49l-49 49q-18 18 -43 47q-59 -45 -61 -47l-70 -49l-33.5 -24.5l-33.5 -24.5 l-58 -39h-159z" />
<glyph unicode="&#xe3;" horiz-adv-x="1361" d="M82 354q0 82 18.5 168t55.5 172q35 84 92 162q57 80 125 135q71 58 159 92q92 35 193 35q39 0 82 -6q33 -4 80 -16q31 -8 71 -23q25 -8 56 -26l108 49h109l-135 -639q-2 -6 -5.5 -22.5t-5.5 -22.5q-2 -10 -5 -30t-5 -30q-8 -41 -10 -61q-4 -41 -4 -49q0 -53 20 -76 q20 -25 52 -25q28 0 55 13q31 14 59 30l45 -82q-12 -12 -59 -41q-39 -25 -74 -41q-27 -12 -88 -28q-47 -12 -102 -12q-92 0 -146 40q-55 43 -55 123q0 41 2 62q4 33 12 71h-14q-33 -61 -76 -126q-35 -53 -84 -92.5t-102 -57.5q-61 -20 -131 -20t-127 28q-53 27 -92 78 q-37 47 -56 119q-18 67 -18 149zM393 352q0 -63 8 -98q10 -47 23 -66q16 -27 35 -34q25 -10 45 -11q47 0 94 39q43 35 88 103q41 61 76 143q33 76 51 162l72 340q-23 29 -56 43q-35 14 -75 14q-59 0 -108.5 -30.5t-90.5 -84.5q-37 -49 -70 -116q-27 -55 -51 -138 q-20 -68 -31 -141q-10 -76 -10 -125zM398 1262q10 53 32 100q27 59 60 98q37 45 82 76q43 29 102 29q55 0 96 -21q53 -27 78 -43l68 -45q29 -20 63 -20q25 0 45 10q25 12 33 22.5t21 34.5q6 12 14 41h123q-14 -57 -33 -102q-23 -53 -57 -99q-37 -47 -78 -73q-45 -29 -99 -29 q-59 0 -100 21q-61 31 -80 43l-69 45q-33 20 -66 20q-25 0 -41 -8t-33 -25q-14 -14 -24 -34q-12 -25 -15 -41h-122z" />
<glyph unicode="&#xe4;" horiz-adv-x="1361" d="M82 354q0 82 18.5 168t55.5 172q35 84 92 162q57 80 125 135q71 58 159 92q92 35 193 35q39 0 82 -6q33 -4 80 -16q31 -8 71 -23q25 -8 56 -26l108 49h109l-135 -639q-2 -6 -5.5 -22.5t-5.5 -22.5q-2 -10 -5 -30t-5 -30q-8 -41 -10 -61q-4 -41 -4 -49q0 -53 20 -76 q20 -25 52 -25q28 0 55 13q31 14 59 30l45 -82q-12 -12 -59 -41q-39 -25 -74 -41q-27 -12 -88 -28q-47 -12 -102 -12q-92 0 -146 40q-55 43 -55 123q0 41 2 62q4 33 12 71h-14q-33 -61 -76 -126q-35 -53 -84 -92.5t-102 -57.5q-61 -20 -131 -20t-127 28q-53 27 -92 78 q-37 47 -56 119q-18 67 -18 149zM393 352q0 -63 8 -98q10 -47 23 -66q16 -27 35 -34q25 -10 45 -11q47 0 94 39q43 35 88 103q41 61 76 143q33 76 51 162l72 340q-23 29 -56 43q-35 14 -75 14q-59 0 -108.5 -30.5t-90.5 -84.5q-37 -49 -70 -116q-27 -55 -51 -138 q-20 -68 -31 -141q-10 -76 -10 -125zM424 1386q0 66 32.5 105t90.5 39q47 0 79.5 -28.5t32.5 -84.5q0 -40 -12 -67q-12 -29 -26 -43q-18 -18 -39 -25q-29 -8 -45 -8q-53 0 -82 26q-31 28 -31 86zM852 1386q0 66 32.5 105t90.5 39q47 0 79.5 -28.5t32.5 -84.5q0 -40 -12 -67 q-12 -29 -26 -43q-18 -18 -39 -25q-29 -8 -45 -8q-53 0 -82 26q-31 28 -31 86z" />
<glyph unicode="&#xe5;" horiz-adv-x="1361" d="M82 354q0 82 18.5 168t55.5 172q35 84 92 162q57 80 125 135q71 58 159 92q92 35 193 35q39 0 82 -6q33 -4 80 -16q31 -8 71 -23q25 -8 56 -26l108 49h109l-135 -639q-2 -6 -5.5 -22.5t-5.5 -22.5q-2 -10 -5 -30t-5 -30q-8 -41 -10 -61q-4 -41 -4 -49q0 -53 20 -76 q20 -25 52 -25q28 0 55 13q31 14 59 30l45 -82q-12 -12 -59 -41q-39 -25 -74 -41q-27 -12 -88 -28q-47 -12 -102 -12q-92 0 -146 40q-55 43 -55 123q0 41 2 62q4 33 12 71h-14q-33 -61 -76 -126q-35 -53 -84 -92.5t-102 -57.5q-61 -20 -131 -20t-127 28q-53 27 -92 78 q-37 47 -56 119q-18 67 -18 149zM393 352q0 -63 8 -98q10 -47 23 -66q16 -27 35 -34q25 -10 45 -11q47 0 94 39q43 35 88 103q41 61 76 143q33 76 51 162l72 340q-23 29 -56 43q-35 14 -75 14q-59 0 -108.5 -30.5t-90.5 -84.5q-37 -49 -70 -116q-27 -55 -51 -138 q-20 -68 -31 -141q-10 -76 -10 -125zM557 1431.5q0 53.5 18 96.5q16 41 54 69q35 29 78 43.5t96 14.5t96 -14.5t78 -43.5q37 -29 53 -69q18 -43 18.5 -96.5t-18.5 -96.5q-16 -41 -53 -69q-35 -29 -78 -43.5t-96 -14.5t-96 14.5t-78 43.5q-37 29 -54 69q-18 43 -18 96.5z M682 1432q0 -27 10 -52q10 -23 24.5 -35t39.5 -18q23 -6 47 -6t47 6q22 6 37 19q18 14 26 34q10 25 10.5 51.5t-10.5 51.5q-8 18 -26 33q-18 16 -37 20q-23 6 -47.5 6t-46.5 -6q-20 -6 -39 -20q-16 -12 -25 -33q-10 -24 -10 -51z" />
<glyph unicode="&#xe6;" horiz-adv-x="1800" d="M82 354q0 82 18.5 168t55.5 172q35 84 92 162q57 80 125 135q71 58 159 92q92 35 193 35q102 0 186 -31q78 -29 154 -94q76 59 182 94q104 35 226 35q156 0 237.5 -63.5t81.5 -177.5q0 -84 -45 -160t-127 -135q-78 -55 -195 -92q-115 -35 -243 -35h-37q-27 0 -39 2 q-4 -29 -4 -41v-37q0 -120 55 -184q55 -63 168 -64q51 0 94 15q51 16 84 38q55 37 70 52q27 27 51 61q12 -16 18 -39q8 -33 9 -49q0 -37 -25 -78q-29 -45 -72 -76q-53 -37 -127 -57q-80 -23 -182 -22q-182 0 -299 75q-115 74 -151 221h-19q-37 -70 -78 -126q-40 -55 -86 -93 q-51 -41 -104 -57q-66 -20 -133 -20q-70 0 -127 28q-53 27 -92 78q-37 47 -56 119q-18 67 -18 149zM393 352q0 -63 8 -98q10 -47 23 -66q16 -27 35 -34q25 -10 45 -11q39 0 78 27t77 76q33 39 70 108q31 55 57 129q8 49 25 107q18 63 33 106q20 55 43 103q16 33 57 90 q-6 10 -29 33q-6 6 -45 30q-25 15 -55 25q-35 10 -61 10q-59 0 -108.5 -30.5t-90.5 -84.5q-37 -49 -70 -116q-27 -55 -51 -138q-20 -68 -31 -141q-10 -76 -10 -125zM1120 578h19q80 0 141 20q63 20 115 59q47 35 75 91q27 51 27 118q0 61 -27 99q-25 35 -73 34 q-33 0 -64 -18q-37 -23 -59 -47q-29 -33 -53 -72q-8 -12 -43 -88q-14 -31 -35 -96q-11 -30 -23 -100z" />
<glyph unicode="&#xe7;" horiz-adv-x="1079" d="M82 403q0 76 18 158q16 72 58 162q35 76 94 151q47 61 133 125q72 53 168 86q98 33 203 33q86 0 147 -18q63 -18 101 -47q43 -33 59 -68q18 -39 18 -84q0 -29 -14 -63q-10 -29 -43 -54q-33 -27 -78 -41q-43 -14 -115 -14q0 47 -10 102q-8 45 -28 87q-18 37 -45 57t-66 20 q-43 0 -82 -30q-45 -35 -72 -78q-31 -49 -55 -110.5t-43 -129.5q-16 -61 -27 -131q-8 -57 -8 -117q0 -125 57.5 -194.5t168.5 -69.5q57 0 98 15q47 16 78 38q39 29 61 54q28 31 49 61q14 -14 23 -35q8 -23 8 -55q0 -43 -22.5 -82t-73.5 -74q-49 -35 -125 -55 q-80 -23 -182 -22q-84 0 -175 26q-80 23 -145 80q-59 49 -96 131q-37 80 -37 186zM151 -465l27 121q33 -8 69 -12q45 -4 64 -4q31 0 59 6q25 6 47 18q18 10 33 33q12 18 12 47q0 20 -10 36.5t-28 29.5q-23 16 -43 20q-16 4 -54 8l82 180h117l-39 -88q43 -6 74 -20t57 -37 q23 -20 37 -51q14 -33 14 -62q0 -68 -30 -114q-33 -49 -82 -78t-117 -45q-59 -14 -135 -15q-33 0 -76 7q-35 4 -78 20z" />
<glyph unicode="&#xe8;" horiz-adv-x="1095" d="M82 403q0 78 20 158q25 94 60 164q39 78 98 149q61 74 135 127q77 55 172.5 86t208.5 31q150 0 228 -63q82 -66 81 -178q0 -80 -47 -158q-45 -76 -127 -135q-74 -53 -192 -90q-115 -35 -244 -35h-37q-27 0 -39 2q-4 -29 -4 -41v-37q0 -120 56 -184q55 -63 167 -64 q51 0 95 15q45 14 84 38q47 29 69 52q27 27 52 61q16 -20 20 -39q6 -25 6 -49q0 -37 -24 -78q-27 -43 -74 -76q-55 -37 -125 -57q-80 -23 -182 -22q-86 0 -177 26q-82 25 -145 78q-61 51 -98 133q-37 80 -37 186zM414 578h18q80 0 141 20q70 23 115 57q47 35 76 90 q27 51 27 117t-27 99q-29 35 -74 34q-47 0 -94 -37q-45 -35 -82 -98q-37 -61 -61 -135q-29 -86 -39 -147zM428 1548l6 21h301q12 -37 31 -80q16 -39 41 -84l43 -78q20 -33 38 -59l-6 -27h-121q-45 27 -94 66t-96 84q-31 29 -84 86q-36 40 -59 71z" />
<glyph unicode="&#xe9;" horiz-adv-x="1095" d="M82 403q0 78 20 158q25 94 60 164q39 78 98 149q61 74 135 127q77 55 172.5 86t208.5 31q150 0 228 -63q82 -66 81 -178q0 -80 -47 -158q-45 -76 -127 -135q-74 -53 -192 -90q-115 -35 -244 -35h-37q-27 0 -39 2q-4 -29 -4 -41v-37q0 -120 56 -184q55 -63 167 -64 q51 0 95 15q45 14 84 38q47 29 69 52q27 27 52 61q16 -20 20 -39q6 -25 6 -49q0 -37 -24 -78q-27 -43 -74 -76q-55 -37 -125 -57q-80 -23 -182 -22q-86 0 -177 26q-82 25 -145 78q-61 51 -98 133q-37 80 -37 186zM414 578h18q80 0 141 20q70 23 115 57q47 35 76 90 q27 51 27 117t-27 99q-29 35 -74 34q-47 0 -94 -37q-45 -35 -82 -98q-37 -61 -61 -135q-29 -86 -39 -147zM627 1241l6 27q10 10 32.5 35.5t28.5 31.5l66 78q57 72 63 80q12 14 29.5 41t24.5 35h321l-6 -21q-15 -18 -43 -43q-41 -37 -64 -53q-23 -18 -77 -57l-82 -58 q-61 -41 -82 -53q-35 -23 -78 -43h-139z" />
<glyph unicode="&#xea;" horiz-adv-x="1095" d="M82 403q0 78 20 158q25 94 60 164q39 78 98 149q61 74 135 127q77 55 172.5 86t208.5 31q150 0 228 -63q82 -66 81 -178q0 -80 -47 -158q-45 -76 -127 -135q-74 -53 -192 -90q-115 -35 -244 -35h-37q-27 0 -39 2q-4 -29 -4 -41v-37q0 -120 56 -184q55 -63 167 -64 q51 0 95 15q45 14 84 38q47 29 69 52q27 27 52 61q16 -20 20 -39q6 -25 6 -49q0 -37 -24 -78q-27 -43 -74 -76q-55 -37 -125 -57q-80 -23 -182 -22q-86 0 -177 26q-82 25 -145 78q-61 51 -98 133q-37 80 -37 186zM414 578h18q80 0 141 20q70 23 115 57q47 35 76 90 q27 51 27 117t-27 99q-29 35 -74 34q-47 0 -94 -37q-45 -35 -82 -98q-37 -61 -61 -135q-29 -86 -39 -147zM365 1241l6 27l30.5 31.5t36.5 35.5l78 76l80 82q47 51 66 76h276q16 -43 33 -72q20 -41 43 -82l45 -80l39 -67l-6 -27h-129l-18.5 18.5t-22.5 20.5l-50 49l-49 49 q-18 18 -43 47q-59 -45 -61 -47l-70 -49l-33.5 -24.5l-33.5 -24.5l-58 -39h-159z" />
<glyph unicode="&#xeb;" horiz-adv-x="1095" d="M82 403q0 78 20 158q25 94 60 164q39 78 98 149q61 74 135 127q77 55 172.5 86t208.5 31q150 0 228 -63q82 -66 81 -178q0 -80 -47 -158q-45 -76 -127 -135q-74 -53 -192 -90q-115 -35 -244 -35h-37q-27 0 -39 2q-4 -29 -4 -41v-37q0 -120 56 -184q55 -63 167 -64 q51 0 95 15q45 14 84 38q47 29 69 52q27 27 52 61q16 -20 20 -39q6 -25 6 -49q0 -37 -24 -78q-27 -43 -74 -76q-55 -37 -125 -57q-80 -23 -182 -22q-86 0 -177 26q-82 25 -145 78q-61 51 -98 133q-37 80 -37 186zM414 578h18q80 0 141 20q70 23 115 57q47 35 76 90 q27 51 27 117t-27 99q-29 35 -74 34q-47 0 -94 -37q-45 -35 -82 -98q-37 -61 -61 -135q-29 -86 -39 -147zM399 1386q0 66 32.5 105t90.5 39q47 0 79.5 -28.5t32.5 -84.5q0 -40 -12 -67q-12 -29 -26 -43q-18 -18 -39 -25q-29 -8 -45 -8q-53 0 -82 26q-31 28 -31 86zM827 1386 q0 66 32.5 105t90.5 39q47 0 79.5 -28.5t32.5 -84.5q0 -40 -12 -67q-12 -29 -26 -43q-18 -18 -39 -25q-29 -8 -45 -8q-53 0 -82 26q-31 28 -31 86z" />
<glyph unicode="&#xec;" horiz-adv-x="724" d="M117 989l18 109h486l-142 -666q-6 -27 -20 -104q-8 -43 -8 -92q0 -43 18 -68t53 -25q31 0 60 13q23 10 61 34l49 -69q-35 -35 -55 -51q-29 -23 -70 -45q-37 -20 -86 -33q-47 -12 -102 -12q-117 0 -180.5 55t-63.5 155q0 49 8 105q14 98 25 139l80 381q4 16 6 27q0 4 1 13 t3 13q2 8 2 23q0 4 1 8l1 4q0 27 -6 45q-6 16 -18 27q-8 6 -35 10q-29 4 -49 4h-37zM123 1548l6 21h301q12 -37 31 -80q16 -39 41 -84l43 -78q20 -33 38 -59l-6 -27h-121q-45 27 -94 66t-96 84q-31 29 -84 86q-36 40 -59 71z" />
<glyph unicode="&#xed;" horiz-adv-x="724" d="M117 989l18 109h486l-142 -666q-6 -27 -20 -104q-8 -43 -8 -92q0 -43 18 -68t53 -25q31 0 60 13q23 10 61 34l49 -69q-35 -35 -55 -51q-29 -23 -70 -45q-37 -20 -86 -33q-47 -12 -102 -12q-117 0 -180.5 55t-63.5 155q0 49 8 105q14 98 25 139l80 381q4 16 6 27q0 4 1 13 t3 13q2 8 2 23q0 4 1 8l1 4q0 27 -6 45q-6 16 -18 27q-8 6 -35 10q-29 4 -49 4h-37zM338 1241l6 27q10 10 32.5 35.5t28.5 31.5l66 78q57 72 63 80q12 14 29.5 41t24.5 35h321l-6 -21q-15 -18 -43 -43q-41 -37 -64 -53q-23 -18 -77 -57l-82 -58q-61 -41 -82 -53 q-35 -23 -78 -43h-139z" />
<glyph unicode="&#xee;" horiz-adv-x="724" d="M117 989l18 109h486l-142 -666q-6 -27 -20 -104q-8 -43 -8 -92q0 -43 18 -68t53 -25q31 0 60 13q23 10 61 34l49 -69q-35 -35 -55 -51q-29 -23 -70 -45q-37 -20 -86 -33q-47 -12 -102 -12q-117 0 -180.5 55t-63.5 155q0 49 8 105q14 98 25 139l80 381q4 16 6 27q0 4 1 13 t3 13q2 8 2 23q0 4 1 8l1 4q0 27 -6 45q-6 16 -18 27q-8 6 -35 10q-29 4 -49 4h-37zM64 1241l6 27l30.5 31.5t36.5 35.5l78 76l80 82q47 51 66 76h276q16 -43 33 -72q20 -41 43 -82l45 -80l39 -67l-6 -27h-129l-18.5 18.5t-22.5 20.5l-50 49l-49 49q-18 18 -43 47 q-59 -45 -61 -47l-70 -49l-33.5 -24.5l-33.5 -24.5l-58 -39h-159z" />
<glyph unicode="&#xef;" horiz-adv-x="724" d="M117 989l18 109h486l-142 -666q-6 -27 -20 -104q-8 -43 -8 -92q0 -43 18 -68t53 -25q31 0 60 13q23 10 61 34l49 -69q-35 -35 -55 -51q-29 -23 -70 -45q-37 -20 -86 -33q-47 -12 -102 -12q-117 0 -180.5 55t-63.5 155q0 49 8 105q14 98 25 139l80 381q4 16 6 27q0 4 1 13 t3 13q2 8 2 23q0 4 1 8l1 4q0 27 -6 45q-6 16 -18 27q-8 6 -35 10q-29 4 -49 4h-37zM121 1386q0 66 32.5 105t90.5 39q47 0 79.5 -28.5t32.5 -84.5q0 -40 -12 -67q-12 -29 -26 -43q-18 -18 -39 -25q-29 -8 -45 -8q-53 0 -82 26q-31 28 -31 86zM549 1386q0 66 32.5 105 t90.5 39q47 0 79.5 -28.5t32.5 -84.5q0 -40 -12 -67q-12 -29 -26 -43q-18 -18 -39 -25q-29 -8 -45 -8q-53 0 -82 26q-31 28 -31 86z" />
<glyph unicode="&#xf0;" horiz-adv-x="1259" d="M82 410q0 59 16 135q16 74 49 143q35 72 84 137q51 68 117 115q74 53 154 82t190 29q55 0 99 -15q49 -16 79 -41q-16 88 -47 146q-35 66 -82 119l-321 -150l29 143l194 90q-57 39 -102 60q-57 27 -113 43l39 125q86 -20 178 -60q96 -41 164 -90l305 140l-31 -146 l-170 -78q53 -51 109 -123q53 -70 84 -143q35 -84 53 -172q18 -92 19 -199q0 -98 -17 -178q-20 -96 -53 -168q-39 -86 -90 -147q-61 -76 -127 -119q-82 -53 -170 -80q-98 -29 -209 -28q-96 0 -174 26q-76 27 -135.5 80t-90 133t-30.5 191zM393 393q0 -68 13 -117 q12 -51 32 -79q18 -27 51 -43q29 -14 70 -15q55 0 98 25q41 25 78 69q39 49 60 97q20 49 39 114q16 66 22 117q8 78 8 109q0 125 -43 182t-121 57q-53 0 -100 -26q-49 -29 -80 -68q-33 -43 -57.5 -96t-38.5 -111q-16 -63 -23 -114q-8 -74 -8 -101z" />
<glyph unicode="&#xf1;" horiz-adv-x="1374" d="M90 0l172 815q4 16 6 27q0 4 1 13t3 13q2 8 2 23q0 4 1 8l1 4q0 27 -6 45q-6 16 -18 27q-8 6 -35 10q-29 4 -49 4h-37l18 109h455l-23 -219h13q41 61 81.5 106t88 73.5t104.5 45.5q51 14 125 14q66 0 108 -18q47 -20 74 -53t39 -74q12 -43 12 -90q0 -14 -4 -56 q-4 -37 -8 -59l-12 -59l-12 -58l-46 -219q-6 -27 -20 -104q-8 -43 -8 -92q0 -43 18.5 -68t53.5 -25q31 0 59 13q23 10 61 34l49 -69q-35 -35 -55 -51q-29 -23 -69 -45q-37 -20 -86 -33q-47 -12 -103 -12q-117 0 -180.5 55t-63.5 155q0 92 33 244l33 162l10 49l12 60 q8 39 11 63q4 41 4 57q0 10 -4 39q-2 20 -13 39q-6 12 -26 29q-12 10 -43 10q-37 0 -70 -24q-41 -31 -65 -62q-45 -57 -62 -88q-37 -66 -53 -100q-12 -27 -41 -103q-10 -27 -25 -90l-104 -475h-307zM414 1262q10 53 32 100q27 59 60 98q37 45 82 76q43 29 102 29 q55 0 96 -21q53 -27 78 -43l68 -45q29 -20 63 -20q25 0 45 10q25 12 33 22.5t21 34.5q6 12 14 41h123q-14 -57 -33 -102q-23 -53 -57 -99q-37 -47 -78 -73q-45 -29 -99 -29q-59 0 -100 21q-61 31 -80 43l-69 45q-33 20 -66 20q-25 0 -41 -8t-33 -25q-14 -14 -24 -34 q-12 -25 -15 -41h-122z" />
<glyph unicode="&#xf2;" horiz-adv-x="1265" d="M82 410q0 77 18 159q18 86 54 160q35 78 92 150q59 76 129 125q76 53 170 83q95 31 209 31q89 0 166 -24q82 -27 137 -76q58 -52 92 -135q33 -80 33 -195q0 -84 -17 -156q-20 -88 -53 -159q-39 -84 -90 -150q-55 -72 -127 -125q-74 -55 -170 -86q-102 -33 -209 -32 q-98 0 -176 26.5t-137 79.5q-55 49 -88 135.5t-33 188.5zM395 360q0 -127 41 -180t117 -53q57 0 100 31q41 29 80 84q37 52 62 116q27 68 41 138q20 98 26 137q8 59 8 121q0 125 -41 174q-43 53 -114 53q-53 0 -96.5 -30.5t-79.5 -80.5q-29 -39 -62 -114q-25 -55 -45 -133 q-20 -74 -29 -138q-8 -59 -8 -125zM424 1548l6 21h301q12 -37 31 -80q16 -39 41 -84l43 -78q20 -33 38 -59l-6 -27h-121q-45 27 -94 66t-96 84q-31 29 -84 86q-36 40 -59 71z" />
<glyph unicode="&#xf3;" horiz-adv-x="1265" d="M82 410q0 77 18 159q18 86 54 160q35 78 92 150q59 76 129 125q76 53 170 83q95 31 209 31q89 0 166 -24q82 -27 137 -76q58 -52 92 -135q33 -80 33 -195q0 -84 -17 -156q-20 -88 -53 -159q-39 -84 -90 -150q-55 -72 -127 -125q-74 -55 -170 -86q-102 -33 -209 -32 q-98 0 -176 26.5t-137 79.5q-55 49 -88 135.5t-33 188.5zM395 360q0 -127 41 -180t117 -53q57 0 100 31q41 29 80 84q37 52 62 116q27 68 41 138q20 98 26 137q8 59 8 121q0 125 -41 174q-43 53 -114 53q-53 0 -96.5 -30.5t-79.5 -80.5q-29 -39 -62 -114q-25 -55 -45 -133 q-20 -74 -29 -138q-8 -59 -8 -125zM668 1241l6 27q10 10 32.5 35.5t28.5 31.5l66 78q57 72 63 80q12 14 29.5 41t24.5 35h321l-6 -21q-15 -18 -43 -43q-41 -37 -64 -53q-23 -18 -77 -57l-82 -58q-61 -41 -82 -53q-35 -23 -78 -43h-139z" />
<glyph unicode="&#xf4;" horiz-adv-x="1265" d="M82 410q0 77 18 159q18 86 54 160q35 78 92 150q59 76 129 125q76 53 170 83q95 31 209 31q89 0 166 -24q82 -27 137 -76q58 -52 92 -135q33 -80 33 -195q0 -84 -17 -156q-20 -88 -53 -159q-39 -84 -90 -150q-55 -72 -127 -125q-74 -55 -170 -86q-102 -33 -209 -32 q-98 0 -176 26.5t-137 79.5q-55 49 -88 135.5t-33 188.5zM395 360q0 -127 41 -180t117 -53q57 0 100 31q41 29 80 84q37 52 62 116q27 68 41 138q20 98 26 137q8 59 8 121q0 125 -41 174q-43 53 -114 53q-53 0 -96.5 -30.5t-79.5 -80.5q-29 -39 -62 -114q-25 -55 -45 -133 q-20 -74 -29 -138q-8 -59 -8 -125zM402 1241l6 27l30.5 31.5t36.5 35.5l78 76l80 82q47 51 66 76h276q16 -43 33 -72q20 -41 43 -82l45 -80l39 -67l-6 -27h-129l-18.5 18.5t-22.5 20.5l-50 49l-49 49q-18 18 -43 47q-59 -45 -61 -47l-70 -49l-33.5 -24.5l-33.5 -24.5 l-58 -39h-159z" />
<glyph unicode="&#xf5;" horiz-adv-x="1265" d="M82 410q0 77 18 159q18 86 54 160q35 78 92 150q59 76 129 125q76 53 170 83q95 31 209 31q89 0 166 -24q82 -27 137 -76q58 -52 92 -135q33 -80 33 -195q0 -84 -17 -156q-20 -88 -53 -159q-39 -84 -90 -150q-55 -72 -127 -125q-74 -55 -170 -86q-102 -33 -209 -32 q-98 0 -176 26.5t-137 79.5q-55 49 -88 135.5t-33 188.5zM395 360q0 -127 41 -180t117 -53q57 0 100 31q41 29 80 84q37 52 62 116q27 68 41 138q20 98 26 137q8 59 8 121q0 125 -41 174q-43 53 -114 53q-53 0 -96.5 -30.5t-79.5 -80.5q-29 -39 -62 -114q-25 -55 -45 -133 q-20 -74 -29 -138q-8 -59 -8 -125zM377 1262q10 53 32 100q27 59 60 98q37 45 82 76q43 29 102 29q55 0 96 -21q53 -27 78 -43l68 -45q29 -20 63 -20q25 0 45 10q25 12 33 22.5t21 34.5q6 12 14 41h123q-14 -57 -33 -102q-23 -53 -57 -99q-37 -47 -78 -73q-45 -29 -99 -29 q-59 0 -100 21q-61 31 -80 43l-69 45q-33 20 -66 20q-25 0 -41 -8t-33 -25q-14 -14 -24 -34q-12 -25 -15 -41h-122z" />
<glyph unicode="&#xf6;" horiz-adv-x="1265" d="M82 410q0 77 18 159q18 86 54 160q35 78 92 150q59 76 129 125q76 53 170 83q95 31 209 31q89 0 166 -24q82 -27 137 -76q58 -52 92 -135q33 -80 33 -195q0 -84 -17 -156q-20 -88 -53 -159q-39 -84 -90 -150q-55 -72 -127 -125q-74 -55 -170 -86q-102 -33 -209 -32 q-98 0 -176 26.5t-137 79.5q-55 49 -88 135.5t-33 188.5zM395 360q0 -127 41 -180t117 -53q57 0 100 31q41 29 80 84q37 52 62 116q27 68 41 138q20 98 26 137q8 59 8 121q0 125 -41 174q-43 53 -114 53q-53 0 -96.5 -30.5t-79.5 -80.5q-29 -39 -62 -114q-25 -55 -45 -133 q-20 -74 -29 -138q-8 -59 -8 -125zM455 1386q0 66 32.5 105t90.5 39q47 0 79.5 -28.5t32.5 -84.5q0 -40 -12 -67q-12 -29 -26 -43q-18 -18 -39 -25q-29 -8 -45 -8q-53 0 -82 26q-31 28 -31 86zM883 1386q0 66 32.5 105t90.5 39q47 0 79.5 -28.5t32.5 -84.5q0 -40 -12 -67 q-12 -29 -26 -43q-18 -18 -39 -25q-29 -8 -45 -8q-53 0 -82 26q-31 28 -31 86z" />
<glyph unicode="&#xf7;" d="M166 659v146h878v-146h-878zM492 344q0 72 32.5 98.5t81.5 26.5q25 0 45 -6q23 -6 37 -21q16 -16 24.5 -38.5t8.5 -59.5t-8 -59q-8 -20 -24.5 -37t-37 -23t-45.5 -6q-47 0 -82 29q-32 26 -32 96zM492 1120.5q0 69.5 32 96.5q35 29 82 28q25 0 45.5 -6t37 -22.5 t24.5 -36.5q8 -23 8 -60t-8 -59q-8 -20 -24.5 -36.5t-37 -23t-45.5 -6.5q-47 0 -82 29q-32 27 -32 96.5z" />
<glyph unicode="&#xf8;" horiz-adv-x="1265" d="M27 -82l153 188q-51 57 -74 130q-25 76 -24 174q0 77 18 159q18 86 54 160q35 78 92 150q59 76 129 125q76 53 170 83q95 31 209 31q70 0 114 -10q47 -10 103 -35l92 107h154l-146 -179q47 -47 80 -129q31 -77 31 -184q0 -84 -17 -156q-20 -88 -53 -159q-39 -84 -90 -150 q-55 -72 -127 -125q-74 -55 -170 -86q-102 -33 -209 -32q-133 0 -240 53l-94 -115h-155zM395 369l443 542q-20 33 -51 51.5t-72 18.5q-55 0 -97 -29q-41 -31 -77 -78q-35 -47 -64 -112q-27 -59 -45 -131q-16 -57 -26 -137q-11 -76 -11 -125zM420 209q23 -45 53 -62 q37 -20 80 -20q57 0 100 31q41 29 80 84q37 52 62 116q27 68 41 138q20 98 26 137q8 59 8 121v4z" />
<glyph unicode="&#xf9;" horiz-adv-x="1376" d="M117 989l18 109h492l-135 -613l-13 -55q-2 -10 -5 -29.5t-5 -29.5q-4 -20 -8 -57.5t-4 -45.5q0 -43 18 -71q18 -27 70 -27q45 0 92 41q53 47 92 104q47 70 78 143.5t51 157.5l109 482h305l-139 -666q-6 -27 -21 -104q-8 -43 -8 -92q0 -43 18.5 -68t53.5 -25q33 0 59 13 q23 10 61 34l50 -69q-35 -35 -56 -51q-29 -23 -69 -45q-37 -20 -86 -33q-45 -12 -103 -12q-66 0 -114 16q-45 16 -72 41q-31 29 -41 63q-12 37 -12 76q0 2 1 9.5t1 11.5t1 12t1 12t1 12.5t1 12.5q0 8 4 20h-17q-53 -74 -88 -116q-37 -45 -94 -89q-55 -41 -104 -59 q-55 -20 -131 -20q-65 0 -111 18q-43 16 -72 49q-27 29 -39 74q-12 43 -12 86q0 51 12 113l23 112l74 361q4 16 7 41.5t5 33.5q6 35 6 52q0 43 -24.5 55t-83.5 12h-37zM418 1548l6 21h301q12 -37 31 -80q16 -39 41 -84l43 -78q20 -33 38 -59l-6 -27h-121q-45 27 -94 66 t-96 84q-31 29 -84 86q-36 40 -59 71z" />
<glyph unicode="&#xfa;" horiz-adv-x="1376" d="M117 989l18 109h492l-135 -613l-13 -55q-2 -10 -5 -29.5t-5 -29.5q-4 -20 -8 -57.5t-4 -45.5q0 -43 18 -71q18 -27 70 -27q45 0 92 41q53 47 92 104q47 70 78 143.5t51 157.5l109 482h305l-139 -666q-6 -27 -21 -104q-8 -43 -8 -92q0 -43 18.5 -68t53.5 -25q33 0 59 13 q23 10 61 34l50 -69q-35 -35 -56 -51q-29 -23 -69 -45q-37 -20 -86 -33q-45 -12 -103 -12q-66 0 -114 16q-45 16 -72 41q-31 29 -41 63q-12 37 -12 76q0 2 1 9.5t1 11.5t1 12t1 12t1 12.5t1 12.5q0 8 4 20h-17q-53 -74 -88 -116q-37 -45 -94 -89q-55 -41 -104 -59 q-55 -20 -131 -20q-65 0 -111 18q-43 16 -72 49q-27 29 -39 74q-12 43 -12 86q0 51 12 113l23 112l74 361q4 16 7 41.5t5 33.5q6 35 6 52q0 43 -24.5 55t-83.5 12h-37zM682 1241l6 27q10 10 32.5 35.5t28.5 31.5l66 78q57 72 63 80q12 14 29.5 41t24.5 35h321l-6 -21 q-15 -18 -43 -43q-41 -37 -64 -53q-23 -18 -77 -57l-82 -58q-61 -41 -82 -53q-35 -23 -78 -43h-139z" />
<glyph unicode="&#xfb;" horiz-adv-x="1376" d="M117 989l18 109h492l-135 -613l-13 -55q-2 -10 -5 -29.5t-5 -29.5q-4 -20 -8 -57.5t-4 -45.5q0 -43 18 -71q18 -27 70 -27q45 0 92 41q53 47 92 104q47 70 78 143.5t51 157.5l109 482h305l-139 -666q-6 -27 -21 -104q-8 -43 -8 -92q0 -43 18.5 -68t53.5 -25q33 0 59 13 q23 10 61 34l50 -69q-35 -35 -56 -51q-29 -23 -69 -45q-37 -20 -86 -33q-45 -12 -103 -12q-66 0 -114 16q-45 16 -72 41q-31 29 -41 63q-12 37 -12 76q0 2 1 9.5t1 11.5t1 12t1 12t1 12.5t1 12.5q0 8 4 20h-17q-53 -74 -88 -116q-37 -45 -94 -89q-55 -41 -104 -59 q-55 -20 -131 -20q-65 0 -111 18q-43 16 -72 49q-27 29 -39 74q-12 43 -12 86q0 51 12 113l23 112l74 361q4 16 7 41.5t5 33.5q6 35 6 52q0 43 -24.5 55t-83.5 12h-37zM445 1241l6 27l30.5 31.5t36.5 35.5l78 76l80 82q47 51 66 76h276q16 -43 33 -72q20 -41 43 -82l45 -80 l39 -67l-6 -27h-129l-18.5 18.5t-22.5 20.5l-50 49l-49 49q-18 18 -43 47q-59 -45 -61 -47l-70 -49l-33.5 -24.5l-33.5 -24.5l-58 -39h-159z" />
<glyph unicode="&#xfc;" horiz-adv-x="1376" d="M117 989l18 109h492l-135 -613l-13 -55q-2 -10 -5 -29.5t-5 -29.5q-4 -20 -8 -57.5t-4 -45.5q0 -43 18 -71q18 -27 70 -27q45 0 92 41q53 47 92 104q47 70 78 143.5t51 157.5l109 482h305l-139 -666q-6 -27 -21 -104q-8 -43 -8 -92q0 -43 18.5 -68t53.5 -25q33 0 59 13 q23 10 61 34l50 -69q-35 -35 -56 -51q-29 -23 -69 -45q-37 -20 -86 -33q-45 -12 -103 -12q-66 0 -114 16q-45 16 -72 41q-31 29 -41 63q-12 37 -12 76q0 2 1 9.5t1 11.5t1 12t1 12t1 12.5t1 12.5q0 8 4 20h-17q-53 -74 -88 -116q-37 -45 -94 -89q-55 -41 -104 -59 q-55 -20 -131 -20q-65 0 -111 18q-43 16 -72 49q-27 29 -39 74q-12 43 -12 86q0 51 12 113l23 112l74 361q4 16 7 41.5t5 33.5q6 35 6 52q0 43 -24.5 55t-83.5 12h-37zM496 1386q0 66 32.5 105t90.5 39q47 0 79.5 -28.5t32.5 -84.5q0 -40 -12 -67q-12 -29 -26 -43 q-18 -18 -39 -25q-29 -8 -45 -8q-53 0 -82 26q-31 28 -31 86zM924 1386q0 66 32.5 105t90.5 39q47 0 79.5 -28.5t32.5 -84.5q0 -40 -12 -67q-12 -29 -26 -43q-18 -18 -39 -25q-29 -8 -45 -8q-53 0 -82 26q-31 28 -31 86z" />
<glyph unicode="&#xfd;" horiz-adv-x="1198" d="M-344 -455l31 115q25 -9 67 -18q39 -8 107 -9q95 0 172 25q80 25 145 68q68 43 125 100q63 63 113 121l-256 934q-18 61 -49 84q-33 25 -93 24h-20l25 109h401l135 -531q2 -12 9 -43.5t12 -50.5q6 -29 20 -106l9 -46t9.5 -54.5t5.5 -43t3 -28.5h6q41 55 115 165 q53 80 94 162q45 88 65 150q23 66 23 129q0 70 -33 104q-33 37 -94 37q0 37 12 72q12 33 35 55q27 27 51 37q31 12 66 12q82 0 125 -47t43 -127q0 -84 -27 -170q-25 -78 -78 -188q-43 -90 -121 -211q-57 -92 -161 -238l-140 -190q-63 -84 -127 -158q-59 -68 -127 -123 q-63 -51 -137 -88q-68 -35 -158 -53q-76 -16 -190 -17q-53 0 -115 11q-59 10 -98 26zM502 1241l6 27q10 10 32.5 35.5t28.5 31.5l66 78q57 72 63 80q12 14 29.5 41t24.5 35h321l-6 -21q-15 -18 -43 -43q-41 -37 -64 -53q-23 -18 -77 -57l-82 -58q-61 -41 -82 -53 q-35 -23 -78 -43h-139z" />
<glyph unicode="&#xfe;" horiz-adv-x="1275" d="M-61 -492l376 1766q0 6 2 12t5 14q0 4 1 13.5t3 13.5q4 16 4 23v12q0 27 -6 45q-6 16 -19 27q-12 8 -35 12q-14 2 -49 2h-47l19 108h497l-82 -389q-4 -25 -12 -49q-4 -14 -10 -30.5l-11 -30.5q-6 -18 -13 -35.5t-11 -32.5q-6 -14 -11 -32.5t-12 -34.5l-22 -58 q-12 -33 -14 -39h14q23 43 72 117q37 55 81 94q43 37 103 60q61 23 133 22q68 0 123 -24.5t94 -69.5t62 -117q20 -63 20 -159q0 -74 -18 -160q-18 -88 -52 -170q-29 -74 -88 -164q-52 -80 -123 -141q-66 -57 -159 -97q-90 -37 -195 -36q-63 0 -115 12q-53 12 -94 35 q0 -8 -4 -33q-2 -6 -3 -15.5t-1 -15.5q-2 -6 -4 -17.5t-4 -17.5l-29 -137q-4 -16 -6 -27q0 -4 -1 -13t-3 -13q-2 -8 -2 -23q0 -4 -1 -8l-1 -4q0 -27 6 -45q6 -16 18 -27q12 -8 35 -12q14 -2 49 -2h78l-18 -109h-520zM391 168q9 -9 25 -18q2 -2 14 -9.5t19 -11.5l43 -12 q20 -6 45 -6q57 0 102 30q46 31 86 80q37 45 70 115q20 43 49 133q20 66 30 137q10 76 11 127q0 41 -6 82q-6 47 -17 70q-12 33 -35 51q-20 18 -53 18q-31 0 -67.5 -20.5t-65.5 -50.5q-37 -41 -59 -76q-27 -41 -50 -90q-27 -57 -38 -94q-14 -41 -25 -88z" />
<glyph unicode="&#xff;" horiz-adv-x="1198" d="M-344 -455l31 115q25 -9 67 -18q39 -8 107 -9q95 0 172 25q80 25 145 68q68 43 125 100q63 63 113 121l-256 934q-18 61 -49 84q-33 25 -93 24h-20l25 109h401l135 -531q2 -12 9 -43.5t12 -50.5q6 -29 20 -106l9 -46t9.5 -54.5t5.5 -43t3 -28.5h6q41 55 115 165 q53 80 94 162q45 88 65 150q23 66 23 129q0 70 -33 104q-33 37 -94 37q0 37 12 72q12 33 35 55q27 27 51 37q31 12 66 12q82 0 125 -47t43 -127q0 -84 -27 -170q-25 -78 -78 -188q-43 -90 -121 -211q-57 -92 -161 -238l-140 -190q-63 -84 -127 -158q-59 -68 -127 -123 q-63 -51 -137 -88q-68 -35 -158 -53q-76 -16 -190 -17q-53 0 -115 11q-59 10 -98 26zM322 1386q0 66 32.5 105t90.5 39q47 0 79.5 -28.5t32.5 -84.5q0 -40 -12 -67q-12 -29 -26 -43q-18 -18 -39 -25q-29 -8 -45 -8q-53 0 -82 26q-31 28 -31 86zM750 1386q0 66 32.5 105 t90.5 39q47 0 79.5 -28.5t32.5 -84.5q0 -40 -12 -67q-12 -29 -26 -43q-18 -18 -39 -25q-29 -8 -45 -8q-53 0 -82 26q-31 28 -31 86z" />
<glyph unicode="&#x100;" horiz-adv-x="1540" d="M-100 0l22 109h43q28 0 49 6q18 6 41 24q22 18 43.5 49t48.5 80l695 1194h280l172 -1206q12 -55 13 -59q10 -33 22 -47.5t37 -28.5q23 -12 53 -12h37l-22 -109h-676l22 109h47q66 0 105 20.5t39 65.5v34q0 10 -4 31l-31 221h-498l-100 -184q-16 -27 -29 -66 q-10 -31 -10 -49q0 -37 29 -55q28 -18 86 -18h41l-23 -109h-532zM508 606h414l-37 344q-2 25 -5 46.5t-6 37.5q-2 27 -6 76q0 8 -2 23.5t-3 28t-1 22.5q-4 45 -4 71q-20 -49 -31 -69l-30 -64q-8 -14 -12.5 -23t-11.5 -20.5l-15 -25.5l-47 -84zM691 1579l34 162h594l-34 -162 h-594z" />
<glyph unicode="&#x101;" horiz-adv-x="1361" d="M82 354q0 82 18.5 168t55.5 172q35 84 92 162q57 80 125 135q71 58 159 92q92 35 193 35q39 0 82 -6q33 -4 80 -16q31 -8 71 -23q25 -8 56 -26l108 49h109l-135 -639q-2 -6 -5.5 -22.5t-5.5 -22.5q-2 -10 -5 -30t-5 -30q-8 -41 -10 -61q-4 -41 -4 -49q0 -53 20 -76 q20 -25 52 -25q28 0 55 13q31 14 59 30l45 -82q-12 -12 -59 -41q-39 -25 -74 -41q-27 -12 -88 -28q-47 -12 -102 -12q-92 0 -146 40q-55 43 -55 123q0 41 2 62q4 33 12 71h-14q-33 -61 -76 -126q-35 -53 -84 -92.5t-102 -57.5q-61 -20 -131 -20t-127 28q-53 27 -92 78 q-37 47 -56 119q-18 67 -18 149zM393 352q0 -63 8 -98q10 -47 23 -66q16 -27 35 -34q25 -10 45 -11q47 0 94 39q43 35 88 103q41 61 76 143q33 76 51 162l72 340q-23 29 -56 43q-35 14 -75 14q-59 0 -108.5 -30.5t-90.5 -84.5q-37 -49 -70 -116q-27 -55 -51 -138 q-20 -68 -31 -141q-10 -76 -10 -125zM461 1241l34 162h594l-34 -162h-594z" />
<glyph unicode="&#x102;" horiz-adv-x="1540" d="M-100 0l22 109h43q28 0 49 6q18 6 41 24q22 18 43.5 49t48.5 80l695 1194h280l172 -1206q12 -55 13 -59q10 -33 22 -47.5t37 -28.5q23 -12 53 -12h37l-22 -109h-676l22 109h47q66 0 105 20.5t39 65.5v34q0 10 -4 31l-31 221h-498l-100 -184q-16 -27 -29 -66 q-10 -31 -10 -49q0 -37 29 -55q28 -18 86 -18h41l-23 -109h-532zM508 606h414l-37 344q-2 25 -5 46.5t-6 37.5q-2 27 -6 76q0 8 -2 23.5t-3 28t-1 22.5q-4 45 -4 71q-20 -49 -31 -69l-30 -64q-8 -14 -12.5 -23t-11.5 -20.5l-15 -25.5l-47 -84zM707 1901h135q10 -74 53 -107 q45 -33 119 -33q76 0 129 33q55 35 86 107h127q-14 -55 -47 -117q-27 -51 -78 -103q-47 -47 -106 -73q-63 -29 -134 -29q-63 0 -118 23q-51 20 -86 65q-33 43 -56 103q-20 57 -24 131z" />
<glyph unicode="&#x103;" horiz-adv-x="1361" d="M82 354q0 82 18.5 168t55.5 172q35 84 92 162q57 80 125 135q71 58 159 92q92 35 193 35q39 0 82 -6q33 -4 80 -16q31 -8 71 -23q25 -8 56 -26l108 49h109l-135 -639q-2 -6 -5.5 -22.5t-5.5 -22.5q-2 -10 -5 -30t-5 -30q-8 -41 -10 -61q-4 -41 -4 -49q0 -53 20 -76 q20 -25 52 -25q28 0 55 13q31 14 59 30l45 -82q-12 -12 -59 -41q-39 -25 -74 -41q-27 -12 -88 -28q-47 -12 -102 -12q-92 0 -146 40q-55 43 -55 123q0 41 2 62q4 33 12 71h-14q-33 -61 -76 -126q-35 -53 -84 -92.5t-102 -57.5q-61 -20 -131 -20t-127 28q-53 27 -92 78 q-37 47 -56 119q-18 67 -18 149zM393 352q0 -63 8 -98q10 -47 23 -66q16 -27 35 -34q25 -10 45 -11q47 0 94 39q43 35 88 103q41 61 76 143q33 76 51 162l72 340q-23 29 -56 43q-35 14 -75 14q-59 0 -108.5 -30.5t-90.5 -84.5q-37 -49 -70 -116q-27 -55 -51 -138 q-20 -68 -31 -141q-10 -76 -10 -125zM475 1563h135q10 -74 53 -107q45 -33 119 -33q76 0 129 33q55 35 86 107h127q-14 -55 -47 -117q-27 -51 -78 -103q-47 -47 -106 -73q-63 -29 -134 -29q-63 0 -118 23q-51 20 -86 65q-33 43 -56 103q-20 57 -24 131z" />
<glyph unicode="&#x104;" horiz-adv-x="1540" d="M-100 0l22 109h43q28 0 49 6q18 6 41 24q22 18 43.5 49t48.5 80l695 1194h280l172 -1206q12 -55 13 -59q10 -33 22 -47.5t37 -28.5q23 -12 53 -12h37l-22 -109h-676l22 109h47q66 0 105 20.5t39 65.5v34q0 10 -4 31l-31 221h-498l-100 -184q-16 -27 -29 -66 q-10 -31 -10 -49q0 -37 29 -55q28 -18 86 -18h41l-23 -109h-532zM508 606h414l-37 344q-2 25 -5 46.5t-6 37.5q-2 27 -6 76q0 8 -2 23.5t-3 28t-1 22.5q-4 45 -4 71q-20 -49 -31 -69l-30 -64q-8 -14 -12.5 -23t-11.5 -20.5l-15 -25.5l-47 -84zM795 -283q0 51 23 101 q18 41 61 80q39 37 96 61q59 27 123 41h158q-37 -10 -78 -31q-53 -27 -80 -49q-39 -33 -61 -70q-25 -39 -25 -90q0 -47 33 -75.5t84 -28.5q16 0 61 4q35 4 72 12l-27 -131q-37 -14 -84 -24q-41 -8 -94 -9q-123 0 -192.5 53.5t-69.5 155.5z" />
<glyph unicode="&#x105;" horiz-adv-x="1361" d="M82 354q0 82 18.5 168t55.5 172q35 84 92 162q57 80 125 135q71 58 159 92q92 35 193 35q39 0 82 -6q33 -4 80 -16q31 -8 71 -23q25 -8 56 -26l108 49h109l-135 -639q-2 -6 -5.5 -22.5t-5.5 -22.5q-2 -10 -5 -30t-5 -30q-8 -41 -10 -61q-4 -41 -4 -49q0 -53 20 -76 q20 -25 52 -25q28 0 55 13q31 14 59 30l45 -82q-12 -12 -59 -41q-39 -25 -74 -41q-27 -12 -88 -28q-47 -12 -102 -12q-92 0 -146 40q-55 43 -55 123q0 41 2 62q4 33 12 71h-14q-33 -61 -76 -126q-35 -53 -84 -92.5t-102 -57.5q-61 -20 -131 -20t-127 28q-53 27 -92 78 q-37 47 -56 119q-18 67 -18 149zM393 352q0 -63 8 -98q10 -47 23 -66q16 -27 35 -34q25 -10 45 -11q47 0 94 39q43 35 88 103q41 61 76 143q33 76 51 162l72 340q-23 29 -56 43q-35 14 -75 14q-59 0 -108.5 -30.5t-90.5 -84.5q-37 -49 -70 -116q-27 -55 -51 -138 q-20 -68 -31 -141q-10 -76 -10 -125zM643 -283q0 51 23 101q18 41 61 80q39 37 96 61q59 27 123 41h158q-37 -10 -78 -31q-53 -27 -80 -49q-39 -33 -61 -70q-25 -39 -25 -90q0 -47 33 -75.5t84 -28.5q16 0 61 4q35 4 72 12l-27 -131q-37 -14 -84 -24q-41 -8 -94 -9 q-123 0 -192.5 53.5t-69.5 155.5z" />
<glyph unicode="&#x106;" horiz-adv-x="1366" d="M129 530q0 117 29 242q27 113 84 225q55 108 135 197q90 100 180 158q106 68 219 102q120 37 258 37q101 0 178 -18q84 -20 127 -48q51 -33 76 -77.5t25 -100.5q0 -45 -22.5 -79.5t-59.5 -57.5q-35 -20 -92 -35q-53 -12 -115 -12q0 43 -6 94q-6 52 -25 98q-16 39 -53 74 q-35 31 -90 31q-82 0 -150 -37q-74 -39 -125 -100q-61 -70 -100 -148q-35 -66 -72 -178q-29 -86 -45 -190.5t-16 -188.5q0 -176 88 -270q90 -96 266 -96q66 0 127 16q55 14 103 43q51 31 80 59q37 37 59 68q10 -8 25 -29q10 -14 10 -41q0 -51 -31 -102q-29 -51 -92 -94 q-57 -41 -150 -66q-96 -27 -204 -26q-145 0 -263 36q-115 37 -194 107q-78 70 -123 174q-41 96 -41 233zM922 1579l6 27q10 10 32.5 35.5t28.5 31.5l66 78q57 72 63 80q12 14 29.5 41t24.5 35h321l-6 -21q-15 -18 -43 -43q-41 -37 -64 -53q-23 -18 -77 -57l-82 -58 q-61 -41 -82 -53q-35 -23 -78 -43h-139z" />
<glyph unicode="&#x107;" horiz-adv-x="1079" d="M82 403q0 76 18 158q16 72 58 162q35 76 94 151q47 61 133 125q72 53 168 86q98 33 203 33q86 0 147 -18q63 -18 101 -47q43 -33 59 -68q18 -39 18 -84q0 -29 -14 -63q-10 -29 -43 -54q-33 -27 -78 -41q-43 -14 -115 -14q0 47 -10 102q-8 45 -28 87q-18 37 -45 57t-66 20 q-43 0 -82 -30q-45 -35 -72 -78q-31 -49 -55 -110.5t-43 -129.5q-16 -61 -27 -131q-8 -57 -8 -117q0 -125 57.5 -194.5t168.5 -69.5q57 0 98 15q47 16 78 38q39 29 61 54q28 31 49 61q14 -14 23 -35q8 -23 8 -55q0 -43 -22.5 -82t-73.5 -74q-49 -35 -125 -55 q-80 -23 -182 -22q-84 0 -175 26q-80 23 -145 80q-59 49 -96 131q-37 80 -37 186zM658 1241l6 27q10 10 32.5 35.5t28.5 31.5l66 78q57 72 63 80q12 14 29.5 41t24.5 35h321l-6 -21q-15 -18 -43 -43q-41 -37 -64 -53q-23 -18 -77 -57l-82 -58q-61 -41 -82 -53 q-35 -23 -78 -43h-139z" />
<glyph unicode="&#x108;" horiz-adv-x="1366" d="M129 530q0 117 29 242q27 113 84 225q55 108 135 197q90 100 180 158q106 68 219 102q120 37 258 37q101 0 178 -18q84 -20 127 -48q51 -33 76 -77.5t25 -100.5q0 -45 -22.5 -79.5t-59.5 -57.5q-35 -20 -92 -35q-53 -12 -115 -12q0 43 -6 94q-6 52 -25 98q-16 39 -53 74 q-35 31 -90 31q-82 0 -150 -37q-74 -39 -125 -100q-61 -70 -100 -148q-35 -66 -72 -178q-29 -86 -45 -190.5t-16 -188.5q0 -176 88 -270q90 -96 266 -96q66 0 127 16q55 14 103 43q51 31 80 59q37 37 59 68q10 -8 25 -29q10 -14 10 -41q0 -51 -31 -102q-29 -51 -92 -94 q-57 -41 -150 -66q-96 -27 -204 -26q-145 0 -263 36q-115 37 -194 107q-78 70 -123 174q-41 96 -41 233zM643 1579l6 27l30.5 31.5t36.5 35.5l78 76l80 82q47 51 66 76h276q16 -43 33 -72q20 -41 43 -82l45 -80l39 -67l-6 -27h-129l-18.5 18.5t-22.5 20.5l-50 49l-49 49 q-18 18 -43 47q-59 -45 -61 -47l-70 -49l-33.5 -24.5l-33.5 -24.5l-58 -39h-159z" />
<glyph unicode="&#x109;" horiz-adv-x="1079" d="M82 403q0 76 18 158q16 72 58 162q35 76 94 151q47 61 133 125q72 53 168 86q98 33 203 33q86 0 147 -18q63 -18 101 -47q43 -33 59 -68q18 -39 18 -84q0 -29 -14 -63q-10 -29 -43 -54q-33 -27 -78 -41q-43 -14 -115 -14q0 47 -10 102q-8 45 -28 87q-18 37 -45 57t-66 20 q-43 0 -82 -30q-45 -35 -72 -78q-31 -49 -55 -110.5t-43 -129.5q-16 -61 -27 -131q-8 -57 -8 -117q0 -125 57.5 -194.5t168.5 -69.5q57 0 98 15q47 16 78 38q39 29 61 54q28 31 49 61q14 -14 23 -35q8 -23 8 -55q0 -43 -22.5 -82t-73.5 -74q-49 -35 -125 -55 q-80 -23 -182 -22q-84 0 -175 26q-80 23 -145 80q-59 49 -96 131q-37 80 -37 186zM402 1241l6 27l30.5 31.5t36.5 35.5l78 76l80 82q47 51 66 76h276q16 -43 33 -72q20 -41 43 -82l45 -80l39 -67l-6 -27h-129l-18.5 18.5t-22.5 20.5l-50 49l-49 49q-18 18 -43 47 q-59 -45 -61 -47l-70 -49l-33.5 -24.5l-33.5 -24.5l-58 -39h-159z" />
<glyph unicode="&#x10a;" horiz-adv-x="1366" d="M129 530q0 117 29 242q27 113 84 225q55 108 135 197q90 100 180 158q106 68 219 102q120 37 258 37q101 0 178 -18q84 -20 127 -48q51 -33 76 -77.5t25 -100.5q0 -45 -22.5 -79.5t-59.5 -57.5q-35 -20 -92 -35q-53 -12 -115 -12q0 43 -6 94q-6 52 -25 98q-16 39 -53 74 q-35 31 -90 31q-82 0 -150 -37q-74 -39 -125 -100q-61 -70 -100 -148q-35 -66 -72 -178q-29 -86 -45 -190.5t-16 -188.5q0 -176 88 -270q90 -96 266 -96q66 0 127 16q55 14 103 43q51 31 80 59q37 37 59 68q10 -8 25 -29q10 -14 10 -41q0 -51 -31 -102q-29 -51 -92 -94 q-57 -41 -150 -66q-96 -27 -204 -26q-145 0 -263 36q-115 37 -194 107q-78 70 -123 174q-41 96 -41 233zM890 1747q0 47 14.5 75.5t43.5 53.5q20 18 59 29q37 10 74 10q33 0 63 -6q23 -4 52 -25q27 -18 37 -39q12 -25 12 -59q0 -41 -17 -74q-14 -29 -43 -51 q-27 -20 -63.5 -30.5t-71.5 -10.5q-27 0 -63 8q-29 6 -51 23q-18 14 -33 41q-13 24 -13 55z" />
<glyph unicode="&#x10b;" horiz-adv-x="1079" d="M82 403q0 76 18 158q16 72 58 162q35 76 94 151q47 61 133 125q72 53 168 86q98 33 203 33q86 0 147 -18q63 -18 101 -47q43 -33 59 -68q18 -39 18 -84q0 -29 -14 -63q-10 -29 -43 -54q-33 -27 -78 -41q-43 -14 -115 -14q0 47 -10 102q-8 45 -28 87q-18 37 -45 57t-66 20 q-43 0 -82 -30q-45 -35 -72 -78q-31 -49 -55 -110.5t-43 -129.5q-16 -61 -27 -131q-8 -57 -8 -117q0 -125 57.5 -194.5t168.5 -69.5q57 0 98 15q47 16 78 38q39 29 61 54q28 31 49 61q14 -14 23 -35q8 -23 8 -55q0 -43 -22.5 -82t-73.5 -74q-49 -35 -125 -55 q-80 -23 -182 -22q-84 0 -175 26q-80 23 -145 80q-59 49 -96 131q-37 80 -37 186zM622 1409q0 47 14.5 75.5t43.5 53.5q20 18 59 29q37 10 74 10q33 0 63 -6q23 -4 52 -25q27 -18 37 -39q12 -25 12 -59q0 -41 -17 -74q-14 -29 -43 -51q-27 -20 -63.5 -30.5t-71.5 -10.5 q-27 0 -63 8q-29 6 -51 23q-18 14 -33 41q-13 24 -13 55z" />
<glyph unicode="&#x10c;" horiz-adv-x="1366" d="M129 530q0 117 29 242q27 113 84 225q55 108 135 197q90 100 180 158q106 68 219 102q120 37 258 37q101 0 178 -18q84 -20 127 -48q51 -33 76 -77.5t25 -100.5q0 -45 -22.5 -79.5t-59.5 -57.5q-35 -20 -92 -35q-53 -12 -115 -12q0 43 -6 94q-6 52 -25 98q-16 39 -53 74 q-35 31 -90 31q-82 0 -150 -37q-74 -39 -125 -100q-61 -70 -100 -148q-35 -66 -72 -178q-29 -86 -45 -190.5t-16 -188.5q0 -176 88 -270q90 -96 266 -96q66 0 127 16q55 14 103 43q51 31 80 59q37 37 59 68q10 -8 25 -29q10 -14 10 -41q0 -51 -31 -102q-29 -51 -92 -94 q-57 -41 -150 -66q-96 -27 -204 -26q-145 0 -263 36q-115 37 -194 107q-78 70 -123 174q-41 96 -41 233zM731 1880l6 27h129q18 -16 41 -39l49 -49l49 -51q31 -31 43 -46l62 46l69 51l34 24.5l34 24.5l57 39h160l-6 -27l-30.5 -31.5t-37.5 -35.5q-57 -55 -77 -76l-78 -82 q-57 -61 -68 -76h-276q-16 43 -33 72q-8 18 -43 80q-10 18 -20.5 39.5t-22.5 42.5q-16 32 -41 67z" />
<glyph unicode="&#x10d;" horiz-adv-x="1079" d="M82 403q0 76 18 158q16 72 58 162q35 76 94 151q47 61 133 125q72 53 168 86q98 33 203 33q86 0 147 -18q63 -18 101 -47q43 -33 59 -68q18 -39 18 -84q0 -29 -14 -63q-10 -29 -43 -54q-33 -27 -78 -41q-43 -14 -115 -14q0 47 -10 102q-8 45 -28 87q-18 37 -45 57t-66 20 q-43 0 -82 -30q-45 -35 -72 -78q-31 -49 -55 -110.5t-43 -129.5q-16 -61 -27 -131q-8 -57 -8 -117q0 -125 57.5 -194.5t168.5 -69.5q57 0 98 15q47 16 78 38q39 29 61 54q28 31 49 61q14 -14 23 -35q8 -23 8 -55q0 -43 -22.5 -82t-73.5 -74q-49 -35 -125 -55 q-80 -23 -182 -22q-84 0 -175 26q-80 23 -145 80q-59 49 -96 131q-37 80 -37 186zM436 1542l6 27h129q18 -16 41 -39l49 -49l49 -51q31 -31 43 -46l62 46l69 51l34 24.5l34 24.5l57 39h160l-6 -27l-30.5 -31.5t-37.5 -35.5q-57 -55 -77 -76l-78 -82q-57 -61 -68 -76h-276 q-16 43 -33 72q-8 18 -43 80q-10 18 -20.5 39.5t-22.5 42.5q-16 32 -41 67z" />
<glyph unicode="&#x10e;" horiz-adv-x="1572" d="M-49 0l22 109h29q20 0 61 4q31 2 58 16q23 10 43 39q16 23 26 63l213 1006l3 9q2 9 4 16q2 10 2 22q0 25 -11 37q-10 14 -30 20q-23 8 -47 11q-18 2 -60 2h-26l22 108h655q145 0 263 -37q115 -37 194 -106q78 -68 121 -174q43 -104 43 -240q0 -123 -25 -237 q-23 -106 -75 -215q-47 -96 -123 -183q-74 -82 -168 -143q-92 -59 -215 -94q-117 -33 -258 -33h-721zM492 127h92q143 0 258 59q113 57 190 164q82 111 119 250q41 152 41 322q0 106 -25 186q-23 74 -71 129q-45 51 -113 75.5t-149 24.5h-86zM608 1880l6 27h129 q18 -16 41 -39l49 -49l49 -51q31 -31 43 -46l62 46l69 51l34 24.5l34 24.5l57 39h160l-6 -27l-30.5 -31.5t-37.5 -35.5q-57 -55 -77 -76l-78 -82q-57 -61 -68 -76h-276q-16 43 -33 72q-8 18 -43 80q-10 18 -20.5 39.5t-22.5 42.5q-16 32 -41 67z" />
<glyph unicode="&#x10f;" horiz-adv-x="1361" d="M92 354q0 82 18.5 168t55.5 172q35 80 90 162q52 77 123 135q72 59 155 92q88 35 187 35q59 0 112 -12q43 -10 92 -37q3 12 7 31q0 6 2 17t4 18q2 12 6 32l6 25l18 82q0 6 2.5 12t4.5 14q0 4 1 13.5t3 13.5q4 16 4 23v12q0 27 -6 45q-6 16 -19 27q-12 8 -35 12 q-14 2 -49 2h-47l19 108h493l-237 -1116q-2 -20 -9 -43q-2 -10 -5 -29.5t-5 -27.5q-4 -18 -8 -59q-4 -37 -4 -48q0 -47 22.5 -69.5t49.5 -22.5q29 0 57 15l57 28l45 -80q-43 -33 -61 -45q-29 -18 -74 -39q-27 -12 -88 -28q-45 -12 -100 -12q-41 0 -82 10q-35 8 -64 30 q-25 20 -41 52q-14 29 -14 71v33q0 4 2 14.5t2 16.5q0 10 4 31q2 10 6 38h-12q-37 -80 -80 -135q-41 -53 -90 -92q-47 -39 -102 -53q-59 -16 -117 -16q-80 0 -135 30q-61 35 -94 80q-33 47 -54 121q-16 59 -16 143zM403 352q0 -63 8 -98q10 -43 23 -64q16 -27 34.5 -37 t45.5 -10q47 0 92 39q51 45 90 103q43 66 76 141q31 74 51 164l72 340q-20 27 -60 43q-35 14 -75 14q-57 0 -107 -31q-45 -29 -88 -84q-39 -51 -69.5 -118.5t-51.5 -135.5q-22 -71 -31 -141q-10 -78 -10 -125zM1372 1229l6 26q23 47 68 150q29 63 57 151h258l-6 -20 q-39 -57 -51 -72q-41 -53 -64 -80l-71 -81q-37 -40 -74 -74h-123z" />
<glyph unicode="&#x110;" horiz-adv-x="1572" d="M-49 0l22 109h29q20 0 61 4q31 2 58 16q23 10 43 39q16 23 26 63l99 471h-168l26 125h168l88 410q2 4 3.5 12t1.5 13q4 20 4 22q0 22 -13 37q-10 14 -30 20q-25 8 -45 11q-18 2 -60 2h-26l22 108h655q150 0 263 -37q117 -39 194.5 -106.5t120.5 -173.5q43 -104 43 -240 q0 -123 -25 -237q-23 -106 -75 -215q-47 -96 -123 -183q-74 -82 -168 -143q-92 -59 -215 -94q-117 -33 -258 -33h-721zM492 127h92q143 0 258 59q113 57 190 164q82 111 119 250q41 152 41 322q0 106 -25 186q-23 74 -71 129q-45 49 -115 76q-68 25 -147 24h-86l-109 -510 h258l-27 -125h-258z" />
<glyph unicode="&#x111;" horiz-adv-x="1361" d="M82 354q0 74 18 154q20 84 54 158q37 80 88 149q49 66 120 125q68 55 152 86t182 31q61 0 113 -13q43 -10 92 -36q0 2 2 16t4 24.5t5 23.5l6 26q2 8 5 23.5t5 23.5l10 39h-315l22 108h318q4 14 8 43q2 14 2 27q0 27 -6 45q-6 16 -19 27q-12 8 -35 12q-14 2 -49 2h-47 l19 108h493l-57 -264h180l-22 -108h-181l-157 -744q-2 -20 -9 -43q-2 -10 -5 -29.5t-5 -27.5q-4 -18 -8 -59q-4 -37 -4 -48q0 -47 22.5 -69.5t49.5 -22.5q29 0 57 15l57 28l45 -80q-43 -33 -61 -45q-29 -18 -74 -39q-27 -12 -88 -28q-45 -12 -100 -12q-41 0 -82 10 q-35 8 -64 30q-25 20 -41 52q-14 29 -14 71v33q0 4 2 14.5t2 16.5q0 10 4 31q2 10 6 38h-12q-37 -80 -80 -135q-41 -53 -90 -92q-47 -39 -102 -53q-59 -16 -117 -16q-80 0 -135 30q-61 35 -94 80q-33 47 -54 121q-16 59 -16 143zM393 352q0 -63 8 -98q10 -43 23 -64 q16 -27 34.5 -37t45.5 -10q47 0 92 39q51 45 90 103q43 66 76 141q31 74 51 164l57 278q-23 29 -59.5 43.5t-75.5 14.5q-55 0 -102 -29q-45 -27 -84 -76q-45 -55 -68 -106q-39 -86 -49 -123q-20 -72 -29 -127q-10 -68 -10 -113z" />
<glyph unicode="&#x112;" horiz-adv-x="1294" d="M-47 0l22 109h27q20 0 61 4q31 2 58 16q23 10 43 39q16 23 26 63l213 1006l3 9q2 9 4 16q2 10 2 22q0 25 -11 37q-10 14 -30 20q-23 8 -47 11q-18 2 -60 2h-26l22 108h1112l-72 -381h-145l1 9q1 8 1 16l4 37q0 6 1 19.5t1 17.5q0 6 2 17v3q0 31 -8 53q-10 29 -24 43 q-23 23 -46 31q-31 10 -67 10h-272l-109 -512h465l-27 -123h-465l-123 -577h324q43 0 86 14q37 12 66 35q27 20 47 55q25 41 32 64l33 88h146l-95 -381h-1175zM588 1579l34 162h594l-34 -162h-594z" />
<glyph unicode="&#x113;" horiz-adv-x="1095" d="M82 403q0 78 20 158q25 94 60 164q39 78 98 149q61 74 135 127q77 55 172.5 86t208.5 31q150 0 228 -63q82 -66 81 -178q0 -80 -47 -158q-45 -76 -127 -135q-74 -53 -192 -90q-115 -35 -244 -35h-37q-27 0 -39 2q-4 -29 -4 -41v-37q0 -120 56 -184q55 -63 167 -64 q51 0 95 15q45 14 84 38q47 29 69 52q27 27 52 61q16 -20 20 -39q6 -25 6 -49q0 -37 -24 -78q-27 -43 -74 -76q-55 -37 -125 -57q-80 -23 -182 -22q-86 0 -177 26q-82 25 -145 78q-61 51 -98 133q-37 80 -37 186zM414 578h18q80 0 141 20q70 23 115 57q47 35 76 90 q27 51 27 117t-27 99q-29 35 -74 34q-47 0 -94 -37q-45 -35 -82 -98q-37 -61 -61 -135q-29 -86 -39 -147zM463 1241l34 162h594l-34 -162h-594z" />
<glyph unicode="&#x114;" horiz-adv-x="1294" d="M-47 0l22 109h27q20 0 61 4q31 2 58 16q23 10 43 39q16 23 26 63l213 1006l3 9q2 9 4 16q2 10 2 22q0 25 -11 37q-10 14 -30 20q-23 8 -47 11q-18 2 -60 2h-26l22 108h1112l-72 -381h-145l1 9q1 8 1 16l4 37q0 6 1 19.5t1 17.5q0 6 2 17v3q0 31 -8 53q-10 29 -24 43 q-23 23 -46 31q-31 10 -67 10h-272l-109 -512h465l-27 -123h-465l-123 -577h324q43 0 86 14q37 12 66 35q27 20 47 55q25 41 32 64l33 88h146l-95 -381h-1175zM578 1901h135q10 -74 53 -107q45 -33 119 -33q76 0 129 33q55 35 86 107h127q-14 -55 -47 -117q-27 -51 -78 -103 q-47 -47 -106 -73q-63 -29 -134 -29q-63 0 -118 23q-51 20 -86 65q-33 43 -56 103q-20 57 -24 131z" />
<glyph unicode="&#x115;" horiz-adv-x="1095" d="M82 403q0 78 20 158q25 94 60 164q39 78 98 149q61 74 135 127q77 55 172.5 86t208.5 31q150 0 228 -63q82 -66 81 -178q0 -80 -47 -158q-45 -76 -127 -135q-74 -53 -192 -90q-115 -35 -244 -35h-37q-27 0 -39 2q-4 -29 -4 -41v-37q0 -120 56 -184q55 -63 167 -64 q51 0 95 15q45 14 84 38q47 29 69 52q27 27 52 61q16 -20 20 -39q6 -25 6 -49q0 -37 -24 -78q-27 -43 -74 -76q-55 -37 -125 -57q-80 -23 -182 -22q-86 0 -177 26q-82 25 -145 78q-61 51 -98 133q-37 80 -37 186zM414 578h18q80 0 141 20q70 23 115 57q47 35 76 90 q27 51 27 117t-27 99q-29 35 -74 34q-47 0 -94 -37q-45 -35 -82 -98q-37 -61 -61 -135q-29 -86 -39 -147zM457 1563h135q10 -74 53 -107q45 -33 119 -33q76 0 129 33q55 35 86 107h127q-14 -55 -47 -117q-27 -51 -78 -103q-47 -47 -106 -73q-63 -29 -134 -29q-63 0 -118 23 q-51 20 -86 65q-33 43 -56 103q-20 57 -24 131z" />
<glyph unicode="&#x116;" horiz-adv-x="1294" d="M-47 0l22 109h27q20 0 61 4q31 2 58 16q23 10 43 39q16 23 26 63l213 1006l3 9q2 9 4 16q2 10 2 22q0 25 -11 37q-10 14 -30 20q-23 8 -47 11q-18 2 -60 2h-26l22 108h1112l-72 -381h-145l1 9q1 8 1 16l4 37q0 6 1 19.5t1 17.5q0 6 2 17v3q0 31 -8 53q-10 29 -24 43 q-23 23 -46 31q-31 10 -67 10h-272l-109 -512h465l-27 -123h-465l-123 -577h324q43 0 86 14q37 12 66 35q27 20 47 55q25 41 32 64l33 88h146l-95 -381h-1175zM702 1718q0 47 14.5 75.5t43.5 53.5q20 18 59 29q37 10 74 10q33 0 63 -6q23 -4 52 -25q27 -18 37 -39 q12 -25 12 -59q0 -41 -17 -74q-14 -29 -43 -51q-27 -20 -63.5 -30.5t-71.5 -10.5q-27 0 -63 8q-29 6 -51 23q-18 14 -33 41q-13 24 -13 55z" />
<glyph unicode="&#x117;" horiz-adv-x="1095" d="M82 403q0 78 20 158q25 94 60 164q39 78 98 149q61 74 135 127q77 55 172.5 86t208.5 31q150 0 228 -63q82 -66 81 -178q0 -80 -47 -158q-45 -76 -127 -135q-74 -53 -192 -90q-115 -35 -244 -35h-37q-27 0 -39 2q-4 -29 -4 -41v-37q0 -120 56 -184q55 -63 167 -64 q51 0 95 15q45 14 84 38q47 29 69 52q27 27 52 61q16 -20 20 -39q6 -25 6 -49q0 -37 -24 -78q-27 -43 -74 -76q-55 -37 -125 -57q-80 -23 -182 -22q-86 0 -177 26q-82 25 -145 78q-61 51 -98 133q-37 80 -37 186zM414 578h18q80 0 141 20q70 23 115 57q47 35 76 90 q27 51 27 117t-27 99q-29 35 -74 34q-47 0 -94 -37q-45 -35 -82 -98q-37 -61 -61 -135q-29 -86 -39 -147zM583 1409q0 47 14.5 75.5t43.5 53.5q20 18 59 29q37 10 74 10q33 0 63 -6q23 -4 52 -25q27 -18 37 -39q12 -25 12 -59q0 -41 -17 -74q-14 -29 -43 -51 q-27 -20 -63.5 -30.5t-71.5 -10.5q-27 0 -63 8q-29 6 -51 23q-18 14 -33 41q-13 24 -13 55z" />
<glyph unicode="&#x118;" horiz-adv-x="1294" d="M-47 0l22 109h27q20 0 61 4q31 2 58 16q23 10 43 39q16 23 26 63l213 1006l3 9q2 9 4 16q2 10 2 22q0 25 -11 37q-10 14 -30 20q-23 8 -47 11q-18 2 -60 2h-26l22 108h1112l-72 -381h-145l1 9q1 8 1 16l4 37q0 6 1 19.5t1 17.5q0 6 2 17v3q0 31 -8 53q-10 29 -24 43 q-23 23 -46 31q-31 10 -67 10h-272l-109 -512h465l-27 -123h-465l-123 -577h324q43 0 86 14q37 12 66 35q27 20 47 55q25 41 32 64l33 88h146l-95 -381h-1175zM608 -283q0 51 23 101q18 41 61 80q39 37 96 61q59 27 123 41h158q-37 -10 -78 -31q-53 -27 -80 -49 q-39 -33 -61 -70q-25 -39 -25 -90q0 -47 33 -75.5t84 -28.5q16 0 61 4q35 4 72 12l-27 -131q-37 -14 -84 -24q-41 -8 -94 -9q-123 0 -192.5 53.5t-69.5 155.5z" />
<glyph unicode="&#x119;" horiz-adv-x="1095" d="M82 403q0 78 20 158q25 94 60 164q39 78 98 149q61 74 135 127q77 55 172.5 86t208.5 31q150 0 228 -63q82 -66 81 -178q0 -80 -47 -158q-45 -76 -127 -135q-74 -53 -192 -90q-115 -35 -244 -35h-37q-27 0 -39 2q-4 -29 -4 -41v-37q0 -120 56 -184q55 -63 167 -64 q51 0 95 15q45 14 84 38q47 29 69 52q27 27 52 61q16 -20 20 -39q6 -25 6 -49q0 -37 -24 -78q-27 -43 -74 -76q-55 -37 -125 -57q-80 -23 -182 -22q-86 0 -177 26q-82 25 -145 78q-61 51 -98 133q-37 80 -37 186zM414 578h18q80 0 141 20q70 23 115 57q47 35 76 90 q27 51 27 117t-27 99q-29 35 -74 34q-47 0 -94 -37q-45 -35 -82 -98q-37 -61 -61 -135q-29 -86 -39 -147zM336 -252q0 51 23 101q18 41 61 80q39 37 96 61q59 27 123 41h158q-37 -10 -78 -31q-53 -27 -80 -49q-39 -33 -61 -70q-25 -39 -25 -90q0 -47 33 -75.5t84 -28.5 q16 0 61 4q35 4 72 12l-27 -131q-37 -14 -84 -24q-41 -8 -94 -9q-123 0 -192.5 53.5t-69.5 155.5z" />
<glyph unicode="&#x11a;" horiz-adv-x="1294" d="M-47 0l22 109h27q20 0 61 4q31 2 58 16q23 10 43 39q16 23 26 63l213 1006l3 9q2 9 4 16q2 10 2 22q0 25 -11 37q-10 14 -30 20q-23 8 -47 11q-18 2 -60 2h-26l22 108h1112l-72 -381h-145l1 9q1 8 1 16l4 37q0 6 1 19.5t1 17.5q0 6 2 17v3q0 31 -8 53q-10 29 -24 43 q-23 23 -46 31q-31 10 -67 10h-272l-109 -512h465l-27 -123h-465l-123 -577h324q43 0 86 14q37 12 66 35q27 20 47 55q25 41 32 64l33 88h146l-95 -381h-1175zM561 1880l6 27h129q18 -16 41 -39l49 -49l49 -51q31 -31 43 -46l62 46l69 51l34 24.5l34 24.5l57 39h160l-6 -27 l-30.5 -31.5t-37.5 -35.5q-57 -55 -77 -76l-78 -82q-57 -61 -68 -76h-276q-16 43 -33 72q-8 18 -43 80q-10 18 -20.5 39.5t-22.5 42.5q-16 32 -41 67z" />
<glyph unicode="&#x11b;" horiz-adv-x="1095" d="M82 403q0 78 20 158q25 94 60 164q39 78 98 149q61 74 135 127q77 55 172.5 86t208.5 31q150 0 228 -63q82 -66 81 -178q0 -80 -47 -158q-45 -76 -127 -135q-74 -53 -192 -90q-115 -35 -244 -35h-37q-27 0 -39 2q-4 -29 -4 -41v-37q0 -120 56 -184q55 -63 167 -64 q51 0 95 15q45 14 84 38q47 29 69 52q27 27 52 61q16 -20 20 -39q6 -25 6 -49q0 -37 -24 -78q-27 -43 -74 -76q-55 -37 -125 -57q-80 -23 -182 -22q-86 0 -177 26q-82 25 -145 78q-61 51 -98 133q-37 80 -37 186zM414 578h18q80 0 141 20q70 23 115 57q47 35 76 90 q27 51 27 117t-27 99q-29 35 -74 34q-47 0 -94 -37q-45 -35 -82 -98q-37 -61 -61 -135q-29 -86 -39 -147zM455 1542l6 27h129q18 -16 41 -39l49 -49l49 -51q31 -31 43 -46l62 46l69 51l34 24.5l34 24.5l57 39h160l-6 -27l-30.5 -31.5t-37.5 -35.5q-57 -55 -77 -76l-78 -82 q-57 -61 -68 -76h-276q-16 43 -33 72q-8 18 -43 80q-10 18 -20.5 39.5t-22.5 42.5q-16 32 -41 67z" />
<glyph unicode="&#x11c;" horiz-adv-x="1628" d="M129 528q0 131 31 254q29 117 90 230q57 104 141 192q86 90 189 150q106 63 231 96q123 33 266 33q123 0 205 -21q88 -23 145.5 -55.5t86 -77.5t28.5 -90q0 -40 -24 -74q-29 -41 -64 -61q-37 -23 -94 -39q-59 -16 -115 -16q0 57 -14 120q-12 55 -41 97q-29 43 -72 63 q-45 23 -104 23q-80 0 -150 -31q-68 -29 -131 -90q-66 -63 -110 -135q-53 -86 -84 -174q-41 -115 -56 -201q-18 -106 -18 -217q0 -92 16 -156q18 -71 56 -123q35 -49 96 -77.5t141 -28.5q53 0 96 8q55 10 86 20l68 304q12 55 12 69q0 20 -12 35q-14 18 -29 23q-23 8 -47 10 q-18 2 -59 2h-27l23 108h682l-23 -108h-2q-25 0 -65 -4q-27 -2 -58 -19q-29 -14 -45 -36.5t-26 -65.5l-78 -391q-33 -12 -121 -41q-57 -18 -121 -31q-41 -8 -127 -16q-66 -6 -137 -6q-150 0 -277 38q-117 35 -198 109q-78 70 -119 172q-41 104 -41 229zM656 1579l6 27 l30.5 31.5t36.5 35.5l78 76l80 82q47 51 66 76h276q16 -43 33 -72q20 -41 43 -82l45 -80l39 -67l-6 -27h-129l-18.5 18.5t-22.5 20.5l-50 49l-49 49q-18 18 -43 47q-59 -45 -61 -47l-70 -49l-33.5 -24.5l-33.5 -24.5l-58 -39h-159z" />
<glyph unicode="&#x11d;" horiz-adv-x="1187" d="M-119 -231q0 57 26.5 98t74.5 76q46 34 104 55q53 18 123 33q-18 8 -39 28q-18 18 -33 39q-12 18 -24 49q-8 23 -9 52q0 31 13 59q12 27 41 55q33 33 67 56q57 37 101 59q-72 33 -107 94q-37 63 -37 152q0 70 31 149q29 76 96 144q66 66 160 108q96 43 225 43 q66 0 127 -16q58 -15 105 -49q20 29 49 55q18 18 55 43q28 18 62 31q29 10 71 10q65 0 92 -31q29 -33 29 -78q0 -27 -6 -51t-23 -47q-16 -25 -38 -35q-25 -12 -64 -12q0 45 -18 66q-18 23 -54 22q-27 0 -51 -10t-43 -27q20 -25 37 -74q14 -41 14 -90q0 -37 -14 -94 q-10 -41 -39 -98q-27 -51 -65 -94q-43 -47 -95 -78q-49 -31 -125 -53q-68 -20 -155 -21h-23q-6 0 -14 1t-16 1h-29q-10 0 -23 4q-49 -22 -80 -49q-33 -29 -32 -59q0 -18 8 -29q6 -10 24 -16q23 -8 33 -11q29 -4 45 -6l230 -22q152 -16 233 -82q84 -68 84 -197 q0 -94 -43 -170q-43 -78 -123 -131t-201 -84q-113 -29 -270 -29q-123 0 -213 19q-92 18 -145 51t-82 84q-27 48 -27 107zM125 -217q0 -33 12.5 -59.5t38.5 -47.5q25 -20 78 -32q49 -12 125 -13q84 0 153 17q63 14 107 43q41 27 61.5 61.5t20.5 73.5q0 55 -45 88t-150 41 l-182 16q-49 -6 -84 -22q-37 -16 -70 -43q-27 -20 -47 -56q-18 -30 -18 -67zM440 653q0 -74 29 -108q27 -33 82 -33q39 0 65 16q33 20 56 45q20 25 41 64q18 37 30 74q8 23 17 75q6 37 6 66q0 72 -29 106q-27 33 -82 33q-53 0 -94 -35q-35 -29 -65 -88q-25 -45 -41 -110 q-15 -56 -15 -105zM328 1241l6 27l30.5 31.5t36.5 35.5l78 76l80 82q47 51 66 76h276q16 -43 33 -72q20 -41 43 -82l45 -80l39 -67l-6 -27h-129l-18.5 18.5t-22.5 20.5l-50 49l-49 49q-18 18 -43 47q-59 -45 -61 -47l-70 -49l-33.5 -24.5l-33.5 -24.5l-58 -39h-159z" />
<glyph unicode="&#x11e;" horiz-adv-x="1628" d="M129 528q0 131 31 254q29 117 90 230q57 104 141 192q86 90 189 150q106 63 231 96q123 33 266 33q123 0 205 -21q88 -23 145.5 -55.5t86 -77.5t28.5 -90q0 -40 -24 -74q-29 -41 -64 -61q-37 -23 -94 -39q-59 -16 -115 -16q0 57 -14 120q-12 55 -41 97q-29 43 -72 63 q-45 23 -104 23q-80 0 -150 -31q-68 -29 -131 -90q-66 -63 -110 -135q-53 -86 -84 -174q-41 -115 -56 -201q-18 -106 -18 -217q0 -92 16 -156q18 -71 56 -123q35 -49 96 -77.5t141 -28.5q53 0 96 8q55 10 86 20l68 304q12 55 12 69q0 20 -12 35q-14 18 -29 23q-23 8 -47 10 q-18 2 -59 2h-27l23 108h682l-23 -108h-2q-25 0 -65 -4q-27 -2 -58 -19q-29 -14 -45 -36.5t-26 -65.5l-78 -391q-33 -12 -121 -41q-57 -18 -121 -31q-41 -8 -127 -16q-66 -6 -137 -6q-150 0 -277 38q-117 35 -198 109q-78 70 -119 172q-41 104 -41 229zM770 1901h135 q10 -74 53 -107q45 -33 119 -33q76 0 129 33q55 35 86 107h127q-14 -55 -47 -117q-27 -51 -78 -103q-47 -47 -106 -73q-63 -29 -134 -29q-63 0 -118 23q-51 20 -86 65q-33 43 -56 103q-20 57 -24 131z" />
<glyph unicode="&#x11f;" horiz-adv-x="1187" d="M-119 -231q0 57 26.5 98t74.5 76q46 34 104 55q53 18 123 33q-18 8 -39 28q-18 18 -33 39q-12 18 -24 49q-8 23 -9 52q0 31 13 59q12 27 41 55q33 33 67 56q57 37 101 59q-72 33 -107 94q-37 63 -37 152q0 70 31 149q29 76 96 144q66 66 160 108q96 43 225 43 q66 0 127 -16q58 -15 105 -49q20 29 49 55q18 18 55 43q28 18 62 31q29 10 71 10q65 0 92 -31q29 -33 29 -78q0 -27 -6 -51t-23 -47q-16 -25 -38 -35q-25 -12 -64 -12q0 45 -18 66q-18 23 -54 22q-27 0 -51 -10t-43 -27q20 -25 37 -74q14 -41 14 -90q0 -37 -14 -94 q-10 -41 -39 -98q-27 -51 -65 -94q-43 -47 -95 -78q-49 -31 -125 -53q-68 -20 -155 -21h-23q-6 0 -14 1t-16 1h-29q-10 0 -23 4q-49 -22 -80 -49q-33 -29 -32 -59q0 -18 8 -29q6 -10 24 -16q23 -8 33 -11q29 -4 45 -6l230 -22q152 -16 233 -82q84 -68 84 -197 q0 -94 -43 -170q-43 -78 -123 -131t-201 -84q-113 -29 -270 -29q-123 0 -213 19q-92 18 -145 51t-82 84q-27 48 -27 107zM125 -217q0 -33 12.5 -59.5t38.5 -47.5q25 -20 78 -32q49 -12 125 -13q84 0 153 17q63 14 107 43q41 27 61.5 61.5t20.5 73.5q0 55 -45 88t-150 41 l-182 16q-49 -6 -84 -22q-37 -16 -70 -43q-27 -20 -47 -56q-18 -30 -18 -67zM440 653q0 -74 29 -108q27 -33 82 -33q39 0 65 16q33 20 56 45q20 25 41 64q18 37 30 74q8 23 17 75q6 37 6 66q0 72 -29 106q-27 33 -82 33q-53 0 -94 -35q-35 -29 -65 -88q-25 -45 -41 -110 q-15 -56 -15 -105zM422 1563h135q10 -74 53 -107q45 -33 119 -33q76 0 129 33q55 35 86 107h127q-14 -55 -47 -117q-27 -51 -78 -103q-47 -47 -106 -73q-63 -29 -134 -29q-63 0 -118 23q-51 20 -86 65q-33 43 -56 103q-20 57 -24 131z" />
<glyph unicode="&#x120;" horiz-adv-x="1628" d="M129 528q0 131 31 254q29 117 90 230q57 104 141 192q86 90 189 150q106 63 231 96q123 33 266 33q123 0 205 -21q88 -23 145.5 -55.5t86 -77.5t28.5 -90q0 -40 -24 -74q-29 -41 -64 -61q-37 -23 -94 -39q-59 -16 -115 -16q0 57 -14 120q-12 55 -41 97q-29 43 -72 63 q-45 23 -104 23q-80 0 -150 -31q-68 -29 -131 -90q-66 -63 -110 -135q-53 -86 -84 -174q-41 -115 -56 -201q-18 -106 -18 -217q0 -92 16 -156q18 -71 56 -123q35 -49 96 -77.5t141 -28.5q53 0 96 8q55 10 86 20l68 304q12 55 12 69q0 20 -12 35q-14 18 -29 23q-23 8 -47 10 q-18 2 -59 2h-27l23 108h682l-23 -108h-2q-25 0 -65 -4q-27 -2 -58 -19q-29 -14 -45 -36.5t-26 -65.5l-78 -391q-33 -12 -121 -41q-57 -18 -121 -31q-41 -8 -127 -16q-66 -6 -137 -6q-150 0 -277 38q-117 35 -198 109q-78 70 -119 172q-41 104 -41 229zM886 1747 q0 47 14.5 75.5t43.5 53.5q20 18 59 29q37 10 74 10q33 0 63 -6q23 -4 52 -25q27 -18 37 -39q12 -25 12 -59q0 -41 -17 -74q-14 -29 -43 -51q-27 -20 -63.5 -30.5t-71.5 -10.5q-27 0 -63 8q-29 6 -51 23q-18 14 -33 41q-13 24 -13 55z" />
<glyph unicode="&#x121;" horiz-adv-x="1187" d="M-119 -231q0 57 26.5 98t74.5 76q46 34 104 55q53 18 123 33q-18 8 -39 28q-18 18 -33 39q-12 18 -24 49q-8 23 -9 52q0 31 13 59q12 27 41 55q33 33 67 56q57 37 101 59q-72 33 -107 94q-37 63 -37 152q0 70 31 149q29 76 96 144q66 66 160 108q96 43 225 43 q66 0 127 -16q58 -15 105 -49q20 29 49 55q18 18 55 43q28 18 62 31q29 10 71 10q65 0 92 -31q29 -33 29 -78q0 -27 -6 -51t-23 -47q-16 -25 -38 -35q-25 -12 -64 -12q0 45 -18 66q-18 23 -54 22q-27 0 -51 -10t-43 -27q20 -25 37 -74q14 -41 14 -90q0 -37 -14 -94 q-10 -41 -39 -98q-27 -51 -65 -94q-43 -47 -95 -78q-49 -31 -125 -53q-68 -20 -155 -21h-23q-6 0 -14 1t-16 1h-29q-10 0 -23 4q-49 -22 -80 -49q-33 -29 -32 -59q0 -18 8 -29q6 -10 24 -16q23 -8 33 -11q29 -4 45 -6l230 -22q152 -16 233 -82q84 -68 84 -197 q0 -94 -43 -170q-43 -78 -123 -131t-201 -84q-113 -29 -270 -29q-123 0 -213 19q-92 18 -145 51t-82 84q-27 48 -27 107zM125 -217q0 -33 12.5 -59.5t38.5 -47.5q25 -20 78 -32q49 -12 125 -13q84 0 153 17q63 14 107 43q41 27 61.5 61.5t20.5 73.5q0 55 -45 88t-150 41 l-182 16q-49 -6 -84 -22q-37 -16 -70 -43q-27 -20 -47 -56q-18 -30 -18 -67zM440 653q0 -74 29 -108q27 -33 82 -33q39 0 65 16q33 20 56 45q20 25 41 64q18 37 30 74q8 23 17 75q6 37 6 66q0 72 -29 106q-27 33 -82 33q-53 0 -94 -35q-35 -29 -65 -88q-25 -45 -41 -110 q-15 -56 -15 -105zM581 1409q0 47 14.5 75.5t43.5 53.5q20 18 59 29q37 10 74 10q33 0 63 -6q23 -4 52 -25q27 -18 37 -39q12 -25 12 -59q0 -41 -17 -74q-14 -29 -43 -51q-27 -20 -63.5 -30.5t-71.5 -10.5q-27 0 -63 8q-29 6 -51 23q-18 14 -33 41q-13 24 -13 55z" />
<glyph unicode="&#x122;" horiz-adv-x="1628" d="M129 528q0 131 31 254q29 117 90 230q57 104 141 192q86 90 189 150q106 63 231 96q123 33 266 33q123 0 205 -21q88 -23 145.5 -55.5t86 -77.5t28.5 -90q0 -40 -24 -74q-29 -41 -64 -61q-37 -23 -94 -39q-59 -16 -115 -16q0 57 -14 120q-12 55 -41 97q-29 43 -72 63 q-45 23 -104 23q-80 0 -150 -31q-68 -29 -131 -90q-66 -63 -110 -135q-53 -86 -84 -174q-41 -115 -56 -201q-18 -106 -18 -217q0 -92 16 -156q18 -71 56 -123q35 -49 96 -77.5t141 -28.5q53 0 96 8q55 10 86 20l68 304q12 55 12 69q0 20 -12 35q-14 18 -29 23q-23 8 -47 10 q-18 2 -59 2h-27l23 108h682l-23 -108h-2q-25 0 -65 -4q-27 -2 -58 -19q-29 -14 -45 -36.5t-26 -65.5l-78 -391q-33 -12 -121 -41q-57 -18 -121 -31q-41 -8 -127 -16q-66 -6 -137 -6q-150 0 -277 38q-117 35 -198 109q-78 70 -119 172q-41 104 -41 229zM492 -453l6 27 q23 47 68 150q29 63 57 151h258l-6 -20l-51 -70q-57 -76 -64 -82q-4 -4 -71 -80q-49 -53 -74 -76h-123z" />
<glyph unicode="&#x123;" horiz-adv-x="1187" d="M-119 -231q0 57 26.5 98t74.5 76q46 34 104 55q53 18 123 33q-18 8 -39 28q-18 18 -33 39q-12 18 -24 49q-8 23 -9 52q0 31 13 59q12 27 41 55q33 33 67 56q57 37 101 59q-72 33 -107 94q-37 63 -37 152q0 70 31 149q29 76 96 144q66 66 160 108q96 43 225 43 q66 0 127 -16q58 -15 105 -49q20 29 49 55q18 18 55 43q28 18 62 31q29 10 71 10q65 0 92 -31q29 -33 29 -78q0 -27 -6 -51t-23 -47q-16 -25 -38 -35q-25 -12 -64 -12q0 45 -18 66q-18 23 -54 22q-27 0 -51 -10t-43 -27q20 -25 37 -74q14 -41 14 -90q0 -37 -14 -94 q-10 -41 -39 -98q-27 -51 -65 -94q-43 -47 -95 -78q-49 -31 -125 -53q-68 -20 -155 -21h-23q-6 0 -14 1t-16 1h-29q-10 0 -23 4q-49 -22 -80 -49q-33 -29 -32 -59q0 -18 8 -29q6 -10 24 -16q23 -8 33 -11q29 -4 45 -6l230 -22q152 -16 233 -82q84 -68 84 -197 q0 -94 -43 -170q-43 -78 -123 -131t-201 -84q-113 -29 -270 -29q-123 0 -213 19q-92 18 -145 51t-82 84q-27 48 -27 107zM125 -217q0 -33 12.5 -59.5t38.5 -47.5q25 -20 78 -32q49 -12 125 -13q84 0 153 17q63 14 107 43q41 27 61.5 61.5t20.5 73.5q0 55 -45 88t-150 41 l-182 16q-49 -6 -84 -22q-37 -16 -70 -43q-27 -20 -47 -56q-18 -30 -18 -67zM440 653q0 -74 29 -108q27 -33 82 -33q39 0 65 16q33 20 56 45q20 25 41 64q18 37 30 74q8 23 17 75q6 37 6 66q0 72 -29 106q-27 33 -82 33q-53 0 -94 -35q-35 -29 -65 -88q-25 -45 -41 -110 q-15 -56 -15 -105zM594 1241l6 21q39 57 52 71q57 74 63 80q23 27 72 80q37 41 74 76h122l-6 -27q-23 -47 -67 -149q-29 -63 -58 -152h-258z" />
<glyph unicode="&#x124;" horiz-adv-x="1675" d="M-47 0l22 109h27q20 0 61 4q31 2 58 16q23 10 43 39q16 23 26 63l209 983q12 51 13 70q0 25 -11 37q-10 14 -30 20q-23 8 -47 11q-18 2 -60 2h-26l22 108h707l-23 -108h-26q-25 0 -66 -4q-25 -2 -57 -19q-29 -14 -45.5 -36.5t-26.5 -65.5l-84 -404h535l86 398q2 10 8 37 q2 10 2 24q0 25 -10 37q-12 14 -33 20q-29 8 -47.5 10.5t-59.5 2.5h-26l22 108h707l-23 -108h-26q-23 0 -64 -4q-27 -2 -57 -19q-29 -14 -45.5 -36.5t-26.5 -65.5l-211 -1004l-2 -9q-2 -9 -4 -15q-2 -10 -2 -23q0 -25 10 -35q18 -18 31 -22q23 -8 47 -10q18 -2 59 -2h27 l-23 -109h-706l22 109h27q23 0 64 4q27 2 57 18q29 14 45 36.5t27 65.5l98 467h-535l-100 -475l-2 -9q-2 -9 -4 -15q-2 -10 -2 -23q0 -25 10 -35q18 -18 33 -22q29 -8 47 -10t59 -2h27l-23 -109h-704zM674 1579l6 27l30.5 31.5t36.5 35.5l78 76l80 82q47 51 66 76h276 q16 -43 33 -72q20 -41 43 -82l45 -80l39 -67l-6 -27h-129l-18.5 18.5t-22.5 20.5l-50 49l-49 49q-18 18 -43 47q-59 -45 -61 -47l-70 -49l-33.5 -24.5l-33.5 -24.5l-58 -39h-159z" />
<glyph unicode="&#x125;" horiz-adv-x="1341" d="M43 0l270 1274q0 6 2 12t4 14q0 4 1.5 13.5t3.5 13.5q4 16 4 23v12q0 27 -6 45q-6 16 -19 27q-12 8 -35 12q-14 2 -49 2h-43l19 108h495l-96 -450l-19 -70l-18 -73q-8 -27 -20 -84h12q45 70 80 106q39 41 90 74q47 29 104 45q51 14 125 14q65 0 111 -18q41 -16 71 -53 q27 -33 39 -74q12 -43 13 -90q0 -14 -4 -56q-4 -37 -9 -59l-12 -59l-12 -58l-47 -219q-6 -27 -21 -104q-8 -43 -8 -92q0 -43 18.5 -68t53.5 -25q31 0 59 13q8 4 62 34l49 -69q-35 -35 -56 -51q-29 -23 -69 -45q-37 -20 -86 -33q-47 -12 -103 -12q-117 0 -180 55t-63 155 q0 23 8 105q6 63 24 139l35 162q2 8 5 25.5t5 23.5l13 60q8 39 10 63q4 41 4 57q0 10 -4 39q-2 20 -12 39q-8 16 -27 29q-16 10 -43 10q-35 0 -70 -24q-41 -31 -65 -62q-45 -57 -62 -88q-25 -43 -51 -100q-12 -27 -41 -103q-14 -41 -26 -90l-107 -475h-307zM457 1634l6 27 l30.5 31.5t36.5 35.5l78 76l80 82q47 51 66 76h276q16 -43 33 -72q20 -41 43 -82l45 -80l39 -67l-6 -27h-129l-18.5 18.5t-22.5 20.5l-50 49l-49 49q-18 18 -43 47q-59 -45 -61 -47l-70 -49l-33.5 -24.5l-33.5 -24.5l-58 -39h-159z" />
<glyph unicode="&#x126;" horiz-adv-x="1675" d="M-47 0l22 109h27q20 0 61 4q31 2 58 16q23 10 43 39q16 23 26 63l168 791h-213l23 108h213l18 84q12 51 13 70q0 25 -11 37q-10 14 -30 20q-23 8 -47 11q-18 2 -60 2h-26l22 108h707l-23 -108h-26q-25 0 -66 -4q-25 -2 -57 -19q-29 -14 -45.5 -36.5t-26.5 -65.5l-21 -99 h537l21 93q2 10 8 37q2 10 2 24q0 25 -10 37q-12 14 -33 20q-29 8 -47.5 10.5t-59.5 2.5h-26l22 108h707l-23 -108h-26q-23 0 -64 -4q-27 -2 -57 -19q-29 -14 -45.5 -36.5t-26.5 -65.5l-20 -99h211l-23 -108h-211l-168 -797l-2 -9q-2 -9 -4 -15q-2 -10 -2 -23q0 -25 10 -35 q18 -18 31 -22q23 -8 47 -10q18 -2 59 -2h27l-23 -109h-706l22 109h27q23 0 64 4q27 2 57 18q29 14 45 36.5t27 65.5l98 467h-535l-100 -475l-2 -9q-2 -9 -4 -15q-2 -10 -2 -23q0 -25 10 -35q18 -18 33 -22q29 -8 47 -10t59 -2h27l-23 -109h-704zM639 825h535l43 197h-537z " />
<glyph unicode="&#x127;" horiz-adv-x="1341" d="M43 0l250 1184h-174l24 108h174q4 14 9 43q2 14 2 27q0 27 -6 45q-6 16 -19 27q-12 8 -35 12q-14 2 -49 2h-43l19 108h495l-57 -264h317l-24 -108h-316l-26 -121q-4 -14 -7.5 -31.5t-9.5 -38.5l-18 -73q-4 -18 -10.5 -40l-12.5 -44h13q45 70 79 106q39 41 91 74 q47 29 104 45q51 14 125 14q66 0 109 -18q47 -20 73.5 -53t38.5 -74q12 -43 12 -90q0 -14 -4 -56q-4 -37 -8 -59l-12 -59l-12 -58l-37 -176q-6 -27 -21 -104q-8 -43 -8 -92q0 -43 18.5 -68t53.5 -25q31 0 59 13q8 4 62 34l49 -69q-35 -35 -56 -51q-29 -23 -69 -45 q-37 -20 -86 -33q-47 -12 -103 -12q-117 0 -180 55t-63 155q0 23 8 105q6 63 24 139l25 119l10 49l13 60q8 39 10 63q4 41 4 57q0 10 -4 39q-2 20 -13 39q-8 18 -24 28.5t-45 10.5q-37 0 -70 -25q-41 -31 -65 -61q-45 -57 -62 -88q-37 -66 -53 -100q-12 -27 -41 -103 q-10 -27 -25 -90l-96 -432h-307z" />
<glyph unicode="&#x128;" horiz-adv-x="819" d="M-47 0l22 109h27q20 0 61 4q31 2 58 16q23 10 43 39q16 23 26 63l213 1006l3 9q2 9 4 16q2 10 2 22q0 25 -11 37q-10 14 -30 20q-23 8 -47 11q-18 2 -60 2h-26l22 108h707l-23 -108h-26q-25 0 -66 -4q-25 -2 -57 -19q-29 -14 -45.5 -36.5t-26.5 -65.5l-211 -1004 q-2 -4 -3 -12t-1 -12q-4 -20 -4 -23q0 -25 10 -35q18 -18 33 -22q29 -8 47 -10t59 -2h27l-23 -109h-704zM250 1600q10 53 32 100q27 59 60 98q37 45 82 76q43 29 102 29q55 0 96 -21q53 -27 78 -43l68 -45q29 -20 63 -20q25 0 45 10q25 12 33 22.5t21 34.5q6 12 14 41h123 q-14 -57 -33 -102q-23 -53 -57 -99q-37 -47 -78 -73q-45 -29 -99 -29q-59 0 -100 21q-61 31 -80 43l-69 45q-33 20 -66 20q-25 0 -41 -8t-33 -25q-14 -14 -24 -34q-12 -25 -15 -41h-122z" />
<glyph unicode="&#x129;" horiz-adv-x="724" d="M117 989l18 109h486l-142 -666q-6 -27 -20 -104q-8 -43 -8 -92q0 -43 18 -68t53 -25q31 0 60 13q23 10 61 34l49 -69q-35 -35 -55 -51q-29 -23 -70 -45q-37 -20 -86 -33q-47 -12 -102 -12q-117 0 -180.5 55t-63.5 155q0 49 8 105q14 98 25 139l80 381q4 16 6 27q0 4 1 13 t3 13q2 8 2 23q0 4 1 8l1 4q0 27 -6 45q-6 16 -18 27q-8 6 -35 10q-29 4 -49 4h-37zM54 1262q10 53 32 100q27 59 60 98q37 45 82 76q43 29 102 29q55 0 96 -21q53 -27 78 -43l68 -45q29 -20 63 -20q25 0 45 10q25 12 33 22.5t21 34.5q6 12 14 41h123q-14 -57 -33 -102 q-23 -53 -57 -99q-37 -47 -78 -73q-45 -29 -99 -29q-59 0 -100 21q-61 31 -80 43l-69 45q-33 20 -66 20q-25 0 -41 -8t-33 -25q-14 -14 -24 -34q-12 -25 -15 -41h-122z" />
<glyph unicode="&#x12a;" horiz-adv-x="819" d="M-47 0l22 109h27q20 0 61 4q31 2 58 16q23 10 43 39q16 23 26 63l213 1006l3 9q2 9 4 16q2 10 2 22q0 25 -11 37q-10 14 -30 20q-23 8 -47 11q-18 2 -60 2h-26l22 108h707l-23 -108h-26q-25 0 -66 -4q-25 -2 -57 -19q-29 -14 -45.5 -36.5t-26.5 -65.5l-211 -1004 q-2 -4 -3 -12t-1 -12q-4 -20 -4 -23q0 -25 10 -35q18 -18 33 -22q29 -8 47 -10t59 -2h27l-23 -109h-704zM324 1579l34 162h594l-34 -162h-594z" />
<glyph unicode="&#x12b;" horiz-adv-x="724" d="M117 989l18 109h486l-142 -666q-6 -27 -20 -104q-8 -43 -8 -92q0 -43 18 -68t53 -25q31 0 60 13q23 10 61 34l49 -69q-35 -35 -55 -51q-29 -23 -70 -45q-37 -20 -86 -33q-47 -12 -102 -12q-117 0 -180.5 55t-63.5 155q0 49 8 105q14 98 25 139l80 381q4 16 6 27q0 4 1 13 t3 13q2 8 2 23q0 4 1 8l1 4q0 27 -6 45q-6 16 -18 27q-8 6 -35 10q-29 4 -49 4h-37zM138 1241l34 162h594l-34 -162h-594z" />
<glyph unicode="&#x12c;" horiz-adv-x="819" d="M-47 0l22 109h27q20 0 61 4q31 2 58 16q23 10 43 39q16 23 26 63l213 1006l3 9q2 9 4 16q2 10 2 22q0 25 -11 37q-10 14 -30 20q-23 8 -47 11q-18 2 -60 2h-26l22 108h707l-23 -108h-26q-25 0 -66 -4q-25 -2 -57 -19q-29 -14 -45.5 -36.5t-26.5 -65.5l-211 -1004 q-2 -4 -3 -12t-1 -12q-4 -20 -4 -23q0 -25 10 -35q18 -18 33 -22q29 -8 47 -10t59 -2h27l-23 -109h-704zM346 1901h135q10 -74 53 -107q45 -33 119 -33q76 0 129 33q55 35 86 107h127q-14 -55 -47 -117q-27 -51 -78 -103q-47 -47 -106 -73q-63 -29 -134 -29q-63 0 -118 23 q-51 20 -86 65q-33 43 -56 103q-20 57 -24 131z" />
<glyph unicode="&#x12d;" horiz-adv-x="724" d="M117 989l18 109h486l-142 -666q-6 -27 -20 -104q-8 -43 -8 -92q0 -43 18 -68t53 -25q31 0 60 13q23 10 61 34l49 -69q-35 -35 -55 -51q-29 -23 -70 -45q-37 -20 -86 -33q-47 -12 -102 -12q-117 0 -180.5 55t-63.5 155q0 49 8 105q14 98 25 139l80 381q4 16 6 27q0 4 1 13 t3 13q2 8 2 23q0 4 1 8l1 4q0 27 -6 45q-6 16 -18 27q-8 6 -35 10q-29 4 -49 4h-37zM172 1563h135q10 -74 53 -107q45 -33 119 -33q76 0 129 33q55 35 86 107h127q-14 -55 -47 -117q-27 -51 -78 -103q-47 -47 -106 -73q-63 -29 -134 -29q-63 0 -118 23q-51 20 -86 65 q-33 43 -56 103q-20 57 -24 131z" />
<glyph unicode="&#x12e;" horiz-adv-x="819" d="M-47 0l22 109h27q20 0 61 4q31 2 58 16q23 10 43 39q16 23 26 63l213 1006l3 9q2 9 4 16q2 10 2 22q0 25 -11 37q-10 14 -30 20q-23 8 -47 11q-18 2 -60 2h-26l22 108h707l-23 -108h-26q-25 0 -66 -4q-25 -2 -57 -19q-29 -14 -45.5 -36.5t-26.5 -65.5l-211 -1004 q-2 -4 -3 -12t-1 -12q-4 -20 -4 -23q0 -25 10 -35q18 -18 33 -22q29 -8 47 -10t59 -2h27l-23 -109h-704zM33 -283q0 51 23 101q18 41 61 80q39 37 96 61q59 27 123 41h158q-37 -10 -78 -31q-53 -27 -80 -49q-39 -33 -61 -70q-25 -39 -25 -90q0 -47 33 -75.5t84 -28.5 q16 0 61 4q35 4 72 12l-27 -131q-37 -14 -84 -24q-41 -8 -94 -9q-123 0 -192.5 53.5t-69.5 155.5z" />
<glyph unicode="&#x12f;" horiz-adv-x="724" d="M117 989l18 109h486l-142 -666q-6 -27 -20 -104q-8 -43 -8 -92q0 -43 18 -68t53 -25q31 0 60 13q23 10 61 34l49 -69q-35 -35 -55 -51q-29 -23 -70 -45q-37 -20 -86 -33q-47 -12 -102 -12q-117 0 -180.5 55t-63.5 155q0 49 8 105q14 98 25 139l80 381q4 16 6 27q0 4 1 13 t3 13q2 8 2 23q0 4 1 8l1 4q0 27 -6 45q-6 16 -18 27q-8 6 -35 10q-29 4 -49 4h-37zM319 1409q0 47 14.5 75.5t43.5 53.5q20 18 59 29q37 10 74 10q33 0 63 -6q23 -4 52 -25q27 -18 37 -39q12 -25 12 -59q0 -41 -17 -74q-14 -29 -43 -51q-27 -20 -63.5 -30.5t-71.5 -10.5 q-27 0 -63 8q-29 6 -51 23q-18 14 -33 41q-13 24 -13 55zM49 -283q0 51 23 101q18 41 61 80q39 37 96 61q59 27 123 41h158q-37 -10 -78 -31q-53 -27 -80 -49q-39 -33 -61 -70q-25 -39 -25 -90q0 -47 33 -75.5t84 -28.5q16 0 61 4q35 4 72 12l-27 -131q-37 -14 -84 -24 q-41 -8 -94 -9q-123 0 -192.5 53.5t-69.5 155.5z" />
<glyph unicode="&#x130;" horiz-adv-x="819" d="M-47 0l22 109h27q20 0 61 4q31 2 58 16q23 10 43 39q16 23 26 63l213 1006l3 9q2 9 4 16q2 10 2 22q0 25 -11 37q-10 14 -30 20q-23 8 -47 11q-18 2 -60 2h-26l22 108h707l-23 -108h-26q-25 0 -66 -4q-25 -2 -57 -19q-29 -14 -45.5 -36.5t-26.5 -65.5l-211 -1004 q-2 -4 -3 -12t-1 -12q-4 -20 -4 -23q0 -25 10 -35q18 -18 33 -22q29 -8 47 -10t59 -2h27l-23 -109h-704zM479 1747q0 47 14.5 75.5t43.5 53.5q20 18 59 29q37 10 74 10q33 0 63 -6q23 -4 52 -25q27 -18 37 -39q12 -25 12 -59q0 -41 -17 -74q-14 -29 -43 -51 q-27 -20 -63.5 -30.5t-71.5 -10.5q-27 0 -63 8q-29 6 -51 23q-18 14 -33 41q-13 24 -13 55z" />
<glyph unicode="&#x131;" horiz-adv-x="724" d="M117 989l18 109h486l-142 -666q-6 -27 -20 -104q-8 -43 -8 -92q0 -43 18 -68t53 -25q31 0 60 13q23 10 61 34l49 -69q-35 -35 -55 -51q-29 -23 -70 -45q-37 -20 -86 -33q-47 -12 -102 -12q-117 0 -180.5 55t-63.5 155q0 49 8 105q14 98 25 139l80 381q4 16 6 27q0 4 1 13 t3 13q2 8 2 23q0 4 1 8l1 4q0 27 -6 45q-6 16 -18 27q-8 6 -35 10q-29 4 -49 4h-37z" />
<glyph unicode="&#x132;" horiz-adv-x="1640" d="M-47 0l22 109h27q20 0 61 4q31 2 58 16q23 10 43 39q16 23 26 63l213 1006l3 9q2 9 4 16q2 10 2 22q0 25 -11 37q-10 14 -30 20q-23 8 -47 11q-18 2 -60 2h-26l22 108h707l-23 -108h-26q-25 0 -66 -4q-25 -2 -57 -19q-29 -14 -45.5 -36.5t-26.5 -65.5l-211 -1004 q-2 -4 -3 -12t-1 -12q-4 -20 -4 -23q0 -25 10 -35q18 -18 33 -22q29 -8 47 -10t59 -2h27l-23 -109h-704zM497 -469l29 113q8 -4 29 -9q10 -2 34.5 -6t36.5 -4h33q52 0 99 19q45 18 83 63q33 39 66 113q33 76 53 174l264 1243l3 9q2 9 4 16q2 10 2 22q0 25 -11 37 q-10 14 -30 20q-23 8 -47 11q-18 2 -60 2h-26l22 108h707l-23 -108h-26q-25 0 -66 -4q-25 -2 -57 -19q-29 -14 -45.5 -36.5t-26.5 -65.5l-260 -1235q-25 -125 -86 -217q-57 -86 -146 -152q-82 -61 -182 -88q-104 -29 -205 -29q-55 0 -92 7q-53 8 -76 16z" />
<glyph unicode="&#x133;" horiz-adv-x="1417" d="M117 989l18 109h486l-142 -666q-6 -27 -20 -104q-8 -43 -8 -92q0 -43 18 -68t53 -25q31 0 60 13q23 10 61 34l49 -69q-35 -35 -55 -51q-29 -23 -70 -45q-37 -20 -86 -33q-47 -12 -102 -12q-117 0 -180.5 55t-63.5 155q0 49 8 105q14 98 25 139l80 381q4 16 6 27q0 4 1 13 t3 13q2 8 2 23q0 4 1 8l1 4q0 27 -6 45q-6 16 -18 27q-8 6 -35 10q-29 4 -49 4h-37zM319 1409q0 47 14.5 75.5t43.5 53.5q20 18 59 29q37 10 74 10q33 0 63 -6q23 -4 52 -25q27 -18 37 -39q12 -25 12 -59q0 -41 -17 -74q-14 -29 -43 -51q-27 -20 -63.5 -30.5t-71.5 -10.5 q-27 0 -63 8q-29 6 -51 23q-18 14 -33 41q-13 24 -13 55zM440 -467l25 107q4 -2 43 -11q18 -4 49 -4q51 0 84 17q37 18 63.5 59t49.5 113q27 84 45 170l176 831q4 16 6 27q0 4 1 13t3 13q2 8 2 23q0 4 1 8l1 4q0 27 -6 45q-6 16 -18 27q-8 6 -35 10q-29 4 -49 4h-37l18 109 h486l-238 -1114q-25 -127 -76 -228q-45 -90 -108.5 -147.5t-132.5 -77.5q-74 -23 -150 -23q-68 0 -113 7q-47 6 -90 18zM1046 1409q0 47 14.5 75.5t43.5 53.5q20 18 59 29q37 10 74 10q33 0 63 -6q23 -4 52 -25q27 -18 37 -39q12 -25 12 -59q0 -41 -17 -74q-14 -29 -43 -51 q-27 -20 -63.5 -30.5t-71.5 -10.5q-27 0 -63 8q-29 6 -51 23q-18 14 -33 41q-13 24 -13 55z" />
<glyph unicode="&#x134;" horiz-adv-x="819" d="M-324 -469l29 113q8 -4 29 -9q10 -2 34.5 -6t36.5 -4h33q52 0 99 19q45 18 83 63q33 39 66 113q33 76 53 174l264 1243l3 9q2 9 4 16q2 10 2 22q0 25 -11 37q-10 14 -30 20q-23 8 -47 11q-18 2 -60 2h-26l22 108h707l-23 -108h-26q-25 0 -66 -4q-25 -2 -57 -19 q-29 -14 -45.5 -36.5t-26.5 -65.5l-260 -1235q-25 -125 -86 -217q-57 -86 -146 -152q-82 -61 -182 -88q-104 -29 -205 -29q-55 0 -92 7q-53 8 -76 16zM256 1579l6 27l30.5 31.5t36.5 35.5l78 76l80 82q47 51 66 76h276q16 -43 33 -72q20 -41 43 -82l45 -80l39 -67l-6 -27 h-129l-18.5 18.5t-22.5 20.5l-50 49l-49 49q-18 18 -43 47q-59 -45 -61 -47l-70 -49l-33.5 -24.5l-33.5 -24.5l-58 -39h-159z" />
<glyph unicode="&#x135;" horiz-adv-x="690" d="M-287 -467l25 107q4 -2 43 -11q18 -4 49 -4q51 0 84 17q37 18 63.5 59t49.5 113q27 84 45 170l176 831q4 16 6 27q0 4 1 13t3 13q2 8 2 23q0 4 1 8l1 4q0 27 -6 45q-6 16 -18 27q-8 6 -35 10q-29 4 -49 4h-37l18 109h486l-238 -1114q-25 -127 -76 -228 q-45 -90 -108.5 -147.5t-132.5 -77.5q-74 -23 -150 -23q-68 0 -113 7q-47 6 -90 18zM54 1241l6 27l30.5 31.5t36.5 35.5l78 76l80 82q47 51 66 76h276q16 -43 33 -72q20 -41 43 -82l45 -80l39 -67l-6 -27h-129l-18.5 18.5t-22.5 20.5l-50 49l-49 49q-18 18 -43 47 q-59 -45 -61 -47l-70 -49l-33.5 -24.5l-33.5 -24.5l-58 -39h-159z" />
<glyph unicode="&#x136;" horiz-adv-x="1517" d="M-47 0l22 109h27q20 0 61 4q31 2 58 16q23 10 43 39q16 23 26 63l209 983q12 51 13 70q0 25 -11 37q-10 14 -30 20q-23 8 -47 11q-18 2 -60 2h-26l22 108h707l-23 -108h-26q-25 0 -66 -4q-25 -2 -57 -19q-29 -14 -45.5 -36.5t-26.5 -65.5l-102 -486l415 367q37 33 68 66 q33 35 43 53q12 20 20 43q6 18 7 31q0 29 -21 40q-23 12 -70 13l23 106h553l-23 -106q-39 0 -80 -10q-35 -8 -75 -31q-31 -16 -82 -53q-31 -23 -92 -76l-332 -293l239 -576q29 -68 46 -98q23 -43 41 -63.5t47 -34.5q25 -12 61 -12h6l-20 -109h-107q-102 0 -170 12 q-66 12 -114 45q-43 29 -78 86q-31 49 -66 140l-151 391l-121 -86l-76 -363q-2 -4 -3 -12t-1 -12q-4 -20 -4 -23q0 -25 10 -35q18 -18 33 -22q29 -8 47 -10t59 -2h27l-23 -109h-704zM469 -453l6 27q23 47 68 150q29 63 57 151h258l-6 -20l-51 -70q-57 -76 -64 -82 q-4 -4 -71 -80q-49 -53 -74 -76h-123z" />
<glyph unicode="&#x137;" horiz-adv-x="1222" d="M43 0l270 1274q0 6 2 12t4 14q0 4 1.5 13.5t3.5 13.5q4 16 4 23v12q0 27 -6 45q-6 16 -19 27q-12 8 -35 12q-14 2 -49 2h-43l19 108h495l-108 -499l-17.5 -78t-13.5 -66q-4 -25 -14.5 -65.5t-12.5 -54.5l-28 -115l-33 -125l319 289q25 20 39 39l25 30q6 8 10 20.5t4 18.5 q0 20 -24.5 32.5t-71.5 12.5l20 103h516l-20 -103q-76 0 -150 -41q-84 -47 -176 -133l-163 -151l153 -334q41 -84 64 -117q29 -41 59.5 -67.5t49 -34.5t40.5 -8h8l-22 -109h-105q-70 0 -135 10q-53 8 -102 35q-51 27 -78 59q-33 41 -53 89l-121 286l-111 -71l-88 -408h-307z M289 -453l6 27q23 47 68 150q29 63 57 151h258l-6 -20l-51 -70q-57 -76 -64 -82q-4 -4 -71 -80q-49 -53 -74 -76h-123z" />
<glyph unicode="&#x138;" horiz-adv-x="1222" d="M43 0l172 815q4 16 6 27q0 4 1 13t3 13q2 8 2 23q0 4 1 8l1 4q0 27 -6 45q-6 16 -18 27q-8 6 -35 10q-29 4 -49 4h-43l18 109h496l-31 -144l-22 -98l-25 -108q-6 -31 -13 -56.5t-14 -48.5q-14 -55 -24 -90l319 289q25 20 39 39l25 30q6 8 10 20.5t4 18.5q0 20 -24.5 32.5 t-71.5 12.5l20 103h516l-20 -103q-76 0 -150 -41q-84 -47 -176 -133l-163 -151l153 -334q41 -84 64 -117q29 -41 59.5 -67.5t49 -34.5t40.5 -8h8l-22 -109h-105q-70 0 -135 10q-53 8 -102 35q-51 27 -78 59q-33 41 -53 89l-121 286l-111 -71l-88 -408h-307z" />
<glyph unicode="&#x139;" horiz-adv-x="1337" d="M-47 0l22 109h27q20 0 61 4q31 2 58 16q23 10 43 39q16 23 26 63l209 983q12 51 13 70q0 25 -11 37q-10 14 -30 20q-23 8 -47 11q-18 2 -60 2h-26l22 108h707l-23 -108h-26q-25 0 -66 -4q-25 -2 -57 -19q-29 -14 -45.5 -36.5t-26.5 -65.5l-231 -1104h342q61 0 98 14 q45 18 72 41q33 31 53 70q25 49 41 98l37 109h131l-113 -457h-1200zM568 1579l6 27q10 10 32.5 35.5t28.5 31.5l66 78q57 72 63 80q12 14 29.5 41t24.5 35h321l-6 -21q-15 -18 -43 -43q-41 -37 -64 -53q-23 -18 -77 -57l-82 -58q-61 -41 -82 -53q-35 -23 -78 -43h-139z" />
<glyph unicode="&#x13a;" horiz-adv-x="724" d="M102 190q0 92 33 244l178 840q0 6 2 12t4 14q0 4 1.5 13.5t3.5 13.5q4 16 4 23v12q0 27 -6 45q-6 16 -19 27q-12 8 -35 12q-14 2 -49 2h-43l19 108h495l-244 -1124q-6 -27 -20 -104q-8 -43 -8 -92q0 -43 18.5 -68t52.5 -25q31 0 60 13q23 10 61 34l49 -69 q-35 -35 -55 -51q-29 -23 -69 -45q-37 -20 -86 -33q-47 -12 -103 -12q-117 0 -180.5 55t-63.5 155zM439 1636l6 27q10 10 32.5 35.5t28.5 31.5l66 78q57 72 63 80q12 14 29.5 41t24.5 35h321l-6 -21q-15 -18 -43 -43q-41 -37 -64 -53q-23 -18 -77 -57l-82 -58 q-61 -41 -82 -53q-35 -23 -78 -43h-139z" />
<glyph unicode="&#x13b;" horiz-adv-x="1337" d="M-47 0l22 109h27q20 0 61 4q31 2 58 16q23 10 43 39q16 23 26 63l209 983q12 51 13 70q0 25 -11 37q-10 14 -30 20q-23 8 -47 11q-18 2 -60 2h-26l22 108h707l-23 -108h-26q-25 0 -66 -4q-25 -2 -57 -19q-29 -14 -45.5 -36.5t-26.5 -65.5l-231 -1104h342q61 0 98 14 q45 18 72 41q33 31 53 70q25 49 41 98l37 109h131l-113 -457h-1200zM358 -453l6 27q23 47 68 150q29 63 57 151h258l-6 -20l-51 -70q-57 -76 -64 -82q-4 -4 -71 -80q-49 -53 -74 -76h-123z" />
<glyph unicode="&#x13c;" horiz-adv-x="724" d="M102 190q0 92 33 244l178 840q0 6 2 12t4 14q0 4 1.5 13.5t3.5 13.5q4 16 4 23v12q0 27 -6 45q-6 16 -19 27q-12 8 -35 12q-14 2 -49 2h-43l19 108h495l-244 -1124q-6 -27 -20 -104q-8 -43 -8 -92q0 -43 18.5 -68t52.5 -25q31 0 60 13q23 10 61 34l49 -69 q-35 -35 -55 -51q-29 -23 -69 -45q-37 -20 -86 -33q-47 -12 -103 -12q-117 0 -180.5 55t-63.5 155zM2 -453l6 27q23 47 68 150q29 63 57 151h258l-6 -20l-51 -70q-57 -76 -64 -82q-4 -4 -71 -80q-49 -53 -74 -76h-123z" />
<glyph unicode="&#x13d;" horiz-adv-x="1337" d="M-47 0l22 109h27q20 0 61 4q31 2 58 16q23 10 43 39q16 23 26 63l209 983q12 51 13 70q0 25 -11 37q-10 14 -30 20q-23 8 -47 11q-18 2 -60 2h-26l22 108h707l-23 -108h-26q-25 0 -66 -4q-25 -2 -57 -19q-29 -14 -45.5 -36.5t-26.5 -65.5l-231 -1104h342q61 0 98 14 q45 18 72 41q33 31 53 70q25 49 41 98l37 109h131l-113 -457h-1200zM1028 1137l6 26q23 47 68 150q29 63 57 151h258l-6 -20q-39 -57 -51 -72q-41 -53 -64 -80l-71 -81q-37 -40 -74 -74h-123z" />
<glyph unicode="&#x13e;" horiz-adv-x="724" d="M102 190q0 92 33 244l178 840q0 6 2 12t4 14q0 4 1.5 13.5t3.5 13.5q4 16 4 23v12q0 27 -6 45q-6 16 -19 27q-12 8 -35 12q-14 2 -49 2h-43l19 108h495l-244 -1124q-6 -27 -20 -104q-8 -43 -8 -92q0 -43 18.5 -68t52.5 -25q31 0 60 13q23 10 61 34l49 -69 q-35 -35 -55 -51q-29 -23 -69 -45q-37 -20 -86 -33q-47 -12 -103 -12q-117 0 -180.5 55t-63.5 155zM731 1229l6 26q23 47 68 150q29 63 57 151h258l-6 -20q-39 -57 -51 -72q-41 -53 -64 -80l-71 -81q-37 -40 -74 -74h-123z" />
<glyph unicode="&#x13f;" horiz-adv-x="1337" d="M-47 0l22 109h27q20 0 61 4q31 2 58 16q23 10 43 39q16 23 26 63l209 983q12 51 13 70q0 25 -11 37q-10 14 -30 20q-23 8 -47 11q-18 2 -60 2h-26l22 108h707l-23 -108h-26q-25 0 -66 -4q-25 -2 -57 -19q-29 -14 -45.5 -36.5t-26.5 -65.5l-231 -1104h342q61 0 98 14 q45 18 72 41q33 31 53 70q25 49 41 98l37 109h131l-113 -457h-1200zM804 766q0 47 14.5 75.5t43.5 53.5q20 18 59 29q37 10 74 10q33 0 63 -6q23 -4 52 -25q27 -18 37 -39q12 -25 12 -59q0 -41 -17 -74q-14 -29 -43 -51q-27 -20 -63.5 -30.5t-71.5 -10.5q-27 0 -63 8 q-29 6 -51 23q-18 14 -33 41q-13 24 -13 55z" />
<glyph unicode="&#x140;" horiz-adv-x="952" d="M102 190q0 92 33 244l178 840q0 6 2 12t4 14q0 4 1.5 13.5t3.5 13.5q4 16 4 23v12q0 27 -6 45q-6 16 -19 27q-12 8 -35 12q-14 2 -49 2h-43l19 108h495l-244 -1124q-6 -27 -20 -104q-8 -43 -8 -92q0 -43 18.5 -68t52.5 -25q31 0 60 13q23 10 61 34l49 -69 q-35 -35 -55 -51q-29 -23 -69 -45q-37 -20 -86 -33q-47 -12 -103 -12q-117 0 -180.5 55t-63.5 155zM649 696q0 47 14.5 75.5t43.5 53.5q20 18 59 29q37 10 74 10q33 0 63 -6q23 -4 52 -25q27 -18 37 -39q12 -25 12 -59q0 -41 -17 -74q-14 -29 -43 -51q-27 -20 -63.5 -30.5 t-71.5 -10.5q-27 0 -63 8q-29 6 -51 23q-18 14 -33 41q-13 24 -13 55z" />
<glyph unicode="&#x141;" horiz-adv-x="1337" d="M-47 0l22 109h27q20 0 61 4q31 2 58 16q23 10 43 39q16 23 26 63l70 334l-188 -96l32 147l189 97l106 501q12 51 13 70q0 25 -11 37q-10 14 -30 20q-23 8 -47 11q-18 2 -60 2h-26l22 108h707l-23 -108h-26q-25 0 -66 -4q-25 -2 -57 -19q-29 -14 -45.5 -36.5t-26.5 -65.5 l-70 -332l340 178l-32 -151l-338 -174l-131 -625h342q61 0 98 14q45 18 72 41q33 31 53 70q25 49 41 98l37 109h131l-113 -457h-1200z" />
<glyph unicode="&#x142;" horiz-adv-x="724" d="M-8 457l31 151l167 86l123 580q0 6 2 12t4 14q0 4 1.5 13.5t3.5 13.5q4 16 4 23v12q0 27 -6 45q-6 16 -19 27q-12 8 -35 12q-14 2 -49 2h-43l19 108h495l-149 -684l182 93l-33 -156l-182 -92l-62 -285q-6 -27 -20 -104q-8 -43 -8 -92q0 -43 18.5 -68t52.5 -25q31 0 60 13 q23 10 61 34l49 -69q-35 -35 -55 -51q-29 -23 -69 -45q-37 -20 -86 -33q-47 -12 -103 -12q-117 0 -180.5 55t-63.5 155q0 92 33 244l23 107z" />
<glyph unicode="&#x143;" horiz-adv-x="1613" d="M-47 0l22 109h27q20 0 61 4q31 2 58 16q23 10 43 39q16 23 26 63l209 983q12 51 13 70q0 25 -11 37q-10 14 -30 20q-23 8 -47 11q-18 2 -60 2h-26l22 108h455l499 -1050l172 809q10 39 10.5 63.5t-10.5 36.5q-12 14 -32 20q-29 8 -47.5 10.5t-59.5 2.5h-6l23 108h516 l-23 -108h-26q-20 0 -62 -4q-23 -2 -55 -19q-29 -14 -45.5 -36.5t-26.5 -63.5l-260 -1231h-188l-555 1159l-193 -917q-2 -4 -8 -39q-2 -10 -2 -25q0 -25 10 -35q18 -18 33 -22q29 -8 47 -10t59 -2h7l-23 -109h-516zM938 1579l6 27q10 10 32.5 35.5t28.5 31.5l66 78 q57 72 63 80q12 14 29.5 41t24.5 35h321l-6 -21q-15 -18 -43 -43q-41 -37 -64 -53q-23 -18 -77 -57l-82 -58q-61 -41 -82 -53q-35 -23 -78 -43h-139z" />
<glyph unicode="&#x144;" horiz-adv-x="1374" d="M90 0l172 815q4 16 6 27q0 4 1 13t3 13q2 8 2 23q0 4 1 8l1 4q0 27 -6 45q-6 16 -18 27q-8 6 -35 10q-29 4 -49 4h-37l18 109h455l-23 -219h13q41 61 81.5 106t88 73.5t104.5 45.5q51 14 125 14q66 0 108 -18q47 -20 74 -53t39 -74q12 -43 12 -90q0 -14 -4 -56 q-4 -37 -8 -59l-12 -59l-12 -58l-46 -219q-6 -27 -20 -104q-8 -43 -8 -92q0 -43 18.5 -68t53.5 -25q31 0 59 13q23 10 61 34l49 -69q-35 -35 -55 -51q-29 -23 -69 -45q-37 -20 -86 -33q-47 -12 -103 -12q-117 0 -180.5 55t-63.5 155q0 92 33 244l33 162l10 49l12 60 q8 39 11 63q4 41 4 57q0 10 -4 39q-2 20 -13 39q-6 12 -26 29q-12 10 -43 10q-37 0 -70 -24q-41 -31 -65 -62q-45 -57 -62 -88q-37 -66 -53 -100q-12 -27 -41 -103q-10 -27 -25 -90l-104 -475h-307zM676 1241l6 27q10 10 32.5 35.5t28.5 31.5l66 78q57 72 63 80 q12 14 29.5 41t24.5 35h321l-6 -21q-15 -18 -43 -43q-41 -37 -64 -53q-23 -18 -77 -57l-82 -58q-61 -41 -82 -53q-35 -23 -78 -43h-139z" />
<glyph unicode="&#x145;" horiz-adv-x="1613" d="M-47 0l22 109h27q20 0 61 4q31 2 58 16q23 10 43 39q16 23 26 63l209 983q12 51 13 70q0 25 -11 37q-10 14 -30 20q-23 8 -47 11q-18 2 -60 2h-26l22 108h455l499 -1050l172 809q10 39 10.5 63.5t-10.5 36.5q-12 14 -32 20q-29 8 -47.5 10.5t-59.5 2.5h-6l23 108h516 l-23 -108h-26q-20 0 -62 -4q-23 -2 -55 -19q-29 -14 -45.5 -36.5t-26.5 -63.5l-260 -1231h-188l-555 1159l-193 -917q-2 -4 -8 -39q-2 -10 -2 -25q0 -25 10 -35q18 -18 33 -22q29 -8 47 -10t59 -2h7l-23 -109h-516zM430 -453l6 27q23 47 68 150q29 63 57 151h258l-6 -20 l-51 -70q-57 -76 -64 -82q-4 -4 -71 -80q-49 -53 -74 -76h-123z" />
<glyph unicode="&#x146;" horiz-adv-x="1374" d="M90 0l172 815q4 16 6 27q0 4 1 13t3 13q2 8 2 23q0 4 1 8l1 4q0 27 -6 45q-6 16 -18 27q-8 6 -35 10q-29 4 -49 4h-37l18 109h455l-23 -219h13q41 61 81.5 106t88 73.5t104.5 45.5q51 14 125 14q66 0 108 -18q47 -20 74 -53t39 -74q12 -43 12 -90q0 -14 -4 -56 q-4 -37 -8 -59l-12 -59l-12 -58l-46 -219q-6 -27 -20 -104q-8 -43 -8 -92q0 -43 18.5 -68t53.5 -25q31 0 59 13q23 10 61 34l49 -69q-35 -35 -55 -51q-29 -23 -69 -45q-37 -20 -86 -33q-47 -12 -103 -12q-117 0 -180.5 55t-63.5 155q0 92 33 244l33 162l10 49l12 60 q8 39 11 63q4 41 4 57q0 10 -4 39q-2 20 -13 39q-6 12 -26 29q-12 10 -43 10q-37 0 -70 -24q-41 -31 -65 -62q-45 -57 -62 -88q-37 -66 -53 -100q-12 -27 -41 -103q-10 -27 -25 -90l-104 -475h-307zM358 -453l6 27q23 47 68 150q29 63 57 151h258l-6 -20l-51 -70 q-57 -76 -64 -82q-4 -4 -71 -80q-49 -53 -74 -76h-123z" />
<glyph unicode="&#x147;" horiz-adv-x="1613" d="M-47 0l22 109h27q20 0 61 4q31 2 58 16q23 10 43 39q16 23 26 63l209 983q12 51 13 70q0 25 -11 37q-10 14 -30 20q-23 8 -47 11q-18 2 -60 2h-26l22 108h455l499 -1050l172 809q10 39 10.5 63.5t-10.5 36.5q-12 14 -32 20q-29 8 -47.5 10.5t-59.5 2.5h-6l23 108h516 l-23 -108h-26q-20 0 -62 -4q-23 -2 -55 -19q-29 -14 -45.5 -36.5t-26.5 -63.5l-260 -1231h-188l-555 1159l-193 -917q-2 -4 -8 -39q-2 -10 -2 -25q0 -25 10 -35q18 -18 33 -22q29 -8 47 -10t59 -2h7l-23 -109h-516zM725 1880l6 27h129q18 -16 41 -39l49 -49l49 -51 q31 -31 43 -46l62 46l69 51l34 24.5l34 24.5l57 39h160l-6 -27l-30.5 -31.5t-37.5 -35.5q-57 -55 -77 -76l-78 -82q-57 -61 -68 -76h-276q-16 43 -33 72q-8 18 -43 80q-10 18 -20.5 39.5t-22.5 42.5q-16 32 -41 67z" />
<glyph unicode="&#x148;" horiz-adv-x="1374" d="M90 0l172 815q4 16 6 27q0 4 1 13t3 13q2 8 2 23q0 4 1 8l1 4q0 27 -6 45q-6 16 -18 27q-8 6 -35 10q-29 4 -49 4h-37l18 109h455l-23 -219h13q41 61 81.5 106t88 73.5t104.5 45.5q51 14 125 14q66 0 108 -18q47 -20 74 -53t39 -74q12 -43 12 -90q0 -14 -4 -56 q-4 -37 -8 -59l-12 -59l-12 -58l-46 -219q-6 -27 -20 -104q-8 -43 -8 -92q0 -43 18.5 -68t53.5 -25q31 0 59 13q23 10 61 34l49 -69q-35 -35 -55 -51q-29 -23 -69 -45q-37 -20 -86 -33q-47 -12 -103 -12q-117 0 -180.5 55t-63.5 155q0 92 33 244l33 162l10 49l12 60 q8 39 11 63q4 41 4 57q0 10 -4 39q-2 20 -13 39q-6 12 -26 29q-12 10 -43 10q-37 0 -70 -24q-41 -31 -65 -62q-45 -57 -62 -88q-37 -66 -53 -100q-12 -27 -41 -103q-10 -27 -25 -90l-104 -475h-307zM471 1542l6 27h129q18 -16 41 -39l49 -49l49 -51q31 -31 43 -46l62 46 l69 51l34 24.5l34 24.5l57 39h160l-6 -27l-30.5 -31.5t-37.5 -35.5q-57 -55 -77 -76l-78 -82q-57 -61 -68 -76h-276q-16 43 -33 72q-8 18 -43 80q-10 18 -20.5 39.5t-22.5 42.5q-16 32 -41 67z" />
<glyph unicode="&#x149;" horiz-adv-x="1673" d="M389 0l172 815q4 16 6 27q0 4 1 13t3 13q2 8 2 23q0 4 1 8l1 4q0 27 -6 45q-6 16 -18 27q-8 6 -35 10q-29 4 -49 4h-37l18 109h455l-23 -219h13q41 61 81.5 106t88 73.5t104.5 45.5q51 14 125 14q66 0 108 -18q47 -20 74 -53t39 -74q12 -43 12 -90q0 -14 -4 -56 q-4 -37 -8 -59l-12 -59l-12 -58l-46 -219q-6 -27 -20 -104q-8 -43 -8 -92q0 -43 18.5 -68t53.5 -25q31 0 59 13q23 10 61 34l49 -69q-35 -35 -55 -51q-29 -23 -69 -45q-37 -20 -86 -33q-47 -12 -103 -12q-117 0 -180.5 55t-63.5 155q0 92 33 244l33 162l10 49l12 60 q8 39 11 63q4 41 4 57q0 10 -4 39q-2 20 -13 39q-6 12 -26 29q-12 10 -43 10q-37 0 -70 -24q-41 -31 -65 -62q-45 -57 -62 -88q-37 -66 -53 -100q-12 -27 -41 -103q-10 -27 -25 -90l-104 -475h-307zM-23 842l23 108q211 49 211 170q0 23 -9 37l-20 27q-8 8 -29 24 q-10 8 -26.5 28.5t-22.5 35.5q-8 18 -8 51q0 35 12 59q14 31 33 45q20 16 49 27q31 10 60 10q37 0 69.5 -12t57.5 -37q20 -20 36 -57q14 -31 15 -80q0 -74 -29 -148q-25 -66 -84 -126q-49 -53 -141 -99q-82 -40 -197 -63z" />
<glyph unicode="&#x14a;" horiz-adv-x="1562" d="M-47 0l22 109h27q20 0 61 4q31 2 58 16q23 10 43 39q16 23 26 63l209 983q12 51 13 70q0 25 -11 37q-10 14 -30 20q-23 8 -47 11q-18 2 -60 2h-26l22 108h455l499 -1050l172 809q10 39 10.5 63.5t-10.5 36.5q-12 14 -32 20q-29 8 -47.5 10.5t-59.5 2.5h-6l23 108h516 l-23 -108h-26q-20 0 -62 -4q-23 -2 -55 -19q-29 -14 -45.5 -36.5t-26.5 -63.5l-260 -1231q-29 -133 -74 -225q-49 -98 -110 -154q-66 -59 -146 -86t-180 -27q-39 0 -82 7q-51 8 -76 16l27 115q31 -12 55 -15q37 -4 56 -4q53 0 100 17q49 16 96 61q41 37 84 115q39 70 62 180 l-555 1159l-193 -917q-2 -4 -8 -39q-2 -10 -2 -25q0 -25 10 -35q18 -18 33 -22q29 -8 47 -10t59 -2h7l-23 -109h-516z" />
<glyph unicode="&#x14b;" horiz-adv-x="1333" d="M76 0l172 815q4 16 6 27q0 4 1 13t3 13q2 8 2 23q0 4 1 8l1 4q0 27 -6 45q-6 16 -18 27q-8 6 -35 10q-29 4 -49 4h-37l18 109h455l-19 -209h13q45 70 80 106q45 49 90 74q57 31 104 45q51 14 125 14q65 0 111 -18q41 -16 71 -53q27 -33 39 -74q12 -43 13 -90 q0 -14 -5 -55q-4 -37 -8 -60l-12 -59q-4 -20 -12 -57l-146 -678q-25 -127 -76 -228q-45 -90 -108.5 -147.5t-132.5 -77.5q-74 -23 -150 -23q-68 0 -112 7q-47 6 -90 18l24 107q4 -2 43 -11q18 -4 49 -4q51 0 84 17q37 18 64 59q31 47 51 112.5t43 170.5l133 622q2 8 10 49 l13 60q8 39 10 63q4 41 4 58q0 10 -4 38q-2 20 -12 39q-8 16 -25 27q-18 12 -45 12q-37 0 -70 -24q-41 -31 -65 -62q-45 -57 -62 -88q-37 -66 -53 -100q-12 -27 -41 -103q-10 -27 -24 -90l-109 -485h-307z" />
<glyph unicode="&#x14c;" horiz-adv-x="1619" d="M129 545q0 98 25 207q25 106 73 211q53 115 121 200q72 94 170 166q90 68 217 113q121 43 266 43q117 0 216 -33q102 -35 180 -102q80 -72 125 -174q45 -104 45 -254q0 -102 -23 -201q-23 -100 -71 -211q-47 -104 -119 -203q-66 -90 -168 -168q-98 -78 -219 -119 q-123 -43 -267 -43q-121 0 -225 37t-182 109q-80 74 -121 176q-43 108 -43 246zM463 496q0 -96 22 -174q23 -74 58 -119q37 -45 90 -68q55 -23 108 -22q82 0 154 41q63 37 125 110q59 72 96 156q35 76 66 184q31 102 41 189q12 96 12 176q0 104 -21 172q-23 76 -57 119 q-39 49 -88 69q-55 23 -111 23q-84 0 -155 -41q-63 -35 -123 -109q-57 -70 -96 -158q-40 -89 -68 -184q-29 -102 -41 -190q-12 -96 -12 -174zM701 1579l34 162h594l-34 -162h-594z" />
<glyph unicode="&#x14d;" horiz-adv-x="1265" d="M82 410q0 77 18 159q18 86 54 160q35 78 92 150q59 76 129 125q76 53 170 83q95 31 209 31q89 0 166 -24q82 -27 137 -76q58 -52 92 -135q33 -80 33 -195q0 -84 -17 -156q-20 -88 -53 -159q-39 -84 -90 -150q-55 -72 -127 -125q-74 -55 -170 -86q-102 -33 -209 -32 q-98 0 -176 26.5t-137 79.5q-55 49 -88 135.5t-33 188.5zM395 360q0 -127 41 -180t117 -53q57 0 100 31q41 29 80 84q37 52 62 116q27 68 41 138q20 98 26 137q8 59 8 121q0 125 -41 174q-43 53 -114 53q-53 0 -96.5 -30.5t-79.5 -80.5q-29 -39 -62 -114q-25 -55 -45 -133 q-20 -74 -29 -138q-8 -59 -8 -125zM455 1241l34 162h594l-34 -162h-594z" />
<glyph unicode="&#x14e;" horiz-adv-x="1619" d="M129 545q0 98 25 207q25 106 73 211q53 115 121 200q72 94 170 166q90 68 217 113q121 43 266 43q117 0 216 -33q102 -35 180 -102q80 -72 125 -174q45 -104 45 -254q0 -102 -23 -201q-23 -100 -71 -211q-47 -104 -119 -203q-66 -90 -168 -168q-98 -78 -219 -119 q-123 -43 -267 -43q-121 0 -225 37t-182 109q-80 74 -121 176q-43 108 -43 246zM463 496q0 -96 22 -174q23 -74 58 -119q37 -45 90 -68q55 -23 108 -22q82 0 154 41q63 37 125 110q59 72 96 156q35 76 66 184q31 102 41 189q12 96 12 176q0 104 -21 172q-23 76 -57 119 q-39 49 -88 69q-55 23 -111 23q-84 0 -155 -41q-63 -35 -123 -109q-57 -70 -96 -158q-40 -89 -68 -184q-29 -102 -41 -190q-12 -96 -12 -174zM709 1901h135q10 -74 53 -107q45 -33 119 -33q76 0 129 33q55 35 86 107h127q-14 -55 -47 -117q-27 -51 -78 -103 q-47 -47 -106 -73q-63 -29 -134 -29q-63 0 -118 23q-51 20 -86 65q-33 43 -56 103q-20 57 -24 131z" />
<glyph unicode="&#x14f;" horiz-adv-x="1265" d="M82 410q0 77 18 159q18 86 54 160q35 78 92 150q59 76 129 125q76 53 170 83q95 31 209 31q89 0 166 -24q82 -27 137 -76q58 -52 92 -135q33 -80 33 -195q0 -84 -17 -156q-20 -88 -53 -159q-39 -84 -90 -150q-55 -72 -127 -125q-74 -55 -170 -86q-102 -33 -209 -32 q-98 0 -176 26.5t-137 79.5q-55 49 -88 135.5t-33 188.5zM395 360q0 -127 41 -180t117 -53q57 0 100 31q41 29 80 84q37 52 62 116q27 68 41 138q20 98 26 137q8 59 8 121q0 125 -41 174q-43 53 -114 53q-53 0 -96.5 -30.5t-79.5 -80.5q-29 -39 -62 -114q-25 -55 -45 -133 q-20 -74 -29 -138q-8 -59 -8 -125zM482 1563h135q10 -74 53 -107q45 -33 119 -33q76 0 129 33q55 35 86 107h127q-14 -55 -47 -117q-27 -51 -78 -103q-47 -47 -106 -73q-63 -29 -134 -29q-63 0 -118 23q-51 20 -86 65q-33 43 -56 103q-20 57 -24 131z" />
<glyph unicode="&#x150;" horiz-adv-x="1619" d="M129 545q0 98 25 207q25 106 73 211q53 115 121 200q72 94 170 166q90 68 217 113q121 43 266 43q117 0 216 -33q102 -35 180 -102q80 -72 125 -174q45 -104 45 -254q0 -102 -23 -201q-23 -100 -71 -211q-47 -104 -119 -203q-66 -90 -168 -168q-98 -78 -219 -119 q-123 -43 -267 -43q-121 0 -225 37t-182 109q-80 74 -121 176q-43 108 -43 246zM463 496q0 -96 22 -174q23 -74 58 -119q37 -45 90 -68q55 -23 108 -22q82 0 154 41q63 37 125 110q59 72 96 156q35 76 66 184q31 102 41 189q12 96 12 176q0 104 -21 172q-23 76 -57 119 q-39 49 -88 69q-55 23 -111 23q-84 0 -155 -41q-63 -35 -123 -109q-57 -70 -96 -158q-40 -89 -68 -184q-29 -102 -41 -190q-12 -96 -12 -174zM717 1579l6 27l58 69q29 35 57 76l55 80q27 39 49 76h260l-6 -21q-25 -31 -63 -67l-92 -84l-101 -86q-45 -37 -92 -70h-131z M1106 1579l6 27l58 69q29 35 57 76l55 80q27 39 49 76h261l-7 -21q-25 -31 -63 -67l-92 -84l-101 -86q-45 -37 -92 -70h-131z" />
<glyph unicode="&#x151;" horiz-adv-x="1265" d="M82 410q0 77 18 159q18 86 54 160q35 78 92 150q59 76 129 125q76 53 170 83q95 31 209 31q89 0 166 -24q82 -27 137 -76q58 -52 92 -135q33 -80 33 -195q0 -84 -17 -156q-20 -88 -53 -159q-39 -84 -90 -150q-55 -72 -127 -125q-74 -55 -170 -86q-102 -33 -209 -32 q-98 0 -176 26.5t-137 79.5q-55 49 -88 135.5t-33 188.5zM395 360q0 -127 41 -180t117 -53q57 0 100 31q41 29 80 84q37 52 62 116q27 68 41 138q20 98 26 137q8 59 8 121q0 125 -41 174q-43 53 -114 53q-53 0 -96.5 -30.5t-79.5 -80.5q-29 -39 -62 -114q-25 -55 -45 -133 q-20 -74 -29 -138q-8 -59 -8 -125zM442 1241l6 27l58 69q29 35 57 76l55 80q27 39 49 76h260l-6 -21q-25 -31 -63 -67l-92 -84l-101 -86q-45 -37 -92 -70h-131zM831 1241l6 27l58 69q29 35 57 76l55 80q27 39 49 76h261l-7 -21q-25 -31 -63 -67l-92 -84l-101 -86 q-45 -37 -92 -70h-131z" />
<glyph unicode="&#x152;" horiz-adv-x="2029" d="M129 545q0 98 25 207q25 106 73 211q53 115 121 200q72 94 170 166q90 68 217 113q121 43 266 43q47 0 97 -6q61 -8 92 -17h915l-71 -381h-146l1 9q1 8 1 16l4 37q0 6 1 19.5t1 17.5q0 6 2 17v3q0 20 -8 53q-6 25 -24 43q-23 23 -45 31q-31 10 -68 10h-272l-109 -512h465 l-27 -123h-464l-123 -577h323q43 0 86 14q37 12 66 35q23 18 49 55q16 23 31 64l32 88h146l-94 -381h-969q-33 -8 -94 -16q-49 -6 -99 -7q-121 0 -225 37t-182 109q-80 74 -121 176q-43 108 -43 246zM463 496q0 -96 22 -174q23 -74 58 -119q37 -45 90 -68q55 -23 108 -22 q51 0 86 8q47 10 78 29l244 1153q-27 16 -84 34q-45 14 -107 15q-84 0 -155 -41q-63 -35 -123 -109q-57 -70 -96 -158q-40 -89 -68 -184q-29 -102 -41 -190q-12 -96 -12 -174z" />
<glyph unicode="&#x153;" horiz-adv-x="1843" d="M82 403q0 76 18 158q20 90 54 162q39 82 92 151q51 63 131 125q74 55 170 86q102 33 209 33q111 0 205 -39q86 -37 137 -121q84 78 186 119q113 45 242 45q145 0 227 -63.5t82 -177.5q0 -84 -45 -160t-127 -135q-78 -55 -195 -92q-115 -35 -243 -35h-37q-27 0 -39 2 q-4 -29 -4 -41v-37q0 -120 55 -184q55 -63 168 -64q51 0 94 15q51 16 84 38q55 37 70 52q27 27 51 61q12 -16 19 -39q8 -33 8 -49q0 -37 -25 -78q-29 -45 -72 -76q-53 -37 -127 -57q-80 -23 -182 -22q-115 0 -209 40q-92 39 -147 121q-80 -78 -176 -116q-109 -45 -240 -45 q-90 0 -176 26q-74 23 -137 80q-57 51 -88 131q-33 86 -33 186zM395 356q0 -70 11 -106q12 -43 32 -70q23 -29 49 -41q29 -12 66 -12q51 0 100 33q45 31 80 84t62 118q20 49 43 138q16 63 26 137q8 59 8 121q0 123 -41 172q-43 51 -114 51q-53 0 -96 -30.5t-80 -80.5 q-31 -41 -64 -116q-25 -59 -45 -136q-16 -63 -26 -137q-11 -76 -11 -125zM1163 578h19q80 0 141 20q63 20 115 59q47 35 75 91q27 51 27 118q0 61 -27 99q-25 35 -73 34q-33 0 -64 -18q-37 -23 -59 -47q-29 -33 -53 -72q-8 -12 -43 -88q-14 -31 -35 -96q-11 -30 -23 -100z " />
<glyph unicode="&#x154;" horiz-adv-x="1447" d="M-47 0l22 109h27q20 0 61 4q31 2 58 16q23 10 43 39q16 23 26 63l209 983q12 51 13 70q0 25 -11 37q-10 14 -30 20q-23 8 -47 11q-18 2 -60 2h-26l22 108h658q246 0 366.5 -86t120.5 -256q0 -106 -33 -178q-33 -70 -86 -121q-57 -53 -119 -80q-68 -29 -127 -43l142 -381 q27 -70 41 -98q23 -43 43 -65q23 -27 49 -35q31 -10 61 -10h8l-22 -109h-21q-115 0 -186 8q-74 8 -133 35q-57 25 -94 72q-39 49 -60 118l-129 402h-141l-80 -375q-2 -12 -10 -55q-4 -25 -4 -27q0 -25 10 -35q18 -18 33 -22q29 -8 47 -10t59 -2h68l-23 -109h-745zM621 754 h127q68 0 122 18q51 16 97 59q39 37 65 107q25 66 25 156q0 70 -13 116q-12 45 -36.5 76t-63.5 43q-37 12 -88 12h-104zM754 1579l6 27q10 10 32.5 35.5t28.5 31.5l66 78q57 72 63 80q12 14 29.5 41t24.5 35h321l-6 -21q-15 -18 -43 -43q-41 -37 -64 -53q-23 -18 -77 -57 l-82 -58q-61 -41 -82 -53q-35 -23 -78 -43h-139z" />
<glyph unicode="&#x155;" horiz-adv-x="1126" d="M76 0l174 823q0 2 3 18.5t5 26.5q4 37 4 50q0 41 -24 55q-27 16 -84 16h-37l18 109h453l-43 -281h10q37 78 70 129q41 59 80 94q49 41 96 58q61 20 125 20q109 0 162 -41t53 -119q0 -106 -62 -157q-63 -53 -180 -53q0 35 -4 83q-2 33 -16 64q-10 25 -31 41q-16 14 -49 14 q-31 0 -62 -24q-39 -31 -63.5 -64t-61.5 -98q-35 -61 -59 -123q-37 -90 -51 -139q-29 -98 -39 -148l-78 -354h-309zM531 1241l6 27q10 10 32.5 35.5t28.5 31.5l66 78q57 72 63 80q12 14 29.5 41t24.5 35h321l-6 -21q-15 -18 -43 -43q-41 -37 -64 -53q-23 -18 -77 -57 l-82 -58q-61 -41 -82 -53q-35 -23 -78 -43h-139z" />
<glyph unicode="&#x156;" horiz-adv-x="1447" d="M-47 0l22 109h27q20 0 61 4q31 2 58 16q23 10 43 39q16 23 26 63l209 983q12 51 13 70q0 25 -11 37q-10 14 -30 20q-23 8 -47 11q-18 2 -60 2h-26l22 108h658q246 0 366.5 -86t120.5 -256q0 -106 -33 -178q-33 -70 -86 -121q-57 -53 -119 -80q-68 -29 -127 -43l142 -381 q27 -70 41 -98q23 -43 43 -65q23 -27 49 -35q31 -10 61 -10h8l-22 -109h-21q-115 0 -186 8q-74 8 -133 35q-57 25 -94 72q-39 49 -60 118l-129 402h-141l-80 -375q-2 -12 -10 -55q-4 -25 -4 -27q0 -25 10 -35q18 -18 33 -22q29 -8 47 -10t59 -2h68l-23 -109h-745zM621 754 h127q68 0 122 18q51 16 97 59q39 37 65 107q25 66 25 156q0 70 -13 116q-12 45 -36.5 76t-63.5 43q-37 12 -88 12h-104zM422 -453l6 27q23 47 68 150q29 63 57 151h258l-6 -20l-51 -70q-57 -76 -64 -82q-4 -4 -71 -80q-49 -53 -74 -76h-123z" />
<glyph unicode="&#x157;" horiz-adv-x="1126" d="M76 0l174 823q0 2 3 18.5t5 26.5q4 37 4 50q0 41 -24 55q-27 16 -84 16h-37l18 109h453l-43 -281h10q37 78 70 129q41 59 80 94q49 41 96 58q61 20 125 20q109 0 162 -41t53 -119q0 -106 -62 -157q-63 -53 -180 -53q0 35 -4 83q-2 33 -16 64q-10 25 -31 41q-16 14 -49 14 q-31 0 -62 -24q-39 -31 -63.5 -64t-61.5 -98q-35 -61 -59 -123q-37 -90 -51 -139q-29 -98 -39 -148l-78 -354h-309zM-41 -453l6 27q23 47 68 150q29 63 57 151h258l-6 -20l-51 -70q-57 -76 -64 -82q-4 -4 -71 -80q-49 -53 -74 -76h-123z" />
<glyph unicode="&#x158;" horiz-adv-x="1447" d="M-47 0l22 109h27q20 0 61 4q31 2 58 16q23 10 43 39q16 23 26 63l209 983q12 51 13 70q0 25 -11 37q-10 14 -30 20q-23 8 -47 11q-18 2 -60 2h-26l22 108h658q246 0 366.5 -86t120.5 -256q0 -106 -33 -178q-33 -70 -86 -121q-57 -53 -119 -80q-68 -29 -127 -43l142 -381 q27 -70 41 -98q23 -43 43 -65q23 -27 49 -35q31 -10 61 -10h8l-22 -109h-21q-115 0 -186 8q-74 8 -133 35q-57 25 -94 72q-39 49 -60 118l-129 402h-141l-80 -375q-2 -12 -10 -55q-4 -25 -4 -27q0 -25 10 -35q18 -18 33 -22q29 -8 47 -10t59 -2h68l-23 -109h-745zM621 754 h127q68 0 122 18q51 16 97 59q39 37 65 107q25 66 25 156q0 70 -13 116q-12 45 -36.5 76t-63.5 43q-37 12 -88 12h-104zM553 1880l6 27h129q18 -16 41 -39l49 -49l49 -51q31 -31 43 -46l62 46l69 51l34 24.5l34 24.5l57 39h160l-6 -27l-30.5 -31.5t-37.5 -35.5 q-57 -55 -77 -76l-78 -82q-57 -61 -68 -76h-276q-16 43 -33 72q-8 18 -43 80q-10 18 -20.5 39.5t-22.5 42.5q-16 32 -41 67z" />
<glyph unicode="&#x159;" horiz-adv-x="1126" d="M76 0l174 823q0 2 3 18.5t5 26.5q4 37 4 50q0 41 -24 55q-27 16 -84 16h-37l18 109h453l-43 -281h10q37 78 70 129q41 59 80 94q49 41 96 58q61 20 125 20q109 0 162 -41t53 -119q0 -106 -62 -157q-63 -53 -180 -53q0 35 -4 83q-2 33 -16 64q-10 25 -31 41q-16 14 -49 14 q-31 0 -62 -24q-39 -31 -63.5 -64t-61.5 -98q-35 -61 -59 -123q-37 -90 -51 -139q-29 -98 -39 -148l-78 -354h-309zM348 1542l6 27h129q18 -16 41 -39l49 -49l49 -51q31 -31 43 -46l62 46l69 51l34 24.5l34 24.5l57 39h160l-6 -27l-30.5 -31.5t-37.5 -35.5q-57 -55 -77 -76 l-78 -82q-57 -61 -68 -76h-276q-16 43 -33 72q-8 18 -43 80q-10 18 -20.5 39.5t-22.5 42.5q-16 32 -41 67z" />
<glyph unicode="&#x15a;" horiz-adv-x="1198" d="M29 279q0 43 20 83q18 37 55 62q33 23 84 35q49 12 107 12q0 -100 20 -164q25 -76 56 -114q35 -43 86 -66t110 -23q53 0 103 17q45 14 78 45q33 29 47 67q16 43 16 82q0 37 -10 78q-8 35 -39 72q-27 33 -78 67q-61 43 -125 78q-76 41 -141 90q-61 45 -101 101 q-41 55 -61 119q-20 61 -20 145q0 94 36 170q35 72 107 131q66 53 168 86q98 31 219 31q113 0 199 -18.5t141 -49.5q61 -35 86 -72q27 -41 27 -90q0 -86 -64 -131q-66 -47 -205 -47q0 41 -10 96q-8 45 -31 91q-20 41 -61 69q-39 27 -100 27q-43 0 -82 -12q-37 -12 -72 -39 q-29 -23 -51 -66q-20 -39 -21 -94q0 -59 17 -92q18 -37 51 -70q31 -31 86 -63l119 -68q154 -84 229 -186q74 -102 74 -232q0 -111 -39 -194q-39 -86 -113 -144q-72 -57 -178 -88q-104 -31 -233 -30q-121 0 -222 22q-86 20 -157 64q-63 39 -95 94q-32 60 -32 119zM701 1579 l6 27q10 10 32.5 35.5t28.5 31.5l66 78q57 72 63 80q12 14 29.5 41t24.5 35h321l-6 -21q-15 -18 -43 -43q-41 -37 -64 -53q-23 -18 -77 -57l-82 -58q-61 -41 -82 -53q-35 -23 -78 -43h-139z" />
<glyph unicode="&#x15b;" horiz-adv-x="1052" d="M35 205q0 49 18 82q16 29 51 53q27 18 70 29q45 10 80 10q0 -63 10 -105q12 -53 35 -88q25 -41 63 -61q41 -23 95 -23q37 0 78 11q35 8 63 30q25 18 41 47q14 27 14 66q0 29 -14 61q-10 25 -41 52q-29 27 -72 47q-84 43 -104 51q-49 23 -109 59q-45 29 -82 72 q-37 45 -53 86q-18 49 -18 109q0 70 33 135q29 57 92 102q66 45 145 66q90 23 193 22q98 0 173.5 -16.5t116.5 -42.5q47 -29 64 -62q20 -37 20 -71q0 -82 -63 -119q-65 -37 -172 -37q0 43 -8 82q-10 45 -27 76q-18 34 -49 55q-29 20 -74 21q-47 0 -72 -11q-29 -10 -53 -32 q-20 -18 -35 -46q-12 -25 -12 -55.5t14 -58.5q12 -25 41 -47q27 -20 72 -43l105 -49q72 -35 114 -64q53 -37 80 -72q33 -43 47.5 -86t14.5 -104q0 -86 -31 -150q-31 -66 -94 -110q-68 -49 -156 -72q-92 -25 -217 -24q-84 0 -160 16q-72 16 -121 43q-49 29 -78 72 q-28 45 -28 94zM553 1241l6 27q10 10 32.5 35.5t28.5 31.5l66 78q57 72 63 80q12 14 29.5 41t24.5 35h321l-6 -21q-15 -18 -43 -43q-41 -37 -64 -53q-23 -18 -77 -57l-82 -58q-61 -41 -82 -53q-35 -23 -78 -43h-139z" />
<glyph unicode="&#x15c;" horiz-adv-x="1198" d="M29 279q0 43 20 83q18 37 55 62q33 23 84 35q49 12 107 12q0 -100 20 -164q25 -76 56 -114q35 -43 86 -66t110 -23q53 0 103 17q45 14 78 45q33 29 47 67q16 43 16 82q0 37 -10 78q-8 35 -39 72q-27 33 -78 67q-61 43 -125 78q-76 41 -141 90q-61 45 -101 101 q-41 55 -61 119q-20 61 -20 145q0 94 36 170q35 72 107 131q66 53 168 86q98 31 219 31q113 0 199 -18.5t141 -49.5q61 -35 86 -72q27 -41 27 -90q0 -86 -64 -131q-66 -47 -205 -47q0 41 -10 96q-8 45 -31 91q-20 41 -61 69q-39 27 -100 27q-43 0 -82 -12q-37 -12 -72 -39 q-29 -23 -51 -66q-20 -39 -21 -94q0 -59 17 -92q18 -37 51 -70q31 -31 86 -63l119 -68q154 -84 229 -186q74 -102 74 -232q0 -111 -39 -194q-39 -86 -113 -144q-72 -57 -178 -88q-104 -31 -233 -30q-121 0 -222 22q-86 20 -157 64q-63 39 -95 94q-32 60 -32 119zM426 1579 l6 27l30.5 31.5t36.5 35.5l78 76l80 82q47 51 66 76h276q16 -43 33 -72q20 -41 43 -82l45 -80l39 -67l-6 -27h-129l-18.5 18.5t-22.5 20.5l-50 49l-49 49q-18 18 -43 47q-59 -45 -61 -47l-70 -49l-33.5 -24.5l-33.5 -24.5l-58 -39h-159z" />
<glyph unicode="&#x15d;" horiz-adv-x="1052" d="M35 205q0 49 18 82q16 29 51 53q27 18 70 29q45 10 80 10q0 -63 10 -105q12 -53 35 -88q25 -41 63 -61q41 -23 95 -23q37 0 78 11q35 8 63 30q25 18 41 47q14 27 14 66q0 29 -14 61q-10 25 -41 52q-29 27 -72 47q-84 43 -104 51q-49 23 -109 59q-45 29 -82 72 q-37 45 -53 86q-18 49 -18 109q0 70 33 135q29 57 92 102q66 45 145 66q90 23 193 22q98 0 173.5 -16.5t116.5 -42.5q47 -29 64 -62q20 -37 20 -71q0 -82 -63 -119q-65 -37 -172 -37q0 43 -8 82q-10 45 -27 76q-18 34 -49 55q-29 20 -74 21q-47 0 -72 -11q-29 -10 -53 -32 q-20 -18 -35 -46q-12 -25 -12 -55.5t14 -58.5q12 -25 41 -47q27 -20 72 -43l105 -49q72 -35 114 -64q53 -37 80 -72q33 -43 47.5 -86t14.5 -104q0 -86 -31 -150q-31 -66 -94 -110q-68 -49 -156 -72q-92 -25 -217 -24q-84 0 -160 16q-72 16 -121 43q-49 29 -78 72 q-28 45 -28 94zM283 1241l6 27l30.5 31.5t36.5 35.5l78 76l80 82q47 51 66 76h276q16 -43 33 -72q20 -41 43 -82l45 -80l39 -67l-6 -27h-129l-18.5 18.5t-22.5 20.5l-50 49l-49 49q-18 18 -43 47q-59 -45 -61 -47l-70 -49l-33.5 -24.5l-33.5 -24.5l-58 -39h-159z" />
<glyph unicode="&#x15e;" horiz-adv-x="1198" d="M29 279q0 43 20 83q18 37 55 62q33 23 84 35q49 12 107 12q0 -100 20 -164q25 -76 56 -114q35 -43 86 -66t110 -23q53 0 103 17q45 14 78 45q33 29 47 67q16 43 16 82q0 37 -10 78q-8 35 -39 72q-27 33 -78 67q-61 43 -125 78q-76 41 -141 90q-61 45 -101 101 q-41 55 -61 119q-20 61 -20 145q0 94 36 170q35 72 107 131q66 53 168 86q98 31 219 31q113 0 199 -18.5t141 -49.5q61 -35 86 -72q27 -41 27 -90q0 -86 -64 -131q-66 -47 -205 -47q0 41 -10 96q-8 45 -31 91q-20 41 -61 69q-39 27 -100 27q-43 0 -82 -12q-37 -12 -72 -39 q-29 -23 -51 -66q-20 -39 -21 -94q0 -59 17 -92q18 -37 51 -70q31 -31 86 -63l119 -68q154 -84 229 -186q74 -102 74 -232q0 -111 -39 -194q-39 -86 -113 -144q-72 -57 -178 -88q-104 -31 -233 -30q-121 0 -222 22q-86 20 -157 64q-63 39 -95 94q-32 60 -32 119zM231 -465 l27 121q33 -8 69 -12q45 -4 64 -4q31 0 59 6q25 6 47 18q18 10 33 33q12 18 12 47q0 20 -10 36.5t-28 29.5q-23 16 -43 20q-16 4 -54 8l82 180h117l-39 -88q43 -6 74 -20t57 -37q23 -20 37 -51q14 -33 14 -62q0 -68 -30 -114q-33 -49 -82 -78t-117 -45q-59 -14 -135 -15 q-33 0 -76 7q-35 4 -78 20z" />
<glyph unicode="&#x15f;" horiz-adv-x="1052" d="M35 205q0 49 18 82q16 29 51 53q27 18 70 29q45 10 80 10q0 -63 10 -105q12 -53 35 -88q25 -41 63 -61q41 -23 95 -23q37 0 78 11q35 8 63 30q25 18 41 47q14 27 14 66q0 29 -14 61q-10 25 -41 52q-29 27 -72 47q-84 43 -104 51q-49 23 -109 59q-45 29 -82 72 q-37 45 -53 86q-18 49 -18 109q0 70 33 135q29 57 92 102q66 45 145 66q90 23 193 22q98 0 173.5 -16.5t116.5 -42.5q47 -29 64 -62q20 -37 20 -71q0 -82 -63 -119q-65 -37 -172 -37q0 43 -8 82q-10 45 -27 76q-18 34 -49 55q-29 20 -74 21q-47 0 -72 -11q-29 -10 -53 -32 q-20 -18 -35 -46q-12 -25 -12 -55.5t14 -58.5q12 -25 41 -47q27 -20 72 -43l105 -49q72 -35 114 -64q53 -37 80 -72q33 -43 47.5 -86t14.5 -104q0 -86 -31 -150q-31 -66 -94 -110q-68 -49 -156 -72q-92 -25 -217 -24q-84 0 -160 16q-72 16 -121 43q-49 29 -78 72 q-28 45 -28 94zM129 -465l27 121q33 -8 69 -12q45 -4 64 -4q31 0 59 6q25 6 47 18q18 10 33 33q12 18 12 47q0 20 -10 36.5t-28 29.5q-23 16 -43 20q-16 4 -54 8l82 180h117l-39 -88q43 -6 74 -20t57 -37q23 -20 37 -51q14 -33 14 -62q0 -68 -30 -114q-33 -49 -82 -78 t-117 -45q-59 -14 -135 -15q-33 0 -76 7q-35 4 -78 20z" />
<glyph unicode="&#x160;" horiz-adv-x="1198" d="M29 279q0 43 20 83q18 37 55 62q33 23 84 35q49 12 107 12q0 -100 20 -164q25 -76 56 -114q35 -43 86 -66t110 -23q53 0 103 17q45 14 78 45q33 29 47 67q16 43 16 82q0 37 -10 78q-8 35 -39 72q-27 33 -78 67q-61 43 -125 78q-76 41 -141 90q-61 45 -101 101 q-41 55 -61 119q-20 61 -20 145q0 94 36 170q35 72 107 131q66 53 168 86q98 31 219 31q113 0 199 -18.5t141 -49.5q61 -35 86 -72q27 -41 27 -90q0 -86 -64 -131q-66 -47 -205 -47q0 41 -10 96q-8 45 -31 91q-20 41 -61 69q-39 27 -100 27q-43 0 -82 -12q-37 -12 -72 -39 q-29 -23 -51 -66q-20 -39 -21 -94q0 -59 17 -92q18 -37 51 -70q31 -31 86 -63l119 -68q154 -84 229 -186q74 -102 74 -232q0 -111 -39 -194q-39 -86 -113 -144q-72 -57 -178 -88q-104 -31 -233 -30q-121 0 -222 22q-86 20 -157 64q-63 39 -95 94q-32 60 -32 119zM485 1880 l6 27h129q18 -16 41 -39l49 -49l49 -51q31 -31 43 -46l62 46l69 51l34 24.5l34 24.5l57 39h160l-6 -27l-30.5 -31.5t-37.5 -35.5q-57 -55 -77 -76l-78 -82q-57 -61 -68 -76h-276q-16 43 -33 72q-8 18 -43 80q-10 18 -20.5 39.5t-22.5 42.5q-16 32 -41 67z" />
<glyph unicode="&#x161;" horiz-adv-x="1052" d="M35 205q0 49 18 82q16 29 51 53q27 18 70 29q45 10 80 10q0 -63 10 -105q12 -53 35 -88q25 -41 63 -61q41 -23 95 -23q37 0 78 11q35 8 63 30q25 18 41 47q14 27 14 66q0 29 -14 61q-10 25 -41 52q-29 27 -72 47q-84 43 -104 51q-49 23 -109 59q-45 29 -82 72 q-37 45 -53 86q-18 49 -18 109q0 70 33 135q29 57 92 102q66 45 145 66q90 23 193 22q98 0 173.5 -16.5t116.5 -42.5q47 -29 64 -62q20 -37 20 -71q0 -82 -63 -119q-65 -37 -172 -37q0 43 -8 82q-10 45 -27 76q-18 34 -49 55q-29 20 -74 21q-47 0 -72 -11q-29 -10 -53 -32 q-20 -18 -35 -46q-12 -25 -12 -55.5t14 -58.5q12 -25 41 -47q27 -20 72 -43l105 -49q72 -35 114 -64q53 -37 80 -72q33 -43 47.5 -86t14.5 -104q0 -86 -31 -150q-31 -66 -94 -110q-68 -49 -156 -72q-92 -25 -217 -24q-84 0 -160 16q-72 16 -121 43q-49 29 -78 72 q-28 45 -28 94zM326 1542l6 27h129q18 -16 41 -39l49 -49l49 -51q31 -31 43 -46l62 46l69 51l34 24.5l34 24.5l57 39h160l-6 -27l-30.5 -31.5t-37.5 -35.5q-57 -55 -77 -76l-78 -82q-57 -61 -68 -76h-276q-16 43 -33 72q-8 18 -43 80q-10 18 -20.5 39.5t-22.5 42.5 q-16 32 -41 67z" />
<glyph unicode="&#x162;" horiz-adv-x="1335" d="M139 1065l94 397h1274l-71 -397h-138q0 14 2 31q0 10 2.5 24.5t4.5 28.5q2 16 4 28.5t2 22.5q2 16 2 29q0 55 -33 81.5t-111 26.5h-163l-236 -1112q-2 -4 -3 -12t-1 -12q-4 -20 -4 -23q0 -25 10 -35q18 -18 33 -22q29 -8 47 -10t59 -2h27l-22 -109h-705l23 109h26 q20 0 62 4q31 2 57 16q23 10 43 39q16 23 27 63l231 1106h-164q-47 0 -82 -12t-57 -35q-20 -20 -41 -57q-16 -29 -33 -80l-29 -88h-137zM303 -453l6 27q23 47 68 150q29 63 57 151h258l-6 -20l-51 -70q-57 -76 -64 -82q-4 -4 -71 -80q-49 -53 -74 -76h-123z" />
<glyph unicode="&#x163;" horiz-adv-x="851" d="M123 958l22 105q47 0 97 14q51 14 106 49q47 29 109 91q53 53 102 133h119l-53 -252h247l-28 -140h-250l-123 -561q-14 -51 -16 -82q-4 -49 -4 -65q0 -53 28 -78t74 -25q43 0 86 17q40 15 74 37l47 -78q-49 -41 -72 -55q-41 -29 -82 -45.5t-94 -30.5q-49 -12 -108.5 -12 t-104.5 14q-51 16 -86 45t-55 74q-20 43 -21 106q0 6 1 18.5t1 20.5q0 16 4 45q0 8 2 24.5t5 22.5q2 8 5 21.5t3 19.5l123 567h-158zM113 -453l6 27q23 47 68 150q29 63 57 151h258l-6 -20l-51 -70q-57 -76 -64 -82q-4 -4 -71 -80q-49 -53 -74 -76h-123z" />
<glyph unicode="&#x164;" horiz-adv-x="1335" d="M139 1065l94 397h1274l-71 -397h-138q0 14 2 31q0 10 2.5 24.5t4.5 28.5q2 16 4 28.5t2 22.5q2 16 2 29q0 55 -33 81.5t-111 26.5h-163l-236 -1112q-2 -4 -3 -12t-1 -12q-4 -20 -4 -23q0 -25 10 -35q18 -18 33 -22q29 -8 47 -10t59 -2h27l-22 -109h-705l23 109h26 q20 0 62 4q31 2 57 16q23 10 43 39q16 23 27 63l231 1106h-164q-47 0 -82 -12t-57 -35q-20 -20 -41 -57q-16 -29 -33 -80l-29 -88h-137zM567 1880l6 27h129q18 -16 41 -39l49 -49l49 -51q31 -31 43 -46l62 46l69 51l34 24.5l34 24.5l57 39h160l-6 -27l-30.5 -31.5 t-37.5 -35.5q-57 -55 -77 -76l-78 -82q-57 -61 -68 -76h-276q-16 43 -33 72q-8 18 -43 80q-10 18 -20.5 39.5t-22.5 42.5q-16 32 -41 67z" />
<glyph unicode="&#x165;" horiz-adv-x="851" d="M90 958l22 105q47 0 97 14q51 14 106 49q47 29 109 91q53 53 102 133h119l-53 -252h247l-28 -140h-250l-123 -561q-14 -51 -16 -82q-4 -49 -4 -65q0 -53 28 -78t74 -25q43 0 86 17q40 15 74 37l47 -78q-49 -41 -72 -55q-41 -29 -82 -45.5t-94 -30.5q-49 -12 -108.5 -12 t-104.5 14q-51 16 -86 45t-55 74q-20 43 -21 106q0 6 1 18.5t1 20.5q0 16 4 45q0 8 2 24.5t5 22.5q2 8 5 21.5t3 19.5l123 567h-158zM735 1229l6 26q23 47 68 150q29 63 57 151h258l-6 -20q-39 -57 -51 -72q-41 -53 -64 -80l-71 -81q-37 -40 -74 -74h-123z" />
<glyph unicode="&#x166;" horiz-adv-x="1335" d="M139 1065l94 397h1274l-71 -397h-138q0 14 2 31q0 10 2.5 24.5t4.5 28.5q2 16 4 28.5t2 22.5q2 16 2 29q0 55 -33 81.5t-111 26.5h-163l-119 -555h295l-23 -108h-295l-94 -449q-2 -4 -3 -12t-1 -12q-4 -20 -4 -23q0 -25 10 -35q18 -18 33 -22q29 -8 47 -10t59 -2h27 l-22 -109h-705l23 109h26q20 0 62 4q31 2 57 16q23 10 43 39q16 23 27 63l92 443h-297l22 108h297l117 555h-164q-47 0 -82 -12t-57 -35q-20 -20 -41 -57q-16 -29 -33 -80l-29 -88h-137z" />
</font>
</defs>
</svg>
